NunitoSans-XminRegular.ufo
<glyph name="exclam" format="2">
  <advance width="228.3855421686747"/>
  <unicode hex="0021"/>
  <outline>
    <contour>
      <point x="89.18072289156626" y="184.0843373493976" type="line"/>
      <point x="139.20481927710844" y="184.0843373493976" type="line"/>
      <point x="164.42168674698794" y="705.0" type="line"/>
      <point x="63.963855421686745" y="705.0" type="line"/>
    </contour>
    <contour>
      <point x="63.01204819277108" y="0.0" type="line"/>
      <point x="165.3734939759036" y="0.0" type="line"/>
      <point x="165.3734939759036" y="102.42168674698794" type="line"/>
      <point x="63.01204819277108" y="102.42168674698794" type="line"/>
    </contour>
  </outline>
</glyph>
<glyph name="percent" format="2">
  <advance width="929.6265060240964"/>
  <unicode hex="0025"/>
  <outline>
    <contour>
      <point x="286.26506024096386" y="-24.819277108433734" type="line"/>
      <point x="700.4457831325301" y="696.6626506024096" type="line"/>
      <point x="643.8313253012049" y="729.8192771084338" type="line"/>
      <point x="229.18072289156626" y="8.337349397590362" type="line"/>
    </contour>
    <contour>
      <point x="225.710843373494" y="282.4096385542169" type="curve" smooth="yes"/>
      <point x="331.87951807228916" y="282.4096385542169"/>
      <point x="395.7590361445783" y="362.28915662650604"/>
      <point x="395.7590361445783" y="498.4096385542169" type="curve" smooth="yes"/>
      <point x="395.7590361445783" y="633.5301204819277"/>
      <point x="331.34939759036143" y="713.4096385542168"/>
      <point x="225.710843373494" y="713.4096385542168" type="curve" smooth="yes"/>
      <point x="120.07228915662651" y="713.4096385542168"/>
      <point x="55.66265060240964" y="633.5301204819277"/>
      <point x="55.66265060240964" y="498.4096385542169" type="curve" smooth="yes"/>
      <point x="55.66265060240964" y="361.7590361445783"/>
      <point x="119.5421686746988" y="282.4096385542169"/>
    </contour>
    <contour>
      <point x="225.710843373494" y="341.49397590361446" type="curve" smooth="yes"/>
      <point x="163.3975903614458" y="341.49397590361446"/>
      <point x="125.855421686747" y="393.6265060240964"/>
      <point x="125.855421686747" y="498.4096385542169" type="curve" smooth="yes"/>
      <point x="125.855421686747" y="602.1927710843373"/>
      <point x="163.3975903614458" y="654.3253012048193"/>
      <point x="225.710843373494" y="654.3253012048193" type="curve" smooth="yes"/>
      <point x="288.0240963855422" y="654.3253012048193"/>
      <point x="325.56626506024094" y="601.722891566265"/>
      <point x="325.56626506024094" y="498.4096385542169" type="curve" smooth="yes"/>
      <point x="325.56626506024094" y="394.09638554216866"/>
      <point x="288.0240963855422" y="341.49397590361446"/>
    </contour>
    <contour>
      <point x="704.3855421686746" y="-8.939759036144578" type="curve" smooth="yes"/>
      <point x="810.5542168674699" y="-8.939759036144578"/>
      <point x="874.433734939759" y="70.93975903614458"/>
      <point x="874.433734939759" y="207.06024096385542" type="curve" smooth="yes"/>
      <point x="874.433734939759" y="342.1807228915663"/>
      <point x="810.0240963855422" y="422.06024096385545"/>
      <point x="704.3855421686746" y="422.06024096385545" type="curve" smooth="yes"/>
      <point x="598.7469879518072" y="422.06024096385545"/>
      <point x="534.3373493975904" y="342.1807228915663"/>
      <point x="534.3373493975904" y="207.06024096385542" type="curve" smooth="yes"/>
      <point x="534.3373493975904" y="70.40963855421687"/>
      <point x="598.2168674698795" y="-8.939759036144578"/>
    </contour>
    <contour>
      <point x="704.3855421686746" y="50.144578313253014" type="curve" smooth="yes"/>
      <point x="642.0722891566265" y="50.144578313253014"/>
      <point x="604.5301204819277" y="102.27710843373494"/>
      <point x="604.5301204819277" y="207.06024096385542" type="curve" smooth="yes"/>
      <point x="604.5301204819277" y="310.8433734939759"/>
      <point x="642.0722891566265" y="362.9759036144578"/>
      <point x="704.3855421686746" y="362.9759036144578" type="curve" smooth="yes"/>
      <point x="766.6987951807229" y="362.9759036144578"/>
      <point x="804.2409638554217" y="310.3734939759036"/>
      <point x="804.2409638554217" y="207.06024096385542" type="curve" smooth="yes"/>
      <point x="804.2409638554217" y="102.74698795180723"/>
      <point x="766.6987951807229" y="50.144578313253014"/>
    </contour>
  </outline>
</glyph>
<glyph name="quotesingle" format="2">
  <advance width="220.79518072289156"/>
  <unicode hex="0027"/>
  <outline>
    <contour>
      <point x="83.7710843373494" y="428.2530120481928" type="line"/>
      <point x="138.55421686746988" y="428.2530120481928" type="line"/>
      <point x="158.48192771084337" y="705.0" type="line"/>
      <point x="62.78313253012048" y="705.0" type="line"/>
    </contour>
  </outline>
</glyph>
<glyph name="parenleft" format="2">
  <advance width="317.1807228915663"/>
  <unicode hex="0028"/>
  <outline>
    <contour>
      <point x="223.6867469879518" y="-192.34939759036143" type="curve"/>
      <point x="282.1807228915663" y="-170.0120481927711" type="line"/>
      <point x="218.12048192771084" y="-21.253012048192772"/>
      <point x="188.40963855421688" y="116.40963855421687"/>
      <point x="188.40963855421688" y="263.0" type="curve" smooth="yes"/>
      <point x="188.40963855421688" y="410.06024096385545"/>
      <point x="218.12048192771084" y="547.2530120481928"/>
      <point x="282.1807228915663" y="696.0120481927711" type="curve"/>
      <point x="223.6867469879518" y="718.3493975903615" type="line"/>
      <point x="139.0" y="569.7590361445783"/>
      <point x="102.12048192771084" y="420.87951807228916"/>
      <point x="102.12048192771084" y="263.0" type="curve" smooth="yes"/>
      <point x="102.12048192771084" y="105.59036144578313"/>
      <point x="139.0" y="-44.75903614457831"/>
    </contour>
  </outline>
</glyph>
<glyph name="parenright" format="2">
  <advance width="317.1807228915663"/>
  <unicode hex="0029"/>
  <outline>
    <contour>
      <point x="93.49397590361446" y="-192.34939759036143" type="line"/>
      <point x="178.18072289156626" y="-44.75903614457831"/>
      <point x="215.06024096385542" y="105.59036144578313"/>
      <point x="215.06024096385542" y="263.0" type="curve" smooth="yes"/>
      <point x="215.06024096385542" y="419.87951807228916"/>
      <point x="178.18072289156626" y="569.2289156626506"/>
      <point x="93.49397590361446" y="718.3493975903615" type="curve"/>
      <point x="35.0" y="696.0120481927711" type="line"/>
      <point x="98.59036144578313" y="544.722891566265"/>
      <point x="128.24096385542168" y="408.06024096385545"/>
      <point x="128.24096385542168" y="263.0" type="curve" smooth="yes"/>
      <point x="128.24096385542168" y="117.93975903614458"/>
      <point x="98.59036144578313" y="-18.722891566265062"/>
      <point x="35.0" y="-170.0120481927711" type="curve"/>
    </contour>
  </outline>
</glyph>
<glyph name="asterisk" format="2">
  <advance width="449.87951807228916"/>
  <unicode hex="002A"/>
  <outline>
    <contour>
      <point x="154.9277108433735" y="353.3734939759036" type="line"/>
      <point x="230.289156626506" y="497.96385542168673" type="line"/>
      <point x="220.06024096385542" y="497.96385542168673" type="line"/>
      <point x="294.421686746988" y="353.90361445783134" type="line"/>
      <point x="347.6265060240964" y="384.65060240963857" type="line"/>
      <point x="259.2168674698795" y="525.8313253012049" type="line"/>
      <point x="248.04819277108433" y="509.90361445783134" type="line"/>
      <point x="416.69879518072287" y="503.5542168674699" type="line"/>
      <point x="416.69879518072287" y="565.1084337349398" type="line"/>
      <point x="248.04819277108433" y="558.289156626506" type="line"/>
      <point x="259.2168674698795" y="543.3614457831326" type="line"/>
      <point x="347.6265060240964" y="684.0722891566265" type="line"/>
      <point x="294.421686746988" y="715.289156626506" type="line"/>
      <point x="220.06024096385542" y="571.1686746987951" type="line"/>
      <point x="230.289156626506" y="571.1686746987951" type="line"/>
      <point x="155.3975903614458" y="715.289156626506" type="line"/>
      <point x="102.19277108433735" y="684.5421686746988" type="line"/>
      <point x="191.13253012048193" y="542.8915662650602" type="line"/>
      <point x="201.7710843373494" y="558.289156626506" type="line"/>
      <point x="33.65060240963855" y="565.1084337349398" type="line"/>
      <point x="33.65060240963855" y="503.5542168674699" type="line"/>
      <point x="201.7710843373494" y="509.90361445783134" type="line"/>
      <point x="190.66265060240963" y="525.8313253012049" type="line"/>
      <point x="101.72289156626506" y="384.65060240963857" type="line"/>
    </contour>
  </outline>
</glyph>
<glyph name="hyphen" format="2">
  <advance width="424.4578313253012"/>
  <unicode hex="002D"/>
  <outline>
    <contour>
      <point x="72.24096385542168" y="207.8433734939759" type="line"/>
      <point x="352.2168674698795" y="207.8433734939759" type="line"/>
      <point x="352.2168674698795" y="274.9759036144578" type="line"/>
      <point x="72.24096385542168" y="274.9759036144578" type="line"/>
    </contour>
  </outline>
</glyph>
<glyph name="zero" format="2">
  <advance width="600.0"/>
  <unicode hex="0030"/>
  <outline>
    <contour>
      <point x="300.0" y="-8.939759036144578" type="curve" smooth="yes"/>
      <point x="460.6385542168675" y="-8.939759036144578"/>
      <point x="546.9277108433735" y="118.40963855421687"/>
      <point x="546.9277108433735" y="353.93975903614455" type="curve" smooth="yes"/>
      <point x="546.9277108433735" y="590.0"/>
      <point x="462.1686746987952" y="713.9397590361446"/>
      <point x="300.0" y="713.9397590361446" type="curve" smooth="yes"/>
      <point x="138.83132530120483" y="713.9397590361446"/>
      <point x="53.0722891566265" y="589.4698795180723"/>
      <point x="53.0722891566265" y="352.93975903614455" type="curve" smooth="yes"/>
      <point x="53.0722891566265" y="118.40963855421687"/>
      <point x="138.83132530120483" y="-8.939759036144578"/>
    </contour>
    <contour>
      <point x="300.0" y="62.13253012048193" type="curve" smooth="yes"/>
      <point x="188.26506024096386" y="62.13253012048193"/>
      <point x="135.19277108433735" y="154.32530120481928"/>
      <point x="135.19277108433735" y="353.93975903614455" type="curve" smooth="yes"/>
      <point x="135.19277108433735" y="552.6144578313254"/>
      <point x="188.26506024096386" y="642.8674698795181"/>
      <point x="300.0" y="642.8674698795181" type="curve" smooth="yes"/>
      <point x="412.73493975903614" y="642.8674698795181"/>
      <point x="464.8072289156627" y="554.144578313253"/>
      <point x="464.8072289156627" y="353.93975903614455" type="curve" smooth="yes"/>
      <point x="464.8072289156627" y="154.32530120481928"/>
      <point x="411.73493975903614" y="62.13253012048193"/>
    </contour>
  </outline>
</glyph>
<glyph name="six" format="2">
  <advance width="600.0"/>
  <unicode hex="0036"/>
  <outline>
    <contour>
      <point x="324.4096385542169" y="-8.939759036144578" type="curve" smooth="yes"/>
      <point x="455.578313253012" y="-8.939759036144578"/>
      <point x="548.3975903614457" y="86.87951807228916"/>
      <point x="548.3975903614457" y="219.63855421686748" type="curve" smooth="yes"/>
      <point x="548.3975903614457" y="349.578313253012"/>
      <point x="460.3975903614458" y="442.4578313253012"/>
      <point x="335.6867469879518" y="442.4578313253012" type="curve" smooth="yes"/>
      <point x="228.67469879518072" y="442.4578313253012"/>
      <point x="147.3132530120482" y="371.4457831325301"/>
      <point x="134.96385542168676" y="257.72289156626505" type="curve"/>
      <point x="143.7831325301205" y="257.72289156626505" type="line"/>
      <point x="143.7831325301205" y="351.27710843373495" type="line" smooth="yes"/>
      <point x="143.7831325301205" y="543.5542168674699"/>
      <point x="216.85542168674698" y="641.4578313253012"/>
      <point x="347.1686746987952" y="641.4578313253012" type="curve" smooth="yes"/>
      <point x="407.8192771084337" y="641.4578313253012"/>
      <point x="467.93975903614455" y="616.277108433735"/>
      <point x="516.9397590361446" y="564.9156626506024" type="curve"/>
      <point x="547.277108433735" y="629.1084337349398" type="line"/>
      <point x="500.04819277108436" y="681.2289156626506"/>
      <point x="420.51807228915663" y="713.9397590361446"/>
      <point x="348.6385542168675" y="713.9397590361446" type="curve" smooth="yes"/>
      <point x="169.7710843373494" y="713.9397590361446"/>
      <point x="63.66265060240964" y="578.4698795180723"/>
      <point x="63.66265060240964" y="335.2289156626506" type="curve" smooth="yes"/>
      <point x="63.66265060240964" y="117.46987951807229"/>
      <point x="157.36144578313252" y="-8.939759036144578"/>
    </contour>
    <contour>
      <point x="319.0" y="60.72289156626506" type="curve" smooth="yes"/>
      <point x="230.03614457831324" y="60.72289156626506"/>
      <point x="168.8433734939759" y="124.3855421686747"/>
      <point x="168.8433734939759" y="216.75903614457832" type="curve" smooth="yes"/>
      <point x="168.8433734939759" y="309.13253012048193"/>
      <point x="230.03614457831324" y="373.26506024096386"/>
      <point x="319.0" y="373.26506024096386" type="curve" smooth="yes"/>
      <point x="407.96385542168673" y="373.26506024096386"/>
      <point x="469.1566265060241" y="309.13253012048193"/>
      <point x="469.1566265060241" y="216.75903614457832" type="curve" smooth="yes"/>
      <point x="469.1566265060241" y="124.3855421686747"/>
      <point x="407.96385542168673" y="60.72289156626506"/>
    </contour>
  </outline>
</glyph>
<glyph name="seven" format="2">
  <advance width="600.0"/>
  <unicode hex="0037"/>
  <outline>
    <contour>
      <point x="111.97590361445783" y="0.0" type="line"/>
      <point x="203.14457831325302" y="0.0" type="line"/>
      <point x="532.7469879518072" y="643.4578313253012" type="line"/>
      <point x="532.7469879518072" y="705.0" type="line"/>
      <point x="67.19277108433735" y="705.0" type="line"/>
      <point x="67.19277108433735" y="633.5783132530121" type="line"/>
      <point x="458.27710843373495" y="633.5783132530121" type="line"/>
      <point x="458.27710843373495" y="669.566265060241" type="line"/>
    </contour>
  </outline>
</glyph>
<glyph name="nine" format="2">
  <advance width="600.0"/>
  <unicode hex="0039"/>
  <outline>
    <contour>
      <point x="251.83132530120483" y="-8.939759036144578" type="curve" smooth="yes"/>
      <point x="430.2289156626506" y="-8.939759036144578"/>
      <point x="536.3373493975904" y="127.0"/>
      <point x="536.3373493975904" y="369.7710843373494" type="curve" smooth="yes"/>
      <point x="536.3373493975904" y="587.5301204819277"/>
      <point x="443.10843373493975" y="713.9397590361446"/>
      <point x="275.5903614457831" y="713.9397590361446" type="curve" smooth="yes"/>
      <point x="144.89156626506025" y="713.9397590361446"/>
      <point x="51.60240963855422" y="618.5903614457832"/>
      <point x="51.60240963855422" y="485.3614457831325" type="curve" smooth="yes"/>
      <point x="51.60240963855422" y="355.421686746988"/>
      <point x="140.0722891566265" y="262.5421686746988"/>
      <point x="264.3132530120482" y="262.5421686746988" type="curve" smooth="yes"/>
      <point x="371.7951807228916" y="262.5421686746988"/>
      <point x="453.1566265060241" y="333.5542168674699"/>
      <point x="465.03614457831327" y="447.27710843373495" type="curve"/>
      <point x="456.6867469879518" y="447.27710843373495" type="line"/>
      <point x="456.6867469879518" y="353.72289156626505" type="line" smooth="yes"/>
      <point x="456.6867469879518" y="161.44578313253012"/>
      <point x="383.6144578313253" y="63.5421686746988"/>
      <point x="252.83132530120483" y="63.5421686746988" type="curve" smooth="yes"/>
      <point x="192.18072289156626" y="63.5421686746988"/>
      <point x="132.06024096385542" y="89.19277108433735"/>
      <point x="83.53012048192771" y="140.55421686746988" type="curve"/>
      <point x="52.72289156626506" y="76.36144578313252" type="line"/>
      <point x="100.42168674698794" y="24.240963855421686"/>
      <point x="179.48192771084337" y="-8.939759036144578"/>
    </contour>
    <contour>
      <point x="281.4698795180723" y="332.2048192771084" type="curve" smooth="yes"/>
      <point x="192.50602409638554" y="332.2048192771084"/>
      <point x="131.3132530120482" y="395.86746987951807"/>
      <point x="131.3132530120482" y="488.2409638554217" type="curve" smooth="yes"/>
      <point x="131.3132530120482" y="580.6144578313254"/>
      <point x="192.50602409638554" y="644.7469879518072"/>
      <point x="281.4698795180723" y="644.7469879518072" type="curve" smooth="yes"/>
      <point x="370.43373493975906" y="644.7469879518072"/>
      <point x="431.6265060240964" y="580.6144578313254"/>
      <point x="431.6265060240964" y="488.2409638554217" type="curve" smooth="yes"/>
      <point x="431.6265060240964" y="395.86746987951807"/>
      <point x="370.43373493975906" y="332.2048192771084"/>
    </contour>
  </outline>
</glyph>
<glyph name="colon" format="2">
  <advance width="228.3855421686747"/>
  <unicode hex="003A"/>
  <outline>
    <contour>
      <point x="63.01204819277108" y="338.1566265060241" type="line"/>
      <point x="165.3734939759036" y="338.1566265060241" type="line"/>
      <point x="165.3734939759036" y="436.34939759036143" type="line"/>
      <point x="63.01204819277108" y="436.34939759036143" type="line"/>
    </contour>
    <contour>
      <point x="63.01204819277108" y="0.0" type="line"/>
      <point x="165.3734939759036" y="0.0" type="line"/>
      <point x="165.3734939759036" y="98.66265060240963" type="line"/>
      <point x="63.01204819277108" y="98.66265060240963" type="line"/>
    </contour>
  </outline>
</glyph>
<glyph name="semicolon" format="2">
  <advance width="228.3855421686747"/>
  <unicode hex="003B"/>
  <outline>
    <contour>
      <point x="104.92771084337349" y="-114.44578313253012" type="line"/>
      <point x="150.67469879518072" y="-69.6987951807229"/>
      <point x="165.3734939759036" y="-24.180722891566266"/>
      <point x="165.3734939759036" y="30.036144578313255" type="curve" smooth="yes"/>
      <point x="165.3734939759036" y="98.66265060240963" type="line"/>
      <point x="63.01204819277108" y="98.66265060240963" type="line"/>
      <point x="63.01204819277108" y="0.0" type="line"/>
      <point x="133.50602409638554" y="0.0" type="line"/>
      <point x="111.4578313253012" y="16.80722891566265" type="line"/>
      <point x="111.4578313253012" y="-17.180722891566266"/>
      <point x="102.75903614457832" y="-47.40963855421687"/>
      <point x="67.18072289156626" y="-85.04819277108433" type="curve"/>
    </contour>
    <contour>
      <point x="63.01204819277108" y="338.1566265060241" type="line"/>
      <point x="165.3734939759036" y="338.1566265060241" type="line"/>
      <point x="165.3734939759036" y="436.34939759036143" type="line"/>
      <point x="63.01204819277108" y="436.34939759036143" type="line"/>
    </contour>
  </outline>
</glyph>
<glyph name="B" format="2">
  <advance width="676.3373493975904"/>
  <unicode hex="0042"/>
  <anchor x="340.7590361445783" y="0.0" name="bottom"/>
  <anchor x="340.2289156626506" y="705.0" name="top"/>
  <outline>
    <contour>
      <point x="87.07228915662651" y="0.0" type="line"/>
      <point x="380.6265060240964" y="0.0" type="line" smooth="yes"/>
      <point x="528.5060240963855" y="0.0"/>
      <point x="614.2650602409639" y="68.28915662650603"/>
      <point x="614.2650602409639" y="193.81927710843374" type="curve" smooth="yes"/>
      <point x="614.2650602409639" y="292.4698795180723"/>
      <point x="553.0843373493976" y="355.0"/>
      <point x="454.0240963855422" y="367.34939759036143" type="curve"/>
      <point x="454.0240963855422" y="352.87951807228916" type="line"/>
      <point x="541.6746987951807" y="372.34939759036143"/>
      <point x="597.3253012048193" y="433.34939759036143"/>
      <point x="597.3253012048193" y="520.9397590361446" type="curve" smooth="yes"/>
      <point x="597.3253012048193" y="637.5903614457832"/>
      <point x="513.9156626506024" y="705.0"/>
      <point x="368.56626506024094" y="705.0" type="curve" smooth="yes"/>
      <point x="87.07228915662651" y="705.0" type="line"/>
    </contour>
    <contour>
      <point x="167.13253012048193" y="66.25301204819277" type="line"/>
      <point x="167.13253012048193" y="323.8433734939759" type="line"/>
      <point x="372.578313253012" y="323.8433734939759" type="line" smooth="yes"/>
      <point x="480.0722891566265" y="323.8433734939759"/>
      <point x="532.6746987951807" y="282.95180722891564"/>
      <point x="532.6746987951807" y="195.04819277108433" type="curve" smooth="yes"/>
      <point x="532.6746987951807" y="107.6144578313253"/>
      <point x="480.0722891566265" y="66.25301204819277"/>
      <point x="372.578313253012" y="66.25301204819277" type="curve" smooth="yes"/>
    </contour>
    <contour>
      <point x="167.13253012048193" y="390.09638554216866" type="line"/>
      <point x="167.13253012048193" y="638.7469879518072" type="line"/>
      <point x="356.6385542168675" y="638.7469879518072" type="line" smooth="yes"/>
      <point x="461.6024096385542" y="638.7469879518072"/>
      <point x="515.7349397590361" y="595.7349397590361"/>
      <point x="515.7349397590361" y="514.4216867469879" type="curve" smooth="yes"/>
      <point x="515.7349397590361" y="433.10843373493975"/>
      <point x="461.6024096385542" y="390.09638554216866"/>
      <point x="356.6385542168675" y="390.09638554216866" type="curve" smooth="yes"/>
    </contour>
  </outline>
</glyph>
<glyph name="D" format="2">
  <advance width="742.3855421686746"/>
  <unicode hex="0044"/>
  <anchor x="370.51807228915663" y="0.0" name="bottom"/>
  <anchor x="181.9277108433735" y="358.0" name="center"/>
  <anchor x="369.9879518072289" y="705.0" name="top"/>
  <outline>
    <contour>
      <point x="87.07228915662651" y="0.0" type="line"/>
      <point x="325.2168674698795" y="0.0" type="line" smooth="yes"/>
      <point x="553.2650602409639" y="0.0"/>
      <point x="681.9638554216867" y="124.87951807228916"/>
      <point x="681.9638554216867" y="353.0" type="curve" smooth="yes"/>
      <point x="681.9638554216867" y="581.1204819277109"/>
      <point x="553.2650602409639" y="705.0"/>
      <point x="325.2168674698795" y="705.0" type="curve" smooth="yes"/>
      <point x="87.07228915662651" y="705.0" type="line"/>
    </contour>
    <contour>
      <point x="169.48192771084337" y="70.48192771084338" type="line"/>
      <point x="169.48192771084337" y="634.5180722891566" type="line"/>
      <point x="319.33734939759034" y="634.5180722891566" type="line" smooth="yes"/>
      <point x="503.5421686746988" y="634.5180722891566"/>
      <point x="595.144578313253" y="540.7951807228916"/>
      <point x="595.144578313253" y="353.0" type="curve" smooth="yes"/>
      <point x="595.144578313253" y="165.20481927710844"/>
      <point x="504.0120481927711" y="70.48192771084338"/>
      <point x="319.33734939759034" y="70.48192771084338" type="curve" smooth="yes"/>
    </contour>
  </outline>
</glyph>
<glyph name="F" format="2">
  <advance width="548.2168674698795"/>
  <unicode hex="0046"/>
  <anchor x="296.28915662650604" y="0.0" name="bottom"/>
  <anchor x="297.69879518072287" y="705.0" name="top"/>
  <outline>
    <contour>
      <point x="87.07228915662651" y="0.0" type="line"/>
      <point x="169.48192771084337" y="0.0" type="line"/>
      <point x="169.48192771084337" y="321.0843373493976" type="line"/>
      <point x="502.6867469879518" y="321.0843373493976" type="line"/>
      <point x="502.6867469879518" y="389.6867469879518" type="line"/>
      <point x="169.48192771084337" y="389.6867469879518" type="line"/>
      <point x="169.48192771084337" y="636.3975903614457" type="line"/>
      <point x="523.156626506024" y="636.3975903614457" type="line"/>
      <point x="523.156626506024" y="705.0" type="line"/>
      <point x="87.07228915662651" y="705.0" type="line"/>
    </contour>
  </outline>
</glyph>
<glyph name="H" format="2">
  <advance width="761.3373493975904"/>
  <unicode hex="0048"/>
  <anchor x="381.1686746987952" y="0.0" name="bottom"/>
  <anchor x="381.1686746987952" y="553.0481927710844" name="center"/>
  <anchor x="380.1686746987952" y="705.0" name="top"/>
  <anchor x="25.120481927710845" y="705.0" name="topleft"/>
  <outline>
    <contour>
      <point x="87.07228915662651" y="0.0" type="line"/>
      <point x="169.48192771084337" y="0.0" type="line"/>
      <point x="169.48192771084337" y="322.0240963855422" type="line"/>
      <point x="591.855421686747" y="322.0240963855422" type="line"/>
      <point x="591.855421686747" y="0.0" type="line"/>
      <point x="674.2650602409639" y="0.0" type="line"/>
      <point x="674.2650602409639" y="705.0" type="line"/>
      <point x="591.855421686747" y="705.0" type="line"/>
      <point x="591.855421686747" y="392.9759036144578" type="line"/>
      <point x="169.48192771084337" y="392.9759036144578" type="line"/>
      <point x="169.48192771084337" y="705.0" type="line"/>
      <point x="87.07228915662651" y="705.0" type="line"/>
    </contour>
  </outline>
</glyph>
<glyph name="I" format="2">
  <advance width="256.0843373493976"/>
  <unicode hex="0049"/>
  <anchor x="128.27710843373495" y="0.0" name="bottom"/>
  <anchor x="156.79518072289156" y="0.0" name="ogonek"/>
  <anchor x="128.27710843373495" y="705.0" name="top"/>
  <anchor x="25.650602409638555" y="705.0" name="topleft"/>
  <outline>
    <contour>
      <point x="87.07228915662651" y="0.0" type="line"/>
      <point x="169.48192771084337" y="0.0" type="line"/>
      <point x="169.48192771084337" y="705.0" type="line"/>
      <point x="87.07228915662651" y="705.0" type="line"/>
    </contour>
  </outline>
</glyph>
<glyph name="T" format="2">
  <advance width="602.4457831325301"/>
  <unicode hex="0054"/>
  <anchor x="301.4578313253012" y="0.0" name="bottom"/>
  <anchor x="301.4578313253012" y="358.0" name="center"/>
  <anchor x="301.4578313253012" y="705.0" name="top"/>
  <outline>
    <contour>
      <point x="260.2530120481928" y="0.0" type="line"/>
      <point x="342.66265060240966" y="0.0" type="line"/>
      <point x="342.66265060240966" y="634.0481927710844" type="line"/>
      <point x="598.9759036144578" y="634.0481927710844" type="line"/>
      <point x="598.9759036144578" y="705.0" type="line"/>
      <point x="3.9397590361445785" y="705.0" type="line"/>
      <point x="3.9397590361445785" y="634.0481927710844" type="line"/>
      <point x="260.2530120481928" y="634.0481927710844" type="line"/>
    </contour>
  </outline>
</glyph>
<glyph name="U" format="2">
  <advance width="728.4578313253012"/>
  <unicode hex="0055"/>
  <anchor x="364.69879518072287" y="0.0" name="bottom"/>
  <anchor x="421.69879518072287" y="0.0" name="ogonek"/>
  <anchor x="364.69879518072287" y="705.0" name="top"/>
  <anchor x="580.9518072289156" y="705.0" name="topright"/>
  <outline>
    <contour>
      <point x="364.69879518072287" y="-8.939759036144578" type="curve" smooth="yes"/>
      <point x="549.156626506024" y="-8.939759036144578"/>
      <point x="646.3855421686746" y="90.93975903614458"/>
      <point x="646.3855421686746" y="279.4578313253012" type="curve" smooth="yes"/>
      <point x="646.3855421686746" y="705.0" type="line"/>
      <point x="564.4457831325301" y="705.0" type="line"/>
      <point x="564.4457831325301" y="283.10843373493975" type="line" smooth="yes"/>
      <point x="564.4457831325301" y="136.49397590361446"/>
      <point x="496.3734939759036" y="64.48192771084338"/>
      <point x="364.69879518072287" y="64.48192771084338" type="curve" smooth="yes"/>
      <point x="233.02409638554218" y="64.48192771084338"/>
      <point x="164.48192771084337" y="136.49397590361446"/>
      <point x="164.48192771084337" y="283.10843373493975" type="curve" smooth="yes"/>
      <point x="164.48192771084337" y="705.0" type="line"/>
      <point x="82.07228915662651" y="705.0" type="line"/>
      <point x="82.07228915662651" y="279.4578313253012" type="line" smooth="yes"/>
      <point x="82.07228915662651" y="90.93975903614458"/>
      <point x="180.24096385542168" y="-8.939759036144578"/>
    </contour>
  </outline>
</glyph>
<glyph name="V" format="2">
  <advance width="688.6144578313254"/>
  <unicode hex="0056"/>
  <anchor x="344.8072289156627" y="0.0" name="bottom"/>
  <anchor x="343.8072289156627" y="705.0" name="top"/>
  <outline>
    <contour>
      <point x="307.2409638554217" y="0.0" type="line"/>
      <point x="381.3734939759036" y="0.0" type="line"/>
      <point x="689.5421686746988" y="705.0" type="line"/>
      <point x="604.1927710843373" y="705.0" type="line"/>
      <point x="330.04819277108436" y="66.28915662650603" type="line"/>
      <point x="362.4457831325301" y="66.28915662650603" type="line"/>
      <point x="87.3012048192771" y="705.0" type="line"/>
      <point x="-0.9277108433734949" y="705.0" type="line"/>
    </contour>
  </outline>
</glyph>
<glyph name="X" format="2">
  <advance width="650.2650602409639"/>
  <unicode hex="0058"/>
  <anchor x="325.86746987951807" y="0.0" name="bottom"/>
  <anchor x="325.3975903614458" y="705.0" name="top"/>
  <outline>
    <contour>
      <point x="9.903614457831324" y="0.0" type="line"/>
      <point x="107.89156626506025" y="0.0" type="line"/>
      <point x="341.03614457831327" y="319.4457831325301" type="line"/>
      <point x="309.2289156626506" y="319.4457831325301" type="line"/>
      <point x="542.843373493976" y="0.0" type="line"/>
      <point x="640.3614457831326" y="0.0" type="line"/>
      <point x="360.90361445783134" y="375.9277108433735" type="line"/>
      <point x="360.90361445783134" y="344.7831325301205" type="line"/>
      <point x="628.1807228915662" y="705.0" type="line"/>
      <point x="531.1927710843373" y="705.0" type="line"/>
      <point x="313.34939759036143" y="404.3855421686747" type="line"/>
      <point x="338.9759036144578" y="404.3855421686747" type="line"/>
      <point x="119.07228915662651" y="705.0" type="line"/>
      <point x="22.55421686746988" y="705.0" type="line"/>
      <point x="289.8313253012048" y="344.7831325301205" type="line"/>
      <point x="289.8313253012048" y="375.9277108433735" type="line"/>
    </contour>
  </outline>
</glyph>
<glyph name="bracketright" format="2">
  <advance width="315.30120481927713"/>
  <unicode hex="005D"/>
  <outline>
    <contour>
      <point x="7.759036144578314" y="-180.0" type="line"/>
      <point x="206.12048192771084" y="-180.0" type="line"/>
      <point x="206.12048192771084" y="705.0" type="line"/>
      <point x="7.759036144578314" y="705.0" type="line"/>
      <point x="7.759036144578314" y="641.2168674698795" type="line"/>
      <point x="125.12048192771084" y="641.2168674698795" type="line"/>
      <point x="125.12048192771084" y="-116.21686746987952" type="line"/>
      <point x="7.759036144578314" y="-116.21686746987952" type="line"/>
    </contour>
  </outline>
</glyph>
<glyph name="a" format="2">
  <advance width="529.5060240963855"/>
  <unicode hex="0061"/>
  <anchor x="268.10843373493975" y="0.0" name="bottom"/>
  <anchor x="439.9277108433735" y="0.0" name="ogonek"/>
  <anchor x="271.578313253012" y="484.0" name="top"/>
  <outline>
    <contour>
      <point x="226.710843373494" y="-8.939759036144578" type="curve" smooth="yes"/>
      <point x="308.8313253012048" y="-8.939759036144578"/>
      <point x="369.6024096385542" y="33.8855421686747"/>
      <point x="388.2530120481928" y="103.42168674698796" type="curve"/>
      <point x="379.66265060240966" y="103.42168674698796" type="line"/>
      <point x="379.66265060240966" y="0.0" type="line"/>
      <point x="456.3734939759036" y="0.0" type="line"/>
      <point x="456.3734939759036" y="267.01204819277103" type="line" smooth="yes"/>
      <point x="456.3734939759036" y="386.9397590361446"/>
      <point x="396.855421686747" y="445.28915662650604"/>
      <point x="272.5240963855422" y="445.28915662650604" type="curve" smooth="yes"/>
      <point x="203.70481927710844" y="445.28915662650604"/>
      <point x="125.77710843373494" y="424.05421686746985"/>
      <point x="74.5421686746988" y="388.2289156626506" type="curve"/>
      <point x="100.41566265060241" y="331.14457831325296" type="line"/>
      <point x="157.18072289156626" y="367.5602409638554"/>
      <point x="209.70481927710844" y="382.5602409638554"/>
      <point x="269.5903614457832" y="382.5602409638554" type="curve" smooth="yes"/>
      <point x="345.9518072289157" y="382.5602409638554"/>
      <point x="378.42771084337346" y="347.3734939759036"/>
      <point x="378.42771084337346" y="274.82530120481925" type="curve" smooth="yes"/>
      <point x="378.42771084337346" y="181.82530120481928" type="line" smooth="yes"/>
      <point x="378.42771084337346" y="107.33734939759036"/>
      <point x="321.2409638554217" y="50.43975903614458"/>
      <point x="241.4578313253012" y="50.43975903614458" type="curve" smooth="yes"/>
      <point x="175.09036144578315" y="50.43975903614458"/>
      <point x="135.60843373493975" y="83.03614457831326"/>
      <point x="135.60843373493975" y="132.1686746987952" type="curve" smooth="yes"/>
      <point x="135.60843373493975" y="184.06626506024097"/>
      <point x="175.43975903614458" y="203.01204819277106"/>
      <point x="330.66265060240966" y="203.01204819277106" type="curve" smooth="yes"/>
      <point x="391.0722891566265" y="203.01204819277106" type="line"/>
      <point x="391.0722891566265" y="253.81325301204822" type="line"/>
      <point x="329.0722891566265" y="253.81325301204822" type="line" smooth="yes"/>
      <point x="120.47590361445782" y="253.81325301204822"/>
      <point x="54.13253012048193" y="219.63855421686748"/>
      <point x="54.13253012048193" y="127.46385542168676" type="curve" smooth="yes"/>
      <point x="54.13253012048193" y="52.1144578313253"/>
      <point x="126.5421686746988" y="-8.939759036144578"/>
    </contour>
  </outline>
</glyph>
<glyph name="b" format="2">
  <advance width="583.0361445783133"/>
  <unicode hex="0062"/>
  <anchor x="308.5903614457831" y="0.0" name="bottom"/>
  <anchor x="306.10843373493975" y="705.0" name="top"/>
  <outline>
    <contour>
      <point x="323.2590361445783" y="-8.939759036144578" type="curve" smooth="yes"/>
      <point x="450.67469879518075" y="-8.939759036144578"/>
      <point x="537.0843373493976" y="79.46987951807229"/>
      <point x="537.0843373493976" y="218.40963855421685" type="curve" smooth="yes"/>
      <point x="537.0843373493976" y="358.1144578313253"/>
      <point x="450.9096385542169" y="445.28915662650604"/>
      <point x="323.2590361445783" y="445.28915662650604" type="curve" smooth="yes"/>
      <point x="235.95783132530119" y="445.28915662650604"/>
      <point x="168.89759036144576" y="401.5783132530121"/>
      <point x="147.66265060240966" y="336.921686746988" type="curve"/>
      <point x="156.6024096385542" y="336.921686746988" type="line"/>
      <point x="156.6024096385542" y="705.0" type="line"/>
      <point x="75.60240963855422" y="705.0" type="line"/>
      <point x="75.60240963855422" y="0.0" type="line"/>
      <point x="154.9578313253012" y="0.0" type="line"/>
      <point x="154.9578313253012" y="102.30722891566265" type="line"/>
      <point x="146.95783132530119" y="102.30722891566265" type="line"/>
      <point x="167.95783132530119" y="36.71084337349398"/>
      <point x="235.01807228915663" y="-8.939759036144578"/>
    </contour>
    <contour>
      <point x="305.10843373493975" y="55.903614457831324" type="curve" smooth="yes"/>
      <point x="212.96987951807228" y="55.903614457831324"/>
      <point x="154.66265060240966" y="116.03614457831326"/>
      <point x="154.66265060240966" y="218.40963855421685" type="curve" smooth="yes"/>
      <point x="154.66265060240966" y="321.5481927710843"/>
      <point x="212.96987951807228" y="380.68072289156623"/>
      <point x="305.10843373493975" y="380.68072289156623" type="curve" smooth="yes"/>
      <point x="397.54216867469876" y="380.68072289156623"/>
      <point x="455.55421686746985" y="321.5481927710843"/>
      <point x="455.55421686746985" y="218.40963855421685" type="curve" smooth="yes"/>
      <point x="455.55421686746985" y="116.03614457831326"/>
      <point x="397.54216867469876" y="55.903614457831324"/>
    </contour>
  </outline>
</glyph>
<glyph name="c" format="2">
  <advance width="462.9879518072289"/>
  <unicode hex="0063"/>
  <anchor x="277.69879518072287" y="0.0" name="bottom"/>
  <anchor x="277.69879518072287" y="484.0" name="top"/>
  <outline>
    <contour>
      <point x="282.22289156626505" y="-8.939759036144578" type="curve" smooth="yes"/>
      <point x="339.63253012048193" y="-8.939759036144578"/>
      <point x="403.5120481927711" y="12.650602409638555"/>
      <point x="443.39156626506025" y="47.596385542168676" type="curve"/>
      <point x="416.578313253012" y="105.96987951807229" type="line"/>
      <point x="376.86746987951807" y="70.90361445783132"/>
      <point x="328.0421686746988" y="56.13855421686747"/>
      <point x="285.921686746988" y="56.13855421686747" type="curve" smooth="yes"/>
      <point x="184.84337349397592" y="56.13855421686747"/>
      <point x="128.89156626506025" y="118.7409638554217"/>
      <point x="128.89156626506025" y="220.46987951807228" type="curve" smooth="yes"/>
      <point x="128.89156626506025" y="322.1385542168675"/>
      <point x="184.84337349397592" y="380.44578313253015"/>
      <point x="285.921686746988" y="380.44578313253015" type="curve" smooth="yes"/>
      <point x="328.5120481927711" y="380.44578313253015"/>
      <point x="376.86746987951807" y="365.6807228915663"/>
      <point x="416.578313253012" y="330.84939759036143" type="curve"/>
      <point x="443.39156626506025" y="388.9879518072289" type="line"/>
      <point x="403.5120481927711" y="425.40361445783134"/>
      <point x="341.9277108433735" y="445.28915662650604"/>
      <point x="282.22289156626505" y="445.28915662650604" type="curve" smooth="yes"/>
      <point x="136.0" y="445.28915662650604"/>
      <point x="46.18674698795181" y="359.1144578313253"/>
      <point x="46.18674698795181" y="220.7048192771084" type="curve" smooth="yes"/>
      <point x="46.18674698795181" y="82.82530120481927"/>
      <point x="135.23493975903614" y="-8.939759036144578"/>
    </contour>
  </outline>
</glyph>
<glyph name="d" format="2">
  <advance width="583.0361445783133"/>
  <unicode hex="0064"/>
  <anchor x="293.04819277108436" y="0.0" name="bottom"/>
  <anchor x="290.2289156626506" y="219.93975903614455" name="center"/>
  <anchor x="416.1686746987952" y="524.9939759036145" name="stroke"/>
  <anchor x="291.51807228915663" y="705.0" name="top"/>
  <anchor x="552.7349397590361" y="705.0" name="topright"/>
  <outline>
    <contour>
      <point x="260.0120481927711" y="-8.939759036144578" type="curve" smooth="yes"/>
      <point x="348.54819277108436" y="-8.939759036144578"/>
      <point x="415.60843373493975" y="36.71084337349398"/>
      <point x="436.3734939759036" y="102.30722891566265" type="curve"/>
      <point x="428.8433734939759" y="102.30722891566265" type="line"/>
      <point x="428.8433734939759" y="0.0" type="line"/>
      <point x="507.43373493975906" y="0.0" type="line"/>
      <point x="507.43373493975906" y="705.0" type="line"/>
      <point x="426.43373493975906" y="705.0" type="line"/>
      <point x="426.43373493975906" y="336.921686746988" type="line"/>
      <point x="435.90361445783134" y="336.921686746988" type="line"/>
      <point x="414.43373493975906" y="401.5783132530121"/>
      <point x="348.0783132530121" y="445.28915662650604"/>
      <point x="260.0120481927711" y="445.28915662650604" type="curve" smooth="yes"/>
      <point x="132.1265060240964" y="445.28915662650604"/>
      <point x="46.18674698795181" y="358.1144578313253"/>
      <point x="46.18674698795181" y="218.40963855421685" type="curve" smooth="yes"/>
      <point x="46.18674698795181" y="79.46987951807229"/>
      <point x="133.1265060240964" y="-8.939759036144578"/>
    </contour>
    <contour>
      <point x="277.9277108433735" y="55.903614457831324" type="curve" smooth="yes"/>
      <point x="185.789156626506" y="55.903614457831324"/>
      <point x="127.48192771084338" y="116.03614457831326"/>
      <point x="127.48192771084338" y="218.40963855421685" type="curve" smooth="yes"/>
      <point x="127.48192771084338" y="321.5481927710843"/>
      <point x="185.789156626506" y="380.68072289156623"/>
      <point x="277.9277108433735" y="380.68072289156623" type="curve" smooth="yes"/>
      <point x="370.3614457831325" y="380.68072289156623"/>
      <point x="428.3734939759036" y="321.5481927710843"/>
      <point x="428.3734939759036" y="218.40963855421685" type="curve" smooth="yes"/>
      <point x="428.3734939759036" y="116.03614457831326"/>
      <point x="370.3614457831325" y="55.903614457831324"/>
    </contour>
  </outline>
</glyph>
<glyph name="e" format="2">
  <advance width="531.9277108433735"/>
  <unicode hex="0065"/>
  <anchor x="280.28915662650604" y="0.0" name="bottom"/>
  <anchor x="355.6265060240964" y="0.0" name="ogonek"/>
  <anchor x="280.28915662650604" y="484.0" name="top"/>
  <outline>
    <contour>
      <point x="295.8072289156627" y="-8.939759036144578" type="curve" smooth="yes"/>
      <point x="363.3975903614458" y="-8.939759036144578"/>
      <point x="435.2168674698795" y="12.8855421686747"/>
      <point x="480.8614457831325" y="50.06626506024096" type="curve"/>
      <point x="454.6927710843373" y="105.62048192771086" type="line"/>
      <point x="405.57228915662654" y="68.55421686746988"/>
      <point x="353.6927710843374" y="54.493975903614455"/>
      <point x="296.2168674698795" y="54.493975903614455" type="curve" smooth="yes"/>
      <point x="182.73493975903617" y="54.493975903614455"/>
      <point x="123.72289156626506" y="113.33132530120483"/>
      <point x="123.72289156626506" y="217.81927710843374" type="curve" smooth="yes"/>
      <point x="123.72289156626506" y="226.16867469879517" type="line" smooth="yes"/>
      <point x="123.72289156626506" y="320.3614457831325"/>
      <point x="178.67469879518075" y="387.84939759036143"/>
      <point x="280.93373493975906" y="387.84939759036143" type="curve" smooth="yes"/>
      <point x="373.0722891566265" y="387.84939759036143"/>
      <point x="420.96385542168673" y="333.0120481927711"/>
      <point x="420.96385542168673" y="237.69879518072287" type="curve"/>
      <point x="437.7289156626506" y="251.04819277108433" type="line"/>
      <point x="107.72289156626506" y="251.04819277108433" type="line"/>
      <point x="107.72289156626506" y="200.24698795180723" type="line"/>
      <point x="490.50602409638554" y="200.24698795180723" type="line"/>
      <point x="490.50602409638554" y="227.24096385542168" type="line" smooth="yes"/>
      <point x="490.50602409638554" y="363.2951807228916"/>
      <point x="411.3975903614458" y="445.28915662650604"/>
      <point x="279.05421686746985" y="445.28915662650604" type="curve" smooth="yes"/>
      <point x="138.5301204819277" y="445.28915662650604"/>
      <point x="46.18674698795181" y="350.1144578313253"/>
      <point x="46.18674698795181" y="217.87951807228916" type="curve" smooth="yes"/>
      <point x="46.18674698795181" y="78.93975903614458"/>
      <point x="140.06024096385542" y="-8.939759036144578"/>
    </contour>
  </outline>
</glyph>
<glyph name="f" format="2">
  <advance width="333.2530120481928"/>
  <unicode hex="0066"/>
  <anchor x="142.44578313253012" y="0.0" name="bottom"/>
  <anchor x="142.44578313253012" y="595.0" name="top"/>
  <outline>
    <contour>
      <point x="101.71084337349397" y="0.0" type="line"/>
      <point x="182.710843373494" y="0.0" type="line"/>
      <point x="182.710843373494" y="373.09638554216866" type="line"/>
      <point x="322.6024096385542" y="373.09638554216866" type="line"/>
      <point x="322.6024096385542" y="436.34939759036143" type="line"/>
      <point x="170.1867469879518" y="436.34939759036143" type="line"/>
      <point x="182.710843373494" y="423.4096385542169" type="line"/>
      <point x="182.710843373494" y="508.0060240963855" type="line" smooth="yes"/>
      <point x="182.710843373494" y="594.5542168674699"/>
      <point x="217.48192771084337" y="636.2710843373494"/>
      <point x="299.6024096385542" y="642.566265060241" type="curve" smooth="yes"/>
      <point x="345.6024096385542" y="645.566265060241" type="line"/>
      <point x="339.1927710843373" y="708.4096385542168" type="line"/>
      <point x="299.73493975903614" y="705.9397590361446" type="line" smooth="yes"/>
      <point x="165.52409638554215" y="698.0"/>
      <point x="101.71084337349397" y="632.710843373494"/>
      <point x="101.71084337349397" y="499.7831325301205" type="curve" smooth="yes"/>
      <point x="101.71084337349397" y="419.71084337349396" type="line"/>
      <point x="120.16867469879517" y="436.34939759036143" type="line"/>
      <point x="6.120481927710843" y="436.34939759036143" type="line"/>
      <point x="6.120481927710843" y="373.09638554216866" type="line"/>
      <point x="101.71084337349397" y="373.09638554216866" type="line"/>
    </contour>
  </outline>
</glyph>
<glyph name="g" format="2">
  <advance width="585.9759036144578"/>
  <unicode hex="0067"/>
  <anchor x="294.578313253012" y="484.0" name="top"/>
  <outline>
    <contour>
      <point x="290.4096385542169" y="-188.93975903614458" type="curve" smooth="yes"/>
      <point x="434.50602409638554" y="-188.93975903614458"/>
      <point x="510.3734939759036" y="-113.71084337349397"/>
      <point x="510.3734939759036" y="34.68674698795181" type="curve" smooth="yes"/>
      <point x="510.3734939759036" y="436.34939759036143" type="line"/>
      <point x="431.7831325301205" y="436.34939759036143" type="line"/>
      <point x="431.7831325301205" y="337.45180722891564" type="line"/>
      <point x="438.8433734939759" y="337.45180722891564" type="line"/>
      <point x="417.1385542168675" y="402.5783132530121"/>
      <point x="349.7831325301205" y="445.28915662650604"/>
      <point x="262.2469879518072" y="445.28915662650604" type="curve" smooth="yes"/>
      <point x="133.1265060240964" y="445.28915662650604"/>
      <point x="46.18674698795181" y="360.3493975903615"/>
      <point x="46.18674698795181" y="229.1144578313253" type="curve" smooth="yes"/>
      <point x="46.18674698795181" y="97.87951807228916"/>
      <point x="133.1265060240964" y="11.46987951807229"/>
      <point x="262.2469879518072" y="11.46987951807229" type="curve" smooth="yes"/>
      <point x="349.54819277108436" y="11.46987951807229"/>
      <point x="417.8433734939759" y="55.8855421686747"/>
      <point x="439.31325301204816" y="121.01204819277108" type="curve"/>
      <point x="431.3132530120482" y="121.01204819277108" type="line"/>
      <point x="431.3132530120482" y="23.927710843373497" type="line" smooth="yes"/>
      <point x="431.3132530120482" y="-72.67469879518072"/>
      <point x="382.0722891566265" y="-123.62650602409639"/>
      <point x="286.4759036144578" y="-123.62650602409639" type="curve" smooth="yes"/>
      <point x="215.40963855421685" y="-123.62650602409639"/>
      <point x="159.42168674698794" y="-106.1566265060241"/>
      <point x="100.4156626506024" y="-64.32530120481927" type="curve"/>
      <point x="72.89759036144578" y="-123.46385542168674" type="line"/>
      <point x="132.1867469879518" y="-167.58433734939757"/>
      <point x="206.35542168674698" y="-188.93975903614458"/>
    </contour>
    <contour>
      <point x="279.3975903614458" y="75.8433734939759" type="curve" smooth="yes"/>
      <point x="184.789156626506" y="75.8433734939759"/>
      <point x="127.48192771084338" y="134.9156626506024"/>
      <point x="127.48192771084338" y="229.1144578313253" type="curve" smooth="yes"/>
      <point x="127.48192771084338" y="323.0783132530121"/>
      <point x="184.789156626506" y="380.91566265060237"/>
      <point x="279.3975903614458" y="380.91566265060237" type="curve" smooth="yes"/>
      <point x="374.00602409638554" y="380.91566265060237"/>
      <point x="431.31325301204816" y="323.0783132530121"/>
      <point x="431.31325301204816" y="229.1144578313253" type="curve" smooth="yes"/>
      <point x="431.31325301204816" y="134.9156626506024"/>
      <point x="374.00602409638554" y="75.8433734939759"/>
    </contour>
  </outline>
</glyph>
<glyph name="h" format="2">
  <advance width="568.0361445783133"/>
  <unicode hex="0068"/>
  <anchor x="284.9879518072289" y="0.0" name="bottom"/>
  <anchor x="284.9879518072289" y="221.644578313253" name="center"/>
  <anchor x="250.51807228915663" y="316.76506024096386" name="dot"/>
  <anchor x="166.86746987951807" y="583.7590361445783" name="stroke"/>
  <anchor x="285.51807228915663" y="705.0" name="top"/>
  <anchor x="192.96385542168676" y="705.0" name="topright"/>
  <outline>
    <contour>
      <point x="75.60240963855422" y="0.0" type="line"/>
      <point x="156.6024096385542" y="0.0" type="line"/>
      <point x="156.6024096385542" y="232.35542168674698" type="line" smooth="yes"/>
      <point x="156.6024096385542" y="320.7289156626506"/>
      <point x="214.5" y="378.8012048192771"/>
      <point x="303.10843373493975" y="378.8012048192771" type="curve" smooth="yes"/>
      <point x="379.54216867469876" y="378.8012048192771"/>
      <point x="413.90361445783134" y="341.144578313253"/>
      <point x="413.90361445783134" y="253.59638554216866" type="curve" smooth="yes"/>
      <point x="413.90361445783134" y="0.0" type="line"/>
      <point x="494.90361445783134" y="0.0" type="line"/>
      <point x="494.90361445783134" y="258.710843373494" type="line" smooth="yes"/>
      <point x="494.90361445783134" y="384.17469879518075"/>
      <point x="437.8433734939759" y="445.28915662650604"/>
      <point x="321.90361445783134" y="445.28915662650604" type="curve" smooth="yes"/>
      <point x="238.72289156626505" y="445.28915662650604"/>
      <point x="172.0722891566265" y="404.6385542168675"/>
      <point x="144.66265060240963" y="332.8072289156627" type="curve"/>
      <point x="156.6024096385542" y="332.8072289156627" type="line"/>
      <point x="156.6024096385542" y="705.0" type="line"/>
      <point x="75.60240963855422" y="705.0" type="line"/>
    </contour>
  </outline>
</glyph>
<glyph name="k" format="2">
  <advance width="499.95180722891564"/>
  <unicode hex="006B"/>
  <anchor x="249.97590361445782" y="0.0" name="bottom"/>
  <anchor x="285.51807228915663" y="705.0" name="top"/>
  <outline>
    <contour>
      <point x="75.60240963855422" y="0.0" type="line"/>
      <point x="156.6024096385542" y="0.0" type="line"/>
      <point x="156.6024096385542" y="205.24698795180723" type="line"/>
      <point x="158.6024096385542" y="205.24698795180723" type="line"/>
      <point x="401.00602409638554" y="0.0" type="line"/>
      <point x="505.9397590361446" y="0.0" type="line"/>
      <point x="224.54819277108436" y="245.16867469879517" type="line"/>
      <point x="224.54819277108436" y="206.35542168674698" type="line"/>
      <point x="484.2831325301205" y="436.34939759036143" type="line"/>
      <point x="381.28915662650604" y="436.34939759036143" type="line"/>
      <point x="158.6024096385542" y="241.9277108433735" type="line"/>
      <point x="156.6024096385542" y="241.9277108433735" type="line"/>
      <point x="156.6024096385542" y="705.0" type="line"/>
      <point x="75.60240963855422" y="705.0" type="line"/>
    </contour>
  </outline>
</glyph>
<glyph name="m" format="2">
  <advance width="856.3253012048193"/>
  <unicode hex="006D"/>
  <anchor x="429.3975903614458" y="0.0" name="bottom"/>
  <anchor x="429.3975903614458" y="484.0" name="top"/>
  <outline>
    <contour>
      <point x="77.60240963855422" y="0.0" type="line"/>
      <point x="158.6024096385542" y="0.0" type="line"/>
      <point x="158.6024096385542" y="231.4156626506024" type="line" smooth="yes"/>
      <point x="158.6024096385542" y="320.96385542168673"/>
      <point x="209.20481927710844" y="378.8012048192771"/>
      <point x="288.9879518072289" y="378.8012048192771" type="curve" smooth="yes"/>
      <point x="358.06626506024094" y="378.8012048192771"/>
      <point x="388.66265060240966" y="341.144578313253"/>
      <point x="388.66265060240966" y="253.59638554216866" type="curve" smooth="yes"/>
      <point x="388.66265060240966" y="0.0" type="line"/>
      <point x="469.66265060240966" y="0.0" type="line"/>
      <point x="469.66265060240966" y="231.4156626506024" type="line" smooth="yes"/>
      <point x="469.66265060240966" y="320.96385542168673"/>
      <point x="520.7349397590361" y="378.8012048192771"/>
      <point x="600.0481927710844" y="378.8012048192771" type="curve" smooth="yes"/>
      <point x="669.5963855421687" y="378.8012048192771"/>
      <point x="700.1927710843373" y="341.144578313253"/>
      <point x="700.1927710843373" y="253.59638554216866" type="curve" smooth="yes"/>
      <point x="700.1927710843373" y="0.0" type="line"/>
      <point x="781.1927710843373" y="0.0" type="line"/>
      <point x="781.1927710843373" y="258.710843373494" type="line" smooth="yes"/>
      <point x="781.1927710843373" y="384.4096385542169"/>
      <point x="727.4277108433735" y="445.28915662650604"/>
      <point x="620.1385542168674" y="445.28915662650604" type="curve" smooth="yes"/>
      <point x="536.367469879518" y="445.28915662650604"/>
      <point x="473.4277108433735" y="400.2831325301205"/>
      <point x="447.84337349397595" y="331.1024096385542" type="curve"/>
      <point x="460.60843373493975" y="331.1024096385542" type="line"/>
      <point x="442.49397590361446" y="410.6385542168675"/>
      <point x="389.7289156626506" y="445.28915662650604"/>
      <point x="310.01807228915663" y="445.28915662650604" type="curve" smooth="yes"/>
      <point x="231.4277108433735" y="445.28915662650604"/>
      <point x="171.07228915662648" y="403.4036144578313"/>
      <point x="146.4277108433735" y="332.8072289156627" type="curve"/>
      <point x="156.4277108433735" y="332.8072289156627" type="line"/>
      <point x="156.4277108433735" y="436.34939759036143" type="line"/>
      <point x="77.60240963855422" y="436.34939759036143" type="line"/>
    </contour>
  </outline>
</glyph>
<glyph name="o" format="2">
  <advance width="555.855421686747"/>
  <unicode hex="006F"/>
  <anchor x="277.9277108433735" y="0.0" name="bottom"/>
  <anchor x="277.9277108433735" y="218.40963855421685" name="center"/>
  <anchor x="336.9277108433735" y="0.0" name="ogonek"/>
  <anchor x="277.9277108433735" y="484.0" name="top"/>
  <anchor x="330.03614457831327" y="434.23493975903614" name="topright"/>
  <outline>
    <contour>
      <point x="277.9277108433735" y="-8.939759036144578" type="curve" smooth="yes"/>
      <point x="418.0903614457831" y="-8.939759036144578"/>
      <point x="509.90361445783134" y="79.0"/>
      <point x="509.90361445783134" y="218.40963855421685" type="curve" smooth="yes"/>
      <point x="509.90361445783134" y="357.58433734939763"/>
      <point x="418.0903614457831" y="445.28915662650604"/>
      <point x="277.9277108433735" y="445.28915662650604" type="curve" smooth="yes"/>
      <point x="138.06024096385545" y="445.28915662650604"/>
      <point x="46.18674698795181" y="357.58433734939763"/>
      <point x="46.18674698795181" y="218.40963855421685" type="curve" smooth="yes"/>
      <point x="46.18674698795181" y="79.0"/>
      <point x="138.06024096385545" y="-8.939759036144578"/>
    </contour>
    <contour>
      <point x="277.9277108433735" y="55.903614457831324" type="curve" smooth="yes"/>
      <point x="185.789156626506" y="55.903614457831324"/>
      <point x="127.48192771084338" y="116.03614457831326"/>
      <point x="127.48192771084338" y="218.40963855421685" type="curve" smooth="yes"/>
      <point x="127.48192771084338" y="321.5481927710843"/>
      <point x="185.789156626506" y="380.68072289156623"/>
      <point x="277.9277108433735" y="380.68072289156623" type="curve" smooth="yes"/>
      <point x="370.3614457831325" y="380.68072289156623"/>
      <point x="428.3734939759036" y="321.5481927710843"/>
      <point x="428.3734939759036" y="218.40963855421685" type="curve" smooth="yes"/>
      <point x="428.3734939759036" y="116.03614457831326"/>
      <point x="370.3614457831325" y="55.903614457831324"/>
    </contour>
  </outline>
</glyph>
<glyph name="p" format="2">
  <advance width="583.0361445783133"/>
  <unicode hex="0070"/>
  <anchor x="289.9879518072289" y="0.0" name="bottom"/>
  <anchor x="289.9879518072289" y="484.0" name="top"/>
  <outline>
    <contour>
      <point x="75.60240963855422" y="-180.0" type="line"/>
      <point x="156.6024096385542" y="-180.0" type="line"/>
      <point x="156.6024096385542" y="100.66265060240964" type="line"/>
      <point x="147.66265060240966" y="100.66265060240964" type="line"/>
      <point x="168.89759036144576" y="35.006024096385545"/>
      <point x="235.95783132530119" y="-8.939759036144578"/>
      <point x="323.2590361445783" y="-8.939759036144578" type="curve" smooth="yes"/>
      <point x="450.9096385542169" y="-8.939759036144578"/>
      <point x="537.0843373493976" y="79.70481927710843"/>
      <point x="537.0843373493976" y="218.40963855421685" type="curve" smooth="yes"/>
      <point x="537.0843373493976" y="358.1144578313253"/>
      <point x="450.67469879518075" y="445.28915662650604"/>
      <point x="323.2590361445783" y="445.28915662650604" type="curve" smooth="yes"/>
      <point x="235.01807228915663" y="445.28915662650604"/>
      <point x="167.95783132530119" y="400.6385542168675"/>
      <point x="146.95783132530119" y="334.7469879518072" type="curve"/>
      <point x="154.9578313253012" y="334.7469879518072" type="line"/>
      <point x="154.9578313253012" y="436.34939759036143" type="line"/>
      <point x="75.60240963855422" y="436.34939759036143" type="line"/>
    </contour>
    <contour>
      <point x="305.10843373493975" y="55.903614457831324" type="curve" smooth="yes"/>
      <point x="212.96987951807228" y="55.903614457831324"/>
      <point x="154.66265060240966" y="116.03614457831326"/>
      <point x="154.66265060240966" y="218.40963855421685" type="curve" smooth="yes"/>
      <point x="154.66265060240966" y="321.5481927710843"/>
      <point x="212.96987951807228" y="380.68072289156623"/>
      <point x="305.10843373493975" y="380.68072289156623" type="curve" smooth="yes"/>
      <point x="397.54216867469876" y="380.68072289156623"/>
      <point x="455.55421686746985" y="321.5481927710843"/>
      <point x="455.55421686746985" y="218.40963855421685" type="curve" smooth="yes"/>
      <point x="455.55421686746985" y="116.03614457831326"/>
      <point x="397.54216867469876" y="55.903614457831324"/>
    </contour>
  </outline>
</glyph>
<glyph name="q" format="2">
  <advance width="583.0361445783133"/>
  <unicode hex="0071"/>
  <anchor x="290.4578313253012" y="0.0" name="bottom"/>
  <anchor x="290.4578313253012" y="484.0" name="top"/>
  <outline>
    <contour>
      <point x="426.43373493975906" y="-180.0" type="line"/>
      <point x="507.43373493975906" y="-180.0" type="line"/>
      <point x="507.43373493975906" y="436.34939759036143" type="line"/>
      <point x="428.8433734939759" y="436.34939759036143" type="line"/>
      <point x="428.8433734939759" y="334.7469879518072" type="line"/>
      <point x="436.3734939759036" y="334.7469879518072" type="line"/>
      <point x="415.60843373493975" y="400.6385542168675"/>
      <point x="348.54819277108436" y="445.28915662650604"/>
      <point x="260.0120481927711" y="445.28915662650604" type="curve" smooth="yes"/>
      <point x="133.1265060240964" y="445.28915662650604"/>
      <point x="46.18674698795181" y="358.1144578313253"/>
      <point x="46.18674698795181" y="218.40963855421685" type="curve" smooth="yes"/>
      <point x="46.18674698795181" y="79.70481927710843"/>
      <point x="132.1265060240964" y="-8.939759036144578"/>
      <point x="260.0120481927711" y="-8.939759036144578" type="curve" smooth="yes"/>
      <point x="348.0783132530121" y="-8.939759036144578"/>
      <point x="414.43373493975906" y="35.006024096385545"/>
      <point x="435.90361445783134" y="100.66265060240964" type="curve"/>
      <point x="426.43373493975906" y="100.66265060240964" type="line"/>
    </contour>
    <contour>
      <point x="277.9277108433735" y="55.903614457831324" type="curve" smooth="yes"/>
      <point x="185.789156626506" y="55.903614457831324"/>
      <point x="127.48192771084338" y="116.03614457831326"/>
      <point x="127.48192771084338" y="218.40963855421685" type="curve" smooth="yes"/>
      <point x="127.48192771084338" y="321.5481927710843"/>
      <point x="185.789156626506" y="380.68072289156623"/>
      <point x="277.9277108433735" y="380.68072289156623" type="curve" smooth="yes"/>
      <point x="370.3614457831325" y="380.68072289156623"/>
      <point x="428.3734939759036" y="321.5481927710843"/>
      <point x="428.3734939759036" y="218.40963855421685" type="curve" smooth="yes"/>
      <point x="428.3734939759036" y="116.03614457831326"/>
      <point x="370.3614457831325" y="55.903614457831324"/>
    </contour>
  </outline>
</glyph>
<glyph name="r" format="2">
  <advance width="357.5421686746988"/>
  <unicode hex="0072"/>
  <anchor x="116.33734939759036" y="0.0" name="bottom"/>
  <anchor x="214.80722891566265" y="484.0" name="top"/>
  <outline>
    <contour>
      <point x="75.60240963855422" y="0.0" type="line"/>
      <point x="157.5421686746988" y="0.0" type="line"/>
      <point x="157.5421686746988" y="231.54819277108436" type="line" smooth="yes"/>
      <point x="157.5421686746988" y="317.9759036144578"/>
      <point x="207.55421686746988" y="364.86746987951807"/>
      <point x="298.56626506024094" y="373.92771084337346" type="curve" smooth="yes"/>
      <point x="350.421686746988" y="378.86746987951807" type="line"/>
      <point x="344.0120481927711" y="448.8192771084337" type="line"/>
      <point x="315.0240963855422" y="446.34939759036143" type="line" smooth="yes"/>
      <point x="222.43373493975903" y="438.8192771084337"/>
      <point x="167.43373493975903" y="400.4698795180723"/>
      <point x="144.66265060240963" y="324.4698795180723" type="curve"/>
      <point x="154.4277108433735" y="324.4698795180723" type="line"/>
      <point x="154.4277108433735" y="436.34939759036143" type="line"/>
      <point x="75.60240963855422" y="436.34939759036143" type="line"/>
    </contour>
  </outline>
</glyph>
<glyph name="s" format="2">
  <advance width="481.10843373493975"/>
  <unicode hex="0073"/>
  <anchor x="239.75903614457832" y="0.0" name="bottom"/>
  <anchor x="249.289156626506" y="484.0" name="top"/>
  <outline>
    <contour>
      <point x="240.28915662650604" y="-8.939759036144578" type="curve" smooth="yes"/>
      <point x="359.921686746988" y="-8.939759036144578"/>
      <point x="433.6807228915663" y="42.05421686746988"/>
      <point x="433.6807228915663" y="122.9277108433735" type="curve" smooth="yes"/>
      <point x="433.6807228915663" y="183.6867469879518"/>
      <point x="393.0963855421687" y="220.56626506024097"/>
      <point x="306.1566265060241" y="236.2168674698795" type="curve" smooth="yes"/>
      <point x="206.04819277108436" y="253.80722891566265" type="line" smooth="yes"/>
      <point x="159.91566265060243" y="262.51807228915663"/>
      <point x="137.90963855421688" y="283.22891566265065"/>
      <point x="137.90963855421688" y="315.71084337349396" type="curve" smooth="yes"/>
      <point x="137.90963855421688" y="355.4879518072289"/>
      <point x="172.97590361445782" y="386.37951807228916"/>
      <point x="253.2831325301205" y="386.37951807228916" type="curve" smooth="yes"/>
      <point x="303.69879518072287" y="386.37951807228916"/>
      <point x="357.45783132530124" y="369.84939759036143"/>
      <point x="398.16265060240966" y="334.8433734939759" type="curve"/>
      <point x="423.8614457831325" y="389.5180722891566" type="line"/>
      <point x="383.10240963855426" y="425.6385542168675"/>
      <point x="320.5783132530121" y="445.28915662650604"/>
      <point x="253.04819277108433" y="445.28915662650604" type="curve" smooth="yes"/>
      <point x="132.47590361445782" y="445.28915662650604"/>
      <point x="63.897590361445786" y="388.76506024096386"/>
      <point x="63.897590361445786" y="311.8313253012048" type="curve" smooth="yes"/>
      <point x="63.897590361445786" y="251.0120481927711"/>
      <point x="103.71686746987952" y="211.89759036144576"/>
      <point x="184.5963855421687" y="196.77710843373492" type="curve" smooth="yes"/>
      <point x="284.7048192771084" y="178.42168674698794" type="line" smooth="yes"/>
      <point x="335.8975903614458" y="168.710843373494"/>
      <point x="358.6686746987952" y="151.0"/>
      <point x="358.6686746987952" y="118.57831325301206" type="curve" smooth="yes"/>
      <point x="358.6686746987952" y="76.97590361445783"/>
      <point x="319.7168674698795" y="50.96987951807228"/>
      <point x="241.1144578313253" y="50.96987951807228" type="curve" smooth="yes"/>
      <point x="181.93975903614458" y="50.96987951807228"/>
      <point x="121.94578313253012" y="66.43975903614458"/>
      <point x="74.94578313253011" y="100.9156626506024" type="curve"/>
      <point x="49.95180722891566" y="46.006024096385545" type="line"/>
      <point x="94.00602409638553" y="10.650602409638553"/>
      <point x="165.59036144578312" y="-8.939759036144578"/>
    </contour>
  </outline>
</glyph>
<glyph name="t" format="2">
  <advance width="350.0722891566265"/>
  <unicode hex="0074"/>
  <anchor x="215.6867469879518" y="0.0" name="bottom"/>
  <anchor x="164.6265060240964" y="238.77108433734938" name="center"/>
  <anchor x="139.97590361445782" y="596.4759036144578" name="top"/>
  <anchor x="248.49397590361446" y="705.0" name="topright"/>
  <outline>
    <contour>
      <point x="270.9759036144578" y="-8.939759036144578" type="curve" smooth="yes"/>
      <point x="301.26506024096386" y="-8.939759036144578"/>
      <point x="339.6144578313253" y="0.06024096385542166"/>
      <point x="357.2530120481928" y="10.409638554216867" type="curve"/>
      <point x="343.2590361445783" y="71.72289156626506" type="line"/>
      <point x="325.43975903614455" y="65.72289156626506"/>
      <point x="303.6144578313253" y="59.66265060240964"/>
      <point x="281.96385542168673" y="59.66265060240964" type="curve" smooth="yes"/>
      <point x="209.42168674698794" y="59.66265060240964"/>
      <point x="180.24096385542168" y="99.144578313253"/>
      <point x="180.24096385542168" y="174.63253012048193" type="curve" smooth="yes"/>
      <point x="180.24096385542168" y="373.09638554216866" type="line"/>
      <point x="334.0722891566265" y="373.09638554216866" type="line"/>
      <point x="334.0722891566265" y="436.34939759036143" type="line"/>
      <point x="180.24096385542168" y="436.34939759036143" type="line"/>
      <point x="180.24096385542168" y="596.4759036144578" type="line"/>
      <point x="99.24096385542168" y="596.4759036144578" type="line"/>
      <point x="99.24096385542168" y="436.34939759036143" type="line"/>
      <point x="3.6506024096385543" y="436.34939759036143" type="line"/>
      <point x="3.6506024096385543" y="373.09638554216866" type="line"/>
      <point x="99.24096385542168" y="373.09638554216866" type="line"/>
      <point x="99.24096385542168" y="167.04216867469881" type="line" smooth="yes"/>
      <point x="99.24096385542168" y="53.644578313253014"/>
      <point x="155.87951807228916" y="-8.939759036144578"/>
    </contour>
  </outline>
</glyph>
<glyph name="u" format="2">
  <advance width="560.9759036144578"/>
  <unicode hex="0075"/>
  <anchor x="280.51807228915663" y="0.0" name="bottom"/>
  <anchor x="468.9277108433735" y="0.0" name="ogonek"/>
  <anchor x="280.51807228915663" y="485.0" name="top"/>
  <anchor x="420.4698795180723" y="434.0" name="topright"/>
  <outline>
    <contour>
      <point x="249.1265060240964" y="-8.939759036144578" type="curve" smooth="yes"/>
      <point x="329.3072289156627" y="-8.939759036144578"/>
      <point x="392.1385542168675" y="33.47590361445783"/>
      <point x="418.01807228915663" y="106.01204819277109" type="curve"/>
      <point x="406.54819277108436" y="106.01204819277109" type="line"/>
      <point x="406.54819277108436" y="0.0" type="line"/>
      <point x="485.3734939759036" y="0.0" type="line"/>
      <point x="485.3734939759036" y="436.34939759036143" type="line"/>
      <point x="404.3734939759036" y="436.34939759036143" type="line"/>
      <point x="404.3734939759036" y="204.52409638554215" type="line" smooth="yes"/>
      <point x="404.3734939759036" y="116.62048192771084"/>
      <point x="347.53614457831327" y="57.54819277108434"/>
      <point x="265.86746987951807" y="57.54819277108434" type="curve" smooth="yes"/>
      <point x="190.02409638554218" y="57.54819277108434"/>
      <point x="154.13253012048193" y="95.73493975903614"/>
      <point x="154.13253012048193" y="181.8734939759036" type="curve" smooth="yes"/>
      <point x="154.13253012048193" y="436.34939759036143" type="line"/>
      <point x="73.13253012048193" y="436.34939759036143" type="line"/>
      <point x="73.13253012048193" y="178.63855421686748" type="line" smooth="yes"/>
      <point x="73.13253012048193" y="54.174698795180724"/>
      <point x="133.5421686746988" y="-8.939759036144578"/>
    </contour>
  </outline>
</glyph>
<glyph name="v" format="2">
  <advance width="514.8072289156627"/>
  <unicode hex="0076"/>
  <anchor x="258.10843373493975" y="0.0" name="bottom"/>
  <anchor x="258.10843373493975" y="484.0" name="top"/>
  <outline>
    <contour>
      <point x="220.5421686746988" y="0.0" type="line"/>
      <point x="294.26506024096386" y="0.0" type="line"/>
      <point x="504.7289156626506" y="436.34939759036143" type="line"/>
      <point x="421.5481927710843" y="436.34939759036143" type="line"/>
      <point x="246.93373493975903" y="60.64457831325302" type="line"/>
      <point x="269.9879518072289" y="60.64457831325302" type="line"/>
      <point x="98.25301204819277" y="436.34939759036143" type="line"/>
      <point x="11.018072289156626" y="436.34939759036143" type="line"/>
    </contour>
  </outline>
</glyph>
<glyph name="w" format="2">
  <advance width="840.8072289156627"/>
  <unicode hex="0077"/>
  <anchor x="420.6385542168675" y="0.0" name="bottom"/>
  <anchor x="420.6385542168675" y="484.0" name="top"/>
  <outline>
    <contour>
      <point x="206.47590361445782" y="0.0" type="line"/>
      <point x="281.08433734939763" y="0.0" type="line"/>
      <point x="440.3975903614458" y="382.53012048192767" type="line"/>
      <point x="402.4698795180723" y="382.53012048192767" type="line"/>
      <point x="560.1927710843373" y="0.0" type="line"/>
      <point x="634.2710843373494" y="0.0" type="line"/>
      <point x="816.843373493976" y="436.34939759036143" type="line"/>
      <point x="737.1325301204819" y="436.34939759036143" type="line"/>
      <point x="586.1144578313254" y="61.759036144578324" type="line"/>
      <point x="606.8192771084337" y="61.759036144578324" type="line"/>
      <point x="456.2710843373494" y="436.34939759036143" type="line"/>
      <point x="389.82530120481925" y="436.34939759036143" type="line"/>
      <point x="235.5120481927711" y="61.759036144578324" type="line"/>
      <point x="256.98192771084337" y="61.759036144578324" type="line"/>
      <point x="108.02409638554217" y="436.34939759036143" type="line"/>
      <point x="24.493975903614455" y="436.34939759036143" type="line"/>
    </contour>
  </outline>
</glyph>
<glyph name="x" format="2">
  <advance width="524.7951807228916"/>
  <unicode hex="0078"/>
  <anchor x="262.86746987951807" y="0.0" name="bottom"/>
  <anchor x="262.86746987951807" y="484.0" name="top"/>
  <outline>
    <contour>
      <point x="15.433734939759036" y="0.0" type="line"/>
      <point x="111.13253012048193" y="0.0" type="line"/>
      <point x="277.566265060241" y="189.9036144578313" type="line"/>
      <point x="247.46385542168673" y="189.9036144578313" type="line"/>
      <point x="414.8373493975904" y="0.0" type="line"/>
      <point x="511.83132530120486" y="0.0" type="line"/>
      <point x="296.60843373493975" y="240.9277108433735" type="line"/>
      <point x="294.96385542168673" y="206.30722891566265" type="line"/>
      <point x="499.89156626506025" y="436.34939759036143" type="line"/>
      <point x="404.6626506024096" y="436.34939759036143" type="line"/>
      <point x="249.52409638554218" y="259.6807228915663" type="line"/>
      <point x="278.27108433734935" y="259.6807228915663" type="line"/>
      <point x="122.36746987951808" y="436.34939759036143" type="line"/>
      <point x="26.373493975903614" y="436.34939759036143" type="line"/>
      <point x="230.95180722891567" y="205.65662650602408" type="line"/>
      <point x="232.1265060240964" y="244.63253012048196" type="line"/>
    </contour>
  </outline>
</glyph>
<glyph name="y" format="2">
  <advance width="514.3373493975904"/>
  <unicode hex="0079"/>
  <anchor x="389.32530120481925" y="0.0" name="bottom"/>
  <anchor x="257.6385542168675" y="484.0" name="top"/>
  <outline>
    <contour>
      <point x="122.56024096385542" y="-180.0" type="line"/>
      <point x="206.09036144578315" y="-180.0" type="line"/>
      <point x="505.49397590361446" y="436.34939759036143" type="line"/>
      <point x="422.078313253012" y="436.34939759036143" type="line"/>
      <point x="246.93373493975903" y="60.64457831325302" type="line"/>
      <point x="269.9879518072289" y="60.64457831325302" type="line"/>
      <point x="97.78313253012048" y="436.34939759036143" type="line"/>
      <point x="10.548192771084336" y="436.34939759036143" type="line"/>
      <point x="224.1325301204819" y="-8.650602409638555" type="line"/>
      <point x="224.1325301204819" y="25.44578313253012" type="line"/>
    </contour>
  </outline>
</glyph>
<glyph name="z" format="2">
  <advance width="463.3975903614458"/>
  <unicode hex="007A"/>
  <anchor x="238.75903614457832" y="0.0" name="bottom"/>
  <anchor x="238.75903614457832" y="484.0" name="top"/>
  <outline>
    <contour>
      <point x="54.83132530120482" y="0.0" type="line"/>
      <point x="433.6867469879518" y="0.0" type="line"/>
      <point x="433.6867469879518" y="62.78313253012048" type="line"/>
      <point x="128.25301204819277" y="62.78313253012048" type="line"/>
      <point x="128.25301204819277" y="40.385542168674704" type="line"/>
      <point x="422.6867469879518" y="383.32530120481925" type="line"/>
      <point x="422.6867469879518" y="436.34939759036143" type="line"/>
      <point x="54.83132530120482" y="436.34939759036143" type="line"/>
      <point x="54.83132530120482" y="373.8012048192771" type="line"/>
      <point x="348.79518072289153" y="373.8012048192771" type="line"/>
      <point x="348.79518072289153" y="395.7289156626506" type="line"/>
      <point x="54.83132530120482" y="54.024096385542165" type="line"/>
    </contour>
  </outline>
</glyph>
<glyph name="braceright" format="2">
  <advance width="352.30120481927713"/>
  <unicode hex="007D"/>
  <outline>
    <contour>
      <point x="7.759036144578314" y="-180.0" type="line"/>
      <point x="105.79518072289156" y="-180.0" type="line" smooth="yes"/>
      <point x="170.6024096385542" y="-180.0"/>
      <point x="206.12048192771084" y="-143.42168674698794"/>
      <point x="206.12048192771084" y="-78.08433734939759" type="curve" smooth="yes"/>
      <point x="206.12048192771084" y="149.3132530120482" type="line" smooth="yes"/>
      <point x="206.12048192771084" y="204.90361445783134"/>
      <point x="225.24096385542168" y="226.96385542168676"/>
      <point x="276.48192771084337" y="229.90361445783134" type="curve" smooth="yes"/>
      <point x="303.4698795180723" y="231.8433734939759" type="line"/>
      <point x="303.4698795180723" y="293.6867469879518" type="line"/>
      <point x="276.48192771084337" y="295.6265060240964" type="line" smooth="yes"/>
      <point x="225.24096385542168" y="299.09638554216866"/>
      <point x="206.12048192771084" y="320.6265060240964"/>
      <point x="206.12048192771084" y="376.2168674698795" type="curve" smooth="yes"/>
      <point x="206.12048192771084" y="603.0843373493976" type="line" smooth="yes"/>
      <point x="206.12048192771084" y="668.4216867469879"/>
      <point x="170.6024096385542" y="705.0"/>
      <point x="105.79518072289156" y="705.0" type="curve" smooth="yes"/>
      <point x="7.759036144578314" y="705.0" type="line"/>
      <point x="7.759036144578314" y="641.2168674698795" type="line"/>
      <point x="81.53012048192771" y="641.2168674698795" type="line" smooth="yes"/>
      <point x="111.06024096385542" y="641.2168674698795"/>
      <point x="125.12048192771084" y="626.6867469879518"/>
      <point x="125.12048192771084" y="596.156626506024" type="curve" smooth="yes"/>
      <point x="125.12048192771084" y="367.578313253012" type="line" smooth="yes"/>
      <point x="125.12048192771084" y="307.1686746987952"/>
      <point x="164.34939759036143" y="260.5301204819277"/>
      <point x="215.81927710843374" y="260.5301204819277" type="curve"/>
      <point x="215.81927710843374" y="264.5301204819277" type="line"/>
      <point x="164.34939759036143" y="264.5301204819277"/>
      <point x="125.12048192771084" y="218.36144578313252"/>
      <point x="125.12048192771084" y="157.95180722891567" type="curve" smooth="yes"/>
      <point x="125.12048192771084" y="-71.1566265060241" type="line" smooth="yes"/>
      <point x="125.12048192771084" y="-101.6867469879518"/>
      <point x="111.06024096385542" y="-116.21686746987952"/>
      <point x="81.53012048192771" y="-116.21686746987952" type="curve" smooth="yes"/>
      <point x="7.759036144578314" y="-116.21686746987952" type="line"/>
    </contour>
  </outline>
</glyph>
<glyph name="cent" format="2">
  <advance width="600.0"/>
  <unicode hex="00A2"/>
  <outline>
    <contour>
      <point x="284.2530120481928" y="-115.0" type="line"/>
      <point x="352.4457831325301" y="-115.0" type="line"/>
      <point x="352.4457831325301" y="11.228915662650603" type="line"/>
      <point x="331.10843373493975" y="-7.939759036144578" type="line"/>
      <point x="395.45180722891564" y="-7.234939759036145"/>
      <point x="460.04216867469876" y="15.060240963855422"/>
      <point x="500.39156626506025" y="49.94578313253012" type="curve"/>
      <point x="474.2831325301205" y="107.84939759036145" type="line"/>
      <point x="434.16265060240966" y="74.3132530120482"/>
      <point x="383.63253012048193" y="58.07831325301205"/>
      <point x="333.45180722891564" y="58.07831325301205" type="curve" smooth="yes"/>
      <point x="232.1987951807229" y="58.07831325301205"/>
      <point x="173.95180722891567" y="120.62048192771086"/>
      <point x="173.95180722891567" y="219.644578313253" type="curve" smooth="yes"/>
      <point x="173.95180722891567" y="317.66867469879514"/>
      <point x="232.96385542168676" y="378.9759036144578"/>
      <point x="333.6867469879518" y="378.9759036144578" type="curve" smooth="yes"/>
      <point x="384.1024096385542" y="378.9759036144578"/>
      <point x="433.92771084337346" y="362.7409638554217"/>
      <point x="474.2831325301205" y="329.43975903614455" type="curve"/>
      <point x="500.39156626506025" y="387.10843373493975" type="line"/>
      <point x="460.04216867469876" y="422.99397590361446"/>
      <point x="399.10240963855426" y="442.5843373493976"/>
      <point x="333.10843373493975" y="443.34939759036143" type="curve"/>
      <point x="352.4457831325301" y="423.1204819277109" type="line"/>
      <point x="352.4457831325301" y="556.3493975903615" type="line"/>
      <point x="284.2530120481928" y="556.3493975903615" type="line"/>
      <point x="284.2530120481928" y="419.066265060241" type="line"/>
      <point x="297.95180722891564" y="442.1746987951807" type="line"/>
      <point x="173.48192771084337" y="430.71084337349396"/>
      <point x="91.01204819277109" y="345.4156626506024"/>
      <point x="91.01204819277109" y="219.70481927710844" type="curve" smooth="yes"/>
      <point x="91.01204819277109" y="90.87349397590361"/>
      <point x="173.8975903614458" y="3.5783132530120487"/>
      <point x="298.48192771084337" y="-6.530120481927711" type="curve"/>
      <point x="284.2530120481928" y="14.048192771084338" type="line"/>
    </contour>
  </outline>
</glyph>
<glyph name="sterling" format="2">
  <advance width="600.0"/>
  <unicode hex="00A3"/>
  <outline>
    <contour>
      <point x="47.71084337349397" y="0.0" type="line"/>
      <point x="552.5180722891566" y="0.0" type="line"/>
      <point x="552.5180722891566" y="70.01204819277109" type="line"/>
      <point x="228.43373493975903" y="70.01204819277109" type="line"/>
      <point x="228.43373493975903" y="323.2530120481928" type="line"/>
      <point x="408.2168674698795" y="323.2530120481928" type="line"/>
      <point x="408.2168674698795" y="383.6867469879518" type="line"/>
      <point x="228.43373493975903" y="383.6867469879518" type="line"/>
      <point x="228.43373493975903" y="513.6626506024096" type="line" smooth="yes"/>
      <point x="228.43373493975903" y="598.9759036144578"/>
      <point x="272.3855421686747" y="643.8072289156627"/>
      <point x="360.9879518072289" y="643.8072289156627" type="curve" smooth="yes"/>
      <point x="428.12048192771084" y="643.8072289156627"/>
      <point x="490.89156626506025" y="622.0963855421687"/>
      <point x="533.1204819277109" y="572.3253012048193" type="curve"/>
      <point x="565.9879518072289" y="635.6385542168674" type="line"/>
      <point x="516.5783132530121" y="685.3493975903615"/>
      <point x="437.69879518072287" y="713.9397590361446"/>
      <point x="361.87951807228916" y="713.9397590361446" type="curve" smooth="yes"/>
      <point x="217.72289156626505" y="713.9397590361446"/>
      <point x="146.02409638554218" y="638.0120481927711"/>
      <point x="146.02409638554218" y="510.2530120481928" type="curve" smooth="yes"/>
      <point x="146.02409638554218" y="383.6867469879518" type="line"/>
      <point x="47.71084337349397" y="383.6867469879518" type="line"/>
      <point x="47.71084337349397" y="323.2530120481928" type="line"/>
      <point x="146.02409638554218" y="323.2530120481928" type="line"/>
      <point x="146.02409638554218" y="70.01204819277109" type="line"/>
      <point x="47.71084337349397" y="70.01204819277109" type="line"/>
    </contour>
  </outline>
</glyph>
<glyph name="brokenbar" format="2">
  <advance width="265.144578313253"/>
  <unicode hex="00A6"/>
  <outline>
    <contour>
      <point x="92.07228915662651" y="372.0" type="line"/>
      <point x="173.0722891566265" y="372.0" type="line"/>
      <point x="173.0722891566265" y="705.0" type="line"/>
      <point x="92.07228915662651" y="705.0" type="line"/>
    </contour>
    <contour>
      <point x="92.07228915662651" y="-180.0" type="line"/>
      <point x="173.0722891566265" y="-180.0" type="line"/>
      <point x="173.0722891566265" y="153.46987951807228" type="line"/>
      <point x="92.07228915662651" y="153.46987951807228" type="line"/>
    </contour>
  </outline>
</glyph>
<glyph name="section" format="2">
  <advance width="544.6144578313254"/>
  <unicode hex="00A7"/>
  <outline>
    <contour>
      <point x="247.6265060240964" y="-188.93975903614458" type="curve" smooth="yes"/>
      <point x="372.90361445783134" y="-188.93975903614458"/>
      <point x="462.72289156626505" y="-121.59036144578313"/>
      <point x="462.72289156626505" y="-9.771084337349397" type="curve" smooth="yes"/>
      <point x="462.72289156626505" y="32.63855421686747"/>
      <point x="450.3734939759036" y="61.33734939759036"/>
      <point x="435.3855421686747" y="79.03614457831326" type="curve"/>
      <point x="428.03614457831327" y="55.63855421686747" type="line"/>
      <point x="472.8433734939759" y="87.86746987951807"/>
      <point x="503.1927710843373" y="142.33734939759037"/>
      <point x="503.1927710843373" y="197.9156626506024" type="curve" smooth="yes"/>
      <point x="503.1927710843373" y="271.3855421686747"/>
      <point x="469.3734939759036" y="320.67469879518075"/>
      <point x="362.0120481927711" y="371.4457831325301" type="curve" smooth="yes"/>
      <point x="252.44578313253012" y="422.6144578313253" type="line" smooth="yes"/>
      <point x="183.7831325301205" y="454.9759036144578"/>
      <point x="162.0722891566265" y="488.86746987951807"/>
      <point x="162.0722891566265" y="539.0" type="curve" smooth="yes"/>
      <point x="162.0722891566265" y="610.433734939759"/>
      <point x="216.67469879518072" y="650.9156626506024"/>
      <point x="291.27710843373495" y="650.9156626506024" type="curve" smooth="yes"/>
      <point x="350.4578313253012" y="650.9156626506024"/>
      <point x="414.8072289156627" y="629.855421686747"/>
      <point x="456.1566265060241" y="595.144578313253" type="curve"/>
      <point x="483.2048192771084" y="651.6987951807229" type="line"/>
      <point x="441.855421686747" y="690.8192771084338"/>
      <point x="372.03614457831327" y="713.4096385542168"/>
      <point x="292.86746987951807" y="713.4096385542168" type="curve" smooth="yes"/>
      <point x="172.18072289156626" y="713.4096385542168"/>
      <point x="82.36144578313252" y="646.0602409638554"/>
      <point x="82.36144578313252" y="534.2409638554217" type="curve" smooth="yes"/>
      <point x="82.36144578313252" y="491.3614457831325"/>
      <point x="94.71084337349397" y="463.13253012048193"/>
      <point x="109.6987951807229" y="445.43373493975906" type="curve"/>
      <point x="117.04819277108433" y="468.8313253012048" type="line"/>
      <point x="72.24096385542168" y="436.6024096385542"/>
      <point x="41.89156626506024" y="382.13253012048193"/>
      <point x="41.89156626506024" y="326.5542168674699" type="curve" smooth="yes"/>
      <point x="41.89156626506024" y="253.0843373493976"/>
      <point x="75.71084337349397" y="203.79518072289156"/>
      <point x="183.0722891566265" y="153.02409638554218" type="curve" smooth="yes"/>
      <point x="292.6385542168675" y="101.85542168674698" type="line" smooth="yes"/>
      <point x="361.30120481927713" y="69.49397590361446"/>
      <point x="383.0120481927711" y="35.60240963855422"/>
      <point x="383.0120481927711" y="-14.53012048192771" type="curve" smooth="yes"/>
      <point x="383.0120481927711" y="-86.43373493975903"/>
      <point x="328.4096385542169" y="-126.44578313253012"/>
      <point x="249.21686746987953" y="-126.44578313253012" type="curve" smooth="yes"/>
      <point x="184.1566265060241" y="-126.44578313253012"/>
      <point x="115.4578313253012" y="-103.50602409638554"/>
      <point x="75.04819277108433" y="-67.85542168674698" type="curve"/>
      <point x="48.0" y="-125.81927710843374" type="line"/>
      <point x="90.75903614457832" y="-165.40963855421685"/>
      <point x="162.9277108433735" y="-188.93975903614458"/>
    </contour>
    <contour>
      <point x="115.78313253012048" y="337.95180722891564" type="curve" smooth="yes"/>
      <point x="115.78313253012048" y="372.3132530120482"/>
      <point x="129.43373493975903" y="403.5542168674699"/>
      <point x="155.14457831325302" y="426.6144578313253" type="curve"/>
      <point x="130.50602409638554" y="425.26506024096386" type="line"/>
      <point x="148.6265060240964" y="401.90361445783134"/>
      <point x="179.9277108433735" y="376.0722891566265"/>
      <point x="229.24096385542168" y="352.65060240963857" type="curve" smooth="yes"/>
      <point x="323.3975903614458" y="308.48192771084337" type="line" smooth="yes"/>
      <point x="404.2409638554217" y="270.5301204819277"/>
      <point x="429.30120481927713" y="234.87951807228916"/>
      <point x="429.30120481927713" y="186.51807228915663" type="curve" smooth="yes"/>
      <point x="429.30120481927713" y="152.1566265060241"/>
      <point x="415.65060240963857" y="120.91566265060241"/>
      <point x="389.93975903614455" y="97.855421686747" type="curve"/>
      <point x="414.578313253012" y="99.20481927710844" type="line"/>
      <point x="396.4578313253012" y="122.56626506024097"/>
      <point x="365.1566265060241" y="148.3975903614458"/>
      <point x="315.8433734939759" y="171.81927710843374" type="curve" smooth="yes"/>
      <point x="221.6867469879518" y="215.9879518072289" type="line" smooth="yes"/>
      <point x="140.8433734939759" y="253.93975903614458"/>
      <point x="115.78313253012048" y="289.5903614457831"/>
    </contour>
  </outline>
</glyph>
<glyph name="plusminus" format="2">
  <advance width="600.0"/>
  <unicode hex="00B1"/>
  <outline>
    <contour>
      <point x="267.7831325301205" y="127.33734939759036" type="line"/>
      <point x="332.2168674698795" y="127.33734939759036" type="line"/>
      <point x="332.2168674698795" y="297.3614457831325" type="line"/>
      <point x="544.0" y="297.3614457831325" type="line"/>
      <point x="544.0" y="359.3855421686747" type="line"/>
      <point x="332.2168674698795" y="359.3855421686747" type="line"/>
      <point x="332.2168674698795" y="529.4096385542168" type="line"/>
      <point x="267.7831325301205" y="529.4096385542168" type="line"/>
      <point x="267.7831325301205" y="359.3855421686747" type="line"/>
      <point x="56.0" y="359.3855421686747" type="line"/>
      <point x="56.0" y="297.3614457831325" type="line"/>
      <point x="267.7831325301205" y="297.3614457831325" type="line"/>
    </contour>
    <contour>
      <point x="56.0" y="0.0" type="line"/>
      <point x="544.0" y="0.0" type="line"/>
      <point x="544.0" y="62.024096385542165" type="line"/>
      <point x="56.0" y="62.024096385542165" type="line"/>
    </contour>
  </outline>
</glyph>
<glyph name="questiondown" format="2">
  <advance width="443.09638554216866"/>
  <unicode hex="00BF"/>
  <outline>
    <contour>
      <point x="217.98795180722894" y="-188.93975903614458" type="curve" smooth="yes"/>
      <point x="305.22289156626505" y="-188.93975903614458"/>
      <point x="388.8674698795181" y="-159.52409638554215"/>
      <point x="441.3313253012048" y="-115.46385542168676" type="curve"/>
      <point x="410.7590361445783" y="-55.03012048192772" type="line"/>
      <point x="355.46385542168673" y="-98.03614457831326"/>
      <point x="294.578313253012" y="-120.45180722891565"/>
      <point x="222.21686746987953" y="-120.45180722891565" type="curve" smooth="yes"/>
      <point x="144.66867469879517" y="-120.45180722891565"/>
      <point x="107.24698795180724" y="-90.56024096385542"/>
      <point x="107.24698795180724" y="-41.95783132530121" type="curve" smooth="yes"/>
      <point x="107.24698795180724" y="-6.596385542168674"/>
      <point x="123.13253012048193" y="24.825301204819276"/>
      <point x="175.6144578313253" y="69.30722891566265" type="curve" smooth="yes"/>
      <point x="242.39156626506025" y="125.0843373493976"/>
      <point x="260.921686746988" y="173.85542168674698"/>
      <point x="260.921686746988" y="229.0963855421687" type="curve" smooth="yes"/>
      <point x="260.921686746988" y="252.5" type="line"/>
      <point x="210.24698795180723" y="252.5" type="line"/>
      <point x="206.13253012048193" y="230.91566265060243" type="line" smooth="yes"/>
      <point x="199.19277108433735" y="184.96385542168676"/>
      <point x="179.8975903614458" y="151.19277108433735"/>
      <point x="115.42168674698794" y="98.94578313253014" type="curve" smooth="yes"/>
      <point x="46.126506024096386" y="42.75903614457831"/>
      <point x="25.246987951807228" y="-0.06626506024096479"/>
      <point x="25.246987951807228" y="-50.945783132530124" type="curve" smooth="yes"/>
      <point x="25.246987951807228" y="-135.29518072289156"/>
      <point x="97.29518072289156" y="-188.93975903614458"/>
    </contour>
    <contour>
      <point x="184.90361445783134" y="333.9277108433735" type="line"/>
      <point x="286.26506024096386" y="333.9277108433735" type="line"/>
      <point x="286.26506024096386" y="436.34939759036143" type="line"/>
      <point x="184.90361445783134" y="436.34939759036143" type="line"/>
    </contour>
  </outline>
</glyph>
<glyph name="multiply" format="2">
  <advance width="600.0"/>
  <unicode hex="00D7"/>
  <outline>
    <contour>
      <point x="109.97590361445783" y="50.93975903614458" type="line"/>
      <point x="300.0" y="240.96385542168676" type="line"/>
      <point x="490.0240963855422" y="50.93975903614458" type="line"/>
      <point x="534.0" y="93.91566265060241" type="line"/>
      <point x="343.9759036144578" y="284.4698795180723" type="line"/>
      <point x="534.0" y="474.49397590361446" type="line"/>
      <point x="490.0240963855422" y="518.9397590361446" type="line"/>
      <point x="300.0" y="328.9156626506024" type="line"/>
      <point x="109.97590361445783" y="518.9397590361446" type="line"/>
      <point x="66.0" y="474.49397590361446" type="line"/>
      <point x="256.0240963855422" y="284.4698795180723" type="line"/>
      <point x="66.0" y="93.91566265060241" type="line"/>
    </contour>
  </outline>
</glyph>
<glyph name="Thorn" format="2">
  <advance width="633.855421686747"/>
  <unicode hex="00DE"/>
  <anchor x="324.4578313253012" y="0.0" name="bottom"/>
  <anchor x="324.4578313253012" y="705.0" name="top"/>
  <outline>
    <contour>
      <point x="87.07228915662651" y="0.0" type="line"/>
      <point x="169.48192771084337" y="0.0" type="line"/>
      <point x="169.48192771084337" y="153.95180722891567" type="line"/>
      <point x="366.9759036144578" y="153.95180722891567" type="line" smooth="yes"/>
      <point x="518.2650602409639" y="153.95180722891567"/>
      <point x="602.0843373493976" y="231.18072289156626"/>
      <point x="602.0843373493976" y="365.93975903614455" type="curve" smooth="yes"/>
      <point x="602.0843373493976" y="500.69879518072287"/>
      <point x="518.2650602409639" y="577.4578313253012"/>
      <point x="366.9759036144578" y="577.4578313253012" type="curve" smooth="yes"/>
      <point x="169.48192771084337" y="577.4578313253012" type="line"/>
      <point x="169.48192771084337" y="705.0" type="line"/>
      <point x="87.07228915662651" y="705.0" type="line"/>
    </contour>
    <contour>
      <point x="169.48192771084337" y="222.0843373493976" type="line"/>
      <point x="169.48192771084337" y="509.32530120481925" type="line"/>
      <point x="357.04819277108436" y="509.32530120481925" type="line" smooth="yes"/>
      <point x="465.5421686746988" y="509.32530120481925"/>
      <point x="520.4939759036145" y="460.3132530120482"/>
      <point x="520.4939759036145" y="365.93975903614455" type="curve" smooth="yes"/>
      <point x="520.4939759036145" y="271.56626506024094"/>
      <point x="465.5421686746988" y="222.0843373493976"/>
      <point x="357.04819277108436" y="222.0843373493976" type="curve" smooth="yes"/>
    </contour>
  </outline>
</glyph>
<glyph name="germandbls" format="2">
  <advance width="614.8313253012049"/>
  <unicode hex="00DF"/>
  <outline>
    <contour>
      <point x="399.9578313253012" y="-8.939759036144578" type="curve" smooth="yes"/>
      <point x="512.8855421686748" y="-8.939759036144578"/>
      <point x="585.4096385542168" y="43.05421686746988"/>
      <point x="585.4096385542168" y="125.57228915662651" type="curve" smooth="yes"/>
      <point x="585.4096385542168" y="191.86144578313252"/>
      <point x="546.644578313253" y="227.68072289156626"/>
      <point x="436.5240963855422" y="255.3313253012048" type="curve" smooth="yes"/>
      <point x="357.22289156626505" y="275.98192771084337"/>
      <point x="334.4518072289157" y="296.9879518072289"/>
      <point x="334.4518072289157" y="334.4096385542169" type="curve" smooth="yes"/>
      <point x="334.4518072289157" y="360.355421686747"/>
      <point x="346.7469879518072" y="383.4759036144578"/>
      <point x="386.86746987951807" y="429.12048192771084" type="curve" smooth="yes"/>
      <point x="442.28915662650604" y="492.18674698795184"/>
      <point x="460.9397590361446" y="527.8915662650603"/>
      <point x="460.9397590361446" y="579.6024096385543" type="curve" smooth="yes"/>
      <point x="460.9397590361446" y="663.5903614457831"/>
      <point x="397.421686746988" y="713.9397590361446"/>
      <point x="293.5" y="713.9397590361446" type="curve" smooth="yes"/>
      <point x="155.5301204819277" y="713.9397590361446"/>
      <point x="75.60240963855422" y="630.8915662650603"/>
      <point x="75.60240963855422" y="489.03012048192767" type="curve" smooth="yes"/>
      <point x="75.60240963855422" y="0.0" type="line"/>
      <point x="156.6024096385542" y="0.0" type="line"/>
      <point x="156.6024096385542" y="495.7831325301205" type="line" smooth="yes"/>
      <point x="156.6024096385542" y="594.5"/>
      <point x="205.13855421686748" y="651.0361445783133"/>
      <point x="293.0903614457832" y="651.0361445783133" type="curve" smooth="yes"/>
      <point x="351.7469879518072" y="651.0361445783133"/>
      <point x="384.2831325301205" y="622.2650602409639"/>
      <point x="384.2831325301205" y="572.6084337349398" type="curve" smooth="yes"/>
      <point x="384.2831325301205" y="533.6024096385543"/>
      <point x="369.22289156626505" y="503.3072289156627"/>
      <point x="325.80120481927713" y="454.00602409638554" type="curve" smooth="yes"/>
      <point x="274.68072289156623" y="398.30120481927713"/>
      <point x="257.7951807228916" y="362.89156626506025"/>
      <point x="257.7951807228916" y="324.3614457831325" type="curve" smooth="yes"/>
      <point x="257.7951807228916" y="258.48192771084337"/>
      <point x="296.5" y="221.6024096385542"/>
      <point x="403.2048192771084" y="195.1867469879518" type="curve" smooth="yes"/>
      <point x="485.8614457831325" y="174.24096385542168"/>
      <point x="511.16265060240966" y="156.0"/>
      <point x="511.16265060240966" y="121.57831325301206" type="curve" smooth="yes"/>
      <point x="511.16265060240966" y="77.7409638554217"/>
      <point x="472.1506024096385" y="52.14457831325301"/>
      <point x="399.42771084337346" y="52.14457831325301" type="curve" smooth="yes"/>
      <point x="345.2530120481928" y="52.14457831325301"/>
      <point x="288.60843373493975" y="67.90963855421687"/>
      <point x="241.60843373493975" y="102.56024096385542" type="curve"/>
      <point x="216.2048192771084" y="47.18072289156626" type="line"/>
      <point x="259.0240963855422" y="12.355421686746988"/>
      <point x="329.90361445783134" y="-8.939759036144578"/>
    </contour>
  </outline>
</glyph>
<glyph name="ae" format="2">
  <advance width="860.7590361445783"/>
  <unicode hex="00E6"/>
  <anchor x="415.5301204819277" y="0.0" name="bottom"/>
  <anchor x="415.5301204819277" y="484.0" name="top"/>
  <outline>
    <contour>
      <point x="233.644578313253" y="-8.939759036144578" type="curve" smooth="yes"/>
      <point x="333.4698795180723" y="-8.939759036144578"/>
      <point x="403.5301204819277" y="44.36144578313253"/>
      <point x="421.5843373493976" y="129.78313253012047" type="curve"/>
      <point x="402.355421686747" y="129.78313253012047" type="line"/>
      <point x="431.87951807228916" y="40.42168674698795"/>
      <point x="514.6385542168674" y="-8.939759036144578"/>
      <point x="629.933734939759" y="-8.939759036144578" type="curve" smooth="yes"/>
      <point x="692.2289156626506" y="-8.939759036144578"/>
      <point x="764.0481927710844" y="12.8855421686747"/>
      <point x="809.6927710843374" y="50.06626506024096" type="curve"/>
      <point x="783.5240963855422" y="106.09036144578313" type="line"/>
      <point x="734.4036144578314" y="69.78915662650603"/>
      <point x="682.7590361445783" y="54.493975903614455"/>
      <point x="629.7530120481928" y="54.493975903614455" type="curve" smooth="yes"/>
      <point x="519.3855421686748" y="54.493975903614455"/>
      <point x="460.2590361445783" y="112.6867469879518"/>
      <point x="460.2590361445783" y="219.58433734939757" type="curve" smooth="yes"/>
      <point x="460.2590361445783" y="227.69879518072287" type="line" smooth="yes"/>
      <point x="460.2590361445783" y="324.1867469879518"/>
      <point x="516.5662650602409" y="387.84939759036143"/>
      <point x="612.7650602409639" y="387.84939759036143" type="curve" smooth="yes"/>
      <point x="702.1385542168674" y="387.84939759036143"/>
      <point x="749.7951807228916" y="333.0120481927711"/>
      <point x="749.7951807228916" y="240.75903614457832" type="curve"/>
      <point x="765.5602409638554" y="253.57831325301206" type="line"/>
      <point x="449.37951807228916" y="253.57831325301206" type="line"/>
      <point x="449.37951807228916" y="202.77710843373495" type="line"/>
      <point x="819.3373493975904" y="202.77710843373495" type="line"/>
      <point x="819.3373493975904" y="227.24096385542168" type="line" smooth="yes"/>
      <point x="819.3373493975904" y="363.2951807228916"/>
      <point x="740.2289156626506" y="445.28915662650604"/>
      <point x="612.6506024096385" y="445.28915662650604" type="curve" smooth="yes"/>
      <point x="530.4578313253012" y="445.28915662650604"/>
      <point x="457.40361445783134" y="407.4578313253012"/>
      <point x="421.933734939759" y="339.0903614457831" type="curve"/>
      <point x="442.1626506024096" y="339.0903614457831" type="line"/>
      <point x="421.99397590361446" y="407.3975903614458"/>
      <point x="370.06024096385545" y="445.28915662650604"/>
      <point x="273.28915662650604" y="445.28915662650604" type="curve" smooth="yes"/>
      <point x="203.93975903614458" y="445.28915662650604"/>
      <point x="125.77710843373494" y="424.05421686746985"/>
      <point x="74.5421686746988" y="388.2289156626506" type="curve"/>
      <point x="100.41566265060241" y="331.6746987951807" type="line"/>
      <point x="157.18072289156626" y="367.79518072289153"/>
      <point x="210.4698795180723" y="382.5602409638554"/>
      <point x="270.35542168674704" y="382.5602409638554" type="curve" smooth="yes"/>
      <point x="347.36746987951807" y="382.5602409638554"/>
      <point x="380.8433734939759" y="347.1385542168675"/>
      <point x="380.8433734939759" y="274.5301204819277" type="curve" smooth="yes"/>
      <point x="380.8433734939759" y="184.8855421686747" type="line" smooth="yes"/>
      <point x="380.8433734939759" y="108.10240963855422"/>
      <point x="325.1265060240964" y="50.43975903614458"/>
      <point x="242.51807228915663" y="50.43975903614458" type="curve" smooth="yes"/>
      <point x="175.09036144578315" y="50.43975903614458"/>
      <point x="135.60843373493975" y="83.03614457831326"/>
      <point x="135.60843373493975" y="132.1686746987952" type="curve" smooth="yes"/>
      <point x="135.60843373493975" y="184.5963855421687"/>
      <point x="175.43975903614458" y="203.24698795180723"/>
      <point x="330.66265060240966" y="203.24698795180723" type="curve" smooth="yes"/>
      <point x="393.01807228915663" y="203.24698795180723" type="line"/>
      <point x="393.01807228915663" y="254.04819277108436" type="line"/>
      <point x="330.0120481927711" y="254.04819277108436" type="line" smooth="yes"/>
      <point x="121.30120481927712" y="254.04819277108436"/>
      <point x="54.13253012048193" y="220.16867469879517"/>
      <point x="54.13253012048193" y="127.46385542168676" type="curve" smooth="yes"/>
      <point x="54.13253012048193" y="50.93975903614458"/>
      <point x="127.48192771084338" y="-8.939759036144578"/>
    </contour>
  </outline>
</glyph>
<glyph name="eth" format="2">
  <advance width="559.3253012048193"/>
  <unicode hex="00F0"/>
  <outline>
    <contour>
      <point x="274.8734939759036" y="-8.939759036144578" type="curve" smooth="yes"/>
      <point x="427.32530120481925" y="-8.939759036144578"/>
      <point x="513.843373493976" y="85.51807228915663"/>
      <point x="513.843373493976" y="270.51807228915663" type="curve" smooth="yes"/>
      <point x="513.843373493976" y="421.8975903614458"/>
      <point x="465.0783132530121" y="537.3734939759036"/>
      <point x="365.066265060241" y="617.1385542168674" type="curve"/>
      <point x="363.8313253012048" y="606.7289156626506" type="line"/>
      <point x="468.13253012048193" y="660.8493975903615" type="line"/>
      <point x="441.73493975903614" y="711.3493975903615" type="line"/>
      <point x="310.27710843373495" y="643.1204819277108" type="line"/>
      <point x="330.5" y="641.9457831325301" type="line"/>
      <point x="287.210843373494" y="669.5903614457832"/>
      <point x="230.22289156626505" y="695.3493975903615"/>
      <point x="159.83132530120483" y="712.3493975903615" type="curve"/>
      <point x="142.66265060240963" y="656.7951807228916" type="line"/>
      <point x="191.54216867469881" y="643.9698795180723"/>
      <point x="233.65662650602408" y="626.5"/>
      <point x="264.01807228915663" y="608.9638554216867" type="curve"/>
      <point x="263.078313253012" y="619.3734939759036" type="line"/>
      <point x="125.07228915662651" y="545.722891566265" type="line"/>
      <point x="150.70481927710844" y="495.2228915662651" type="line"/>
      <point x="319.1686746987952" y="584.1024096385543" type="line"/>
      <point x="303.51807228915663" y="583.277108433735" type="line"/>
      <point x="388.01807228915663" y="521.8493975903615"/>
      <point x="437.36746987951807" y="422.83132530120486"/>
      <point x="436.8975903614458" y="283.0421686746988" type="curve"/>
      <point x="461.71084337349396" y="283.0421686746988" type="line"/>
      <point x="438.6506024096385" y="382.1024096385542"/>
      <point x="365.4216867469879" y="423.93975903614455"/>
      <point x="271.4096385542169" y="423.93975903614455" type="curve" smooth="yes"/>
      <point x="138.12048192771084" y="423.93975903614455"/>
      <point x="46.18674698795181" y="338.76506024096386"/>
      <point x="46.18674698795181" y="208.23493975903617" type="curve" smooth="yes"/>
      <point x="46.18674698795181" y="77.23493975903615"/>
      <point x="138.2951807228916" y="-8.939759036144578"/>
    </contour>
    <contour>
      <point x="277.6927710843374" y="56.13855421686747" type="curve" smooth="yes"/>
      <point x="184.02409638554218" y="56.13855421686747"/>
      <point x="127.48192771084338" y="112.68072289156628"/>
      <point x="127.48192771084338" y="208.4698795180723" type="curve" smooth="yes"/>
      <point x="127.48192771084338" y="302.0240963855422"/>
      <point x="184.78915662650604" y="359.33132530120486"/>
      <point x="277.6927710843373" y="359.33132530120486" type="curve" smooth="yes"/>
      <point x="372.066265060241" y="359.33132530120486"/>
      <point x="428.1385542168675" y="302.0240963855422"/>
      <point x="428.1385542168675" y="208.4698795180723" type="curve" smooth="yes"/>
      <point x="428.1385542168675" y="114.21084337349399"/>
      <point x="371.30120481927713" y="56.13855421686747"/>
    </contour>
  </outline>
</glyph>
<glyph name="divide" format="2">
  <advance width="600.0"/>
  <unicode hex="00F7"/>
  <outline>
    <contour>
      <point x="56.0" y="255.72289156626505" type="line"/>
      <point x="544.0" y="255.72289156626505" type="line"/>
      <point x="544.0" y="317.7469879518072" type="line"/>
      <point x="56.0" y="317.7469879518072" type="line"/>
    </contour>
    <contour>
      <point x="251.0120481927711" y="44.89156626506024" type="line"/>
      <point x="336.9879518072289" y="44.89156626506024" type="line"/>
      <point x="336.9879518072289" y="130.86746987951807" type="line"/>
      <point x="251.0120481927711" y="130.86746987951807" type="line"/>
    </contour>
    <contour>
      <point x="251.0120481927711" y="442.6024096385542" type="line"/>
      <point x="336.9879518072289" y="442.6024096385542" type="line"/>
      <point x="336.9879518072289" y="528.5783132530121" type="line"/>
      <point x="251.0120481927711" y="528.5783132530121" type="line"/>
    </contour>
  </outline>
</glyph>
<glyph name="dcroat" format="2">
  <advance width="583.0361445783133"/>
  <unicode hex="0111"/>
  <outline>
    <contour>
      <point x="260.4819277108434" y="-8.939759036144578" type="curve" smooth="yes"/>
      <point x="349.01807228915663" y="-8.939759036144578"/>
      <point x="416.3132530120482" y="36.71084337349398"/>
      <point x="437.078313253012" y="102.77710843373494" type="curve"/>
      <point x="428.3734939759036" y="102.77710843373494" type="line"/>
      <point x="428.3734939759036" y="0.0" type="line"/>
      <point x="507.90361445783134" y="0.0" type="line"/>
      <point x="507.90361445783134" y="523.5421686746988" type="line"/>
      <point x="599.144578313253" y="523.5421686746988" type="line"/>
      <point x="599.144578313253" y="583.9759036144578" type="line"/>
      <point x="507.90361445783134" y="583.9759036144578" type="line"/>
      <point x="507.90361445783134" y="705.0" type="line"/>
      <point x="426.90361445783134" y="705.0" type="line"/>
      <point x="426.90361445783134" y="583.9759036144578" type="line"/>
      <point x="214.83734939759034" y="583.9759036144578" type="line"/>
      <point x="214.83734939759034" y="523.5421686746988" type="line"/>
      <point x="426.90361445783134" y="523.5421686746988" type="line"/>
      <point x="426.90361445783134" y="339.03614457831327" type="line"/>
      <point x="436.60843373493975" y="339.03614457831327" type="line"/>
      <point x="415.1385542168675" y="403.6927710843374"/>
      <point x="348.54819277108436" y="447.6385542168675"/>
      <point x="260.4819277108434" y="447.6385542168675" type="curve" smooth="yes"/>
      <point x="132.5963855421687" y="447.6385542168675"/>
      <point x="46.6566265060241" y="360.93373493975906"/>
      <point x="46.6566265060241" y="219.58433734939757" type="curve" smooth="yes"/>
      <point x="46.6566265060241" y="79.23493975903614"/>
      <point x="133.5963855421687" y="-8.939759036144578"/>
    </contour>
    <contour>
      <point x="278.3975903614458" y="55.903614457831324" type="curve" smooth="yes"/>
      <point x="186.25903614457832" y="55.903614457831324"/>
      <point x="127.95180722891565" y="116.03614457831326"/>
      <point x="127.95180722891565" y="219.58433734939757" type="curve" smooth="yes"/>
      <point x="127.95180722891565" y="323.8975903614458"/>
      <point x="186.25903614457832" y="383.0301204819277"/>
      <point x="278.3975903614458" y="383.0301204819277" type="curve" smooth="yes"/>
      <point x="370.8313253012048" y="383.0301204819277"/>
      <point x="428.8433734939759" y="323.8975903614458"/>
      <point x="428.8433734939759" y="219.58433734939757" type="curve" smooth="yes"/>
      <point x="428.8433734939759" y="116.03614457831326"/>
      <point x="370.8313253012048" y="55.903614457831324"/>
    </contour>
  </outline>
</glyph>
<glyph name="hbar" format="2">
  <advance width="568.0361445783133"/>
  <unicode hex="0127"/>
  <outline>
    <contour>
      <point x="75.60240963855422" y="0.0" type="line"/>
      <point x="156.6024096385542" y="0.0" type="line"/>
      <point x="156.6024096385542" y="234.7048192771084" type="line" smooth="yes"/>
      <point x="156.6024096385542" y="323.078313253012"/>
      <point x="214.5" y="381.1506024096385"/>
      <point x="303.10843373493975" y="381.1506024096385" type="curve" smooth="yes"/>
      <point x="379.54216867469876" y="381.1506024096385"/>
      <point x="413.90361445783134" y="343.49397590361446"/>
      <point x="413.90361445783134" y="255.94578313253012" type="curve" smooth="yes"/>
      <point x="413.90361445783134" y="0.0" type="line"/>
      <point x="494.90361445783134" y="0.0" type="line"/>
      <point x="494.90361445783134" y="261.06024096385545" type="line" smooth="yes"/>
      <point x="494.90361445783134" y="386.5240963855422"/>
      <point x="437.8433734939759" y="447.6385542168675"/>
      <point x="321.90361445783134" y="447.6385542168675" type="curve" smooth="yes"/>
      <point x="238.72289156626505" y="447.6385542168675"/>
      <point x="172.0722891566265" y="406.9879518072289"/>
      <point x="144.66265060240963" y="335.1566265060241" type="curve"/>
      <point x="156.6024096385542" y="335.1566265060241" type="line"/>
      <point x="156.6024096385542" y="523.5421686746988" type="line"/>
      <point x="349.8433734939759" y="523.5421686746988" type="line"/>
      <point x="349.8433734939759" y="583.9759036144578" type="line"/>
      <point x="156.6024096385542" y="583.9759036144578" type="line"/>
      <point x="156.6024096385542" y="705.0" type="line"/>
      <point x="75.60240963855422" y="705.0" type="line"/>
      <point x="75.60240963855422" y="583.9759036144578" type="line"/>
      <point x="-15.638554216867469" y="583.9759036144578" type="line"/>
      <point x="-15.638554216867469" y="523.5421686746988" type="line"/>
      <point x="75.60240963855422" y="523.5421686746988" type="line"/>
    </contour>
  </outline>
</glyph>
<glyph name="kgreenlandic" format="2">
  <advance width="499.95180722891564"/>
  <unicode hex="0138"/>
  <anchor x="249.97590361445782" y="0.0" name="bottom"/>
  <anchor x="249.97590361445782" y="484.0" name="top"/>
  <outline>
    <contour>
      <point x="75.60240963855422" y="0.0" type="line"/>
      <point x="156.6024096385542" y="0.0" type="line"/>
      <point x="156.6024096385542" y="205.24698795180723" type="line"/>
      <point x="158.6024096385542" y="205.24698795180723" type="line"/>
      <point x="401.00602409638554" y="0.0" type="line"/>
      <point x="505.9397590361446" y="0.0" type="line"/>
      <point x="224.54819277108436" y="245.16867469879517" type="line"/>
      <point x="224.54819277108436" y="206.35542168674698" type="line"/>
      <point x="484.2831325301205" y="436.34939759036143" type="line"/>
      <point x="381.28915662650604" y="436.34939759036143" type="line"/>
      <point x="158.6024096385542" y="241.9277108433735" type="line"/>
      <point x="156.6024096385542" y="241.9277108433735" type="line"/>
      <point x="156.6024096385542" y="436.34939759036143" type="line"/>
      <point x="75.60240963855422" y="436.34939759036143" type="line"/>
    </contour>
  </outline>
</glyph>
<glyph name="Eng" format="2">
  <advance width="739.5180722891566"/>
  <unicode hex="014A"/>
  <anchor x="369.7590361445783" y="0.0" name="bottom"/>
  <anchor x="369.7590361445783" y="705.0" name="top"/>
  <outline>
    <contour>
      <point x="442.0722891566265" y="-193.0" type="line"/>
      <point x="485.5421686746988" y="-190.0" type="line" smooth="yes"/>
      <point x="599.0361445783133" y="-182.12048192771084"/>
      <point x="652.4457831325301" y="-123.06024096385542"/>
      <point x="652.4457831325301" y="-6.903614457831324" type="curve" smooth="yes"/>
      <point x="652.4457831325301" y="705.0" type="line"/>
      <point x="575.855421686747" y="705.0" type="line"/>
      <point x="575.855421686747" y="106.37349397590361" type="line"/>
      <point x="599.7349397590361" y="106.37349397590361" type="line"/>
      <point x="150.73493975903614" y="705.0" type="line"/>
      <point x="87.07228915662651" y="705.0" type="line"/>
      <point x="87.07228915662651" y="0.0" type="line"/>
      <point x="163.66265060240963" y="0.0" type="line"/>
      <point x="163.66265060240963" y="599.0963855421687" type="line"/>
      <point x="140.7831325301205" y="599.0963855421687" type="line"/>
      <point x="589.7831325301205" y="0.0" type="line"/>
      <point x="575.855421686747" y="37.21686746987952" type="line"/>
      <point x="575.855421686747" y="-14.951807228915662" type="line" smooth="yes"/>
      <point x="575.855421686747" y="-83.67469879518072"/>
      <point x="543.0240963855422" y="-120.6867469879518"/>
      <point x="481.0120481927711" y="-126.1566265060241" type="curve" smooth="yes"/>
      <point x="436.72289156626505" y="-130.09638554216866" type="line"/>
    </contour>
  </outline>
</glyph>
<glyph name="eng" format="2">
  <advance width="568.0361445783133"/>
  <unicode hex="014B"/>
  <outline>
    <contour>
      <point x="284.5301204819277" y="-193.0" type="line"/>
      <point x="328.0" y="-190.0" type="line" smooth="yes"/>
      <point x="441.49397590361446" y="-182.12048192771084"/>
      <point x="494.90361445783134" y="-123.06024096385542"/>
      <point x="494.90361445783134" y="-6.903614457831324" type="curve" smooth="yes"/>
      <point x="494.90361445783134" y="258.710843373494" type="line" smooth="yes"/>
      <point x="494.90361445783134" y="384.93975903614455"/>
      <point x="437.8433734939759" y="445.28915662650604"/>
      <point x="321.90361445783134" y="445.28915662650604" type="curve" smooth="yes"/>
      <point x="238.72289156626505" y="445.28915662650604"/>
      <point x="172.0722891566265" y="404.6385542168675"/>
      <point x="144.66265060240963" y="332.8072289156627" type="curve"/>
      <point x="154.4277108433735" y="332.8072289156627" type="line"/>
      <point x="154.4277108433735" y="436.34939759036143" type="line"/>
      <point x="75.60240963855422" y="436.34939759036143" type="line"/>
      <point x="75.60240963855422" y="0.0" type="line"/>
      <point x="156.6024096385542" y="0.0" type="line"/>
      <point x="156.6024096385542" y="232.35542168674698" type="line" smooth="yes"/>
      <point x="156.6024096385542" y="320.7289156626506"/>
      <point x="214.5" y="378.8012048192771"/>
      <point x="303.10843373493975" y="378.8012048192771" type="curve" smooth="yes"/>
      <point x="379.54216867469876" y="378.8012048192771"/>
      <point x="413.90361445783134" y="341.144578313253"/>
      <point x="413.90361445783134" y="253.59638554216866" type="curve" smooth="yes"/>
      <point x="413.90361445783134" y="-14.951807228915662" type="line" smooth="yes"/>
      <point x="413.90361445783134" y="-83.67469879518072"/>
      <point x="382.5421686746988" y="-120.6867469879518"/>
      <point x="322.06024096385545" y="-126.1566265060241" type="curve" smooth="yes"/>
      <point x="279.1807228915663" y="-130.09638554216866" type="line"/>
    </contour>
  </outline>
</glyph>
<glyph name="oe" format="2">
  <advance width="909.7590361445783"/>
  <unicode hex="0153"/>
  <anchor x="468.2289156626506" y="0.0" name="bottom"/>
  <anchor x="468.2289156626506" y="484.0" name="top"/>
  <outline>
    <contour>
      <point x="276.9879518072289" y="-8.939759036144578" type="curve" smooth="yes"/>
      <point x="376.69879518072287" y="-8.939759036144578"/>
      <point x="448.87951807228916" y="40.24698795180723"/>
      <point x="479.2831325301205" y="121.73493975903615" type="curve"/>
      <point x="457.0542168674699" y="121.73493975903615" type="line"/>
      <point x="486.3433734939759" y="38.95180722891566"/>
      <point x="567.1626506024097" y="-8.939759036144578"/>
      <point x="678.1686746987951" y="-8.939759036144578" type="curve" smooth="yes"/>
      <point x="745.0542168674699" y="-8.939759036144578"/>
      <point x="815.8734939759037" y="13.650602409638555"/>
      <point x="858.6927710843374" y="49.3012048192771" type="curve"/>
      <point x="832.5240963855422" y="106.09036144578313" type="line"/>
      <point x="783.4036144578314" y="69.78915662650603"/>
      <point x="731.9939759036145" y="54.493975903614455"/>
      <point x="677.1084337349397" y="54.493975903614455" type="curve" smooth="yes"/>
      <point x="564.3915662650603" y="54.493975903614455"/>
      <point x="508.78915662650604" y="115.03614457831326"/>
      <point x="508.78915662650604" y="218.75903614457832" type="curve" smooth="yes"/>
      <point x="508.78915662650604" y="226.8734939759036" type="line" smooth="yes"/>
      <point x="508.78915662650604" y="323.65060240963857"/>
      <point x="563.9759036144578" y="387.84939759036143"/>
      <point x="661.5301204819277" y="387.84939759036143" type="curve" smooth="yes"/>
      <point x="750.6686746987951" y="387.84939759036143"/>
      <point x="798.5602409638554" y="333.0120481927711"/>
      <point x="798.5602409638554" y="239.46385542168673" type="curve"/>
      <point x="815.9698795180723" y="251.04819277108433" type="line"/>
      <point x="491.2590361445783" y="251.04819277108433" type="line"/>
      <point x="491.2590361445783" y="200.24698795180723" type="line"/>
      <point x="868.3373493975904" y="200.24698795180723" type="line"/>
      <point x="868.3373493975904" y="227.24096385542168" type="line" smooth="yes"/>
      <point x="868.3373493975904" y="362.82530120481925"/>
      <point x="788.9939759036145" y="445.28915662650604"/>
      <point x="661.6506024096385" y="445.28915662650604" type="curve" smooth="yes"/>
      <point x="564.4638554216867" y="445.28915662650604"/>
      <point x="489.578313253012" y="394.51807228915663"/>
      <point x="459.46385542168673" y="315.9638554216868" type="curve"/>
      <point x="479.5783132530121" y="315.9638554216868" type="line"/>
      <point x="449.17469879518075" y="397.51204819277103"/>
      <point x="377.2289156626506" y="445.28915662650604"/>
      <point x="276.9879518072289" y="445.28915662650604" type="curve" smooth="yes"/>
      <point x="137.82530120481928" y="445.28915662650604"/>
      <point x="46.18674698795181" y="357.58433734939763"/>
      <point x="46.18674698795181" y="218.64457831325302" type="curve" smooth="yes"/>
      <point x="46.18674698795181" y="79.46987951807229"/>
      <point x="137.82530120481928" y="-8.939759036144578"/>
    </contour>
    <contour>
      <point x="277.9277108433735" y="55.903614457831324" type="curve" smooth="yes"/>
      <point x="185.49397590361448" y="55.903614457831324"/>
      <point x="127.48192771084338" y="115.50602409638554"/>
      <point x="127.48192771084338" y="218.40963855421685" type="curve" smooth="yes"/>
      <point x="127.48192771084338" y="321.3132530120482"/>
      <point x="185.02409638554218" y="380.68072289156623"/>
      <point x="277.9277108433735" y="380.68072289156623" type="curve" smooth="yes"/>
      <point x="370.3614457831325" y="380.68072289156623"/>
      <point x="428.3734939759036" y="321.3132530120482"/>
      <point x="428.3734939759036" y="218.40963855421685" type="curve" smooth="yes"/>
      <point x="428.3734939759036" y="115.50602409638554"/>
      <point x="370.8313253012048" y="55.903614457831324"/>
    </contour>
  </outline>
</glyph>
<glyph name="yhook" format="2">
  <advance width="551.3855421686746"/>
  <unicode hex="01B4"/>
  <outline>
    <contour>
      <point x="378.144578313253" y="344.3072289156627" type="curve" smooth="yes"/>
      <point x="246.93373493975903" y="60.64457831325302" type="line"/>
      <point x="269.9879518072289" y="60.64457831325302" type="line"/>
      <point x="97.78313253012048" y="436.34939759036143" type="line"/>
      <point x="10.548192771084336" y="436.34939759036143" type="line"/>
      <point x="224.1325301204819" y="-8.650602409638555" type="line"/>
      <point x="224.1325301204819" y="25.44578313253012" type="line"/>
      <point x="122.56024096385542" y="-180.0" type="line"/>
      <point x="206.09036144578315" y="-180.0" type="line"/>
      <point x="439.04216867469876" y="302.26506024096386" type="line" smooth="yes"/>
      <point x="465.92771084337346" y="358.3313253012048"/>
      <point x="489.2771084337349" y="379.09638554216866"/>
      <point x="530.9277108433735" y="379.09638554216866" type="curve" smooth="yes"/>
      <point x="542.8674698795181" y="379.09638554216866"/>
      <point x="556.9277108433735" y="377.56626506024094"/>
      <point x="568.8674698795181" y="373.09638554216866" type="curve"/>
      <point x="580.0963855421687" y="436.4096385542169" type="line"/>
      <point x="564.0963855421687" y="442.34939759036143"/>
      <point x="544.5783132530121" y="445.28915662650604"/>
      <point x="520.7590361445783" y="445.28915662650604" type="curve" smooth="yes"/>
      <point x="446.95783132530124" y="445.28915662650604"/>
      <point x="409.78915662650604" y="409.83132530120486"/>
    </contour>
  </outline>
</glyph>
<glyph name="gstroke" format="2">
  <advance width="585.9759036144578"/>
  <unicode hex="01E5"/>
  <outline>
    <contour>
      <point x="290.4096385542169" y="-188.93975903614458" type="curve" smooth="yes"/>
      <point x="403.57228915662654" y="-188.93975903614458"/>
      <point x="473.0903614457831" y="-143.46987951807228"/>
      <point x="499.78915662650604" y="-53.18072289156626" type="curve"/>
      <point x="484.4397590361446" y="-60.18072289156626" type="line"/>
      <point x="577.3253012048193" y="-60.18072289156626" type="line"/>
      <point x="577.3253012048193" y="-5.620481927710843" type="line"/>
      <point x="500.2590361445783" y="-5.620481927710843" type="line"/>
      <point x="505.90361445783134" y="-27.77710843373494" type="line"/>
      <point x="508.90361445783134" y="-10.542168674698795"/>
      <point x="510.3734939759036" y="12.397590361445783"/>
      <point x="510.3734939759036" y="34.68674698795181" type="curve" smooth="yes"/>
      <point x="510.3734939759036" y="436.34939759036143" type="line"/>
      <point x="431.7831325301205" y="436.34939759036143" type="line"/>
      <point x="431.7831325301205" y="338.8072289156626" type="line"/>
      <point x="438.60843373493975" y="337.86746987951807" type="line"/>
      <point x="417.0783132530121" y="403.2289156626506"/>
      <point x="350.8433734939759" y="445.28915662650604"/>
      <point x="262.71686746987956" y="445.28915662650604" type="curve" smooth="yes"/>
      <point x="134.1867469879518" y="445.28915662650604"/>
      <point x="46.18674698795181" y="360.70481927710847"/>
      <point x="46.18674698795181" y="239.2289156626506" type="curve" smooth="yes"/>
      <point x="46.18674698795181" y="117.22289156626506"/>
      <point x="134.1867469879518" y="31.63855421686747"/>
      <point x="262.71686746987956" y="31.63855421686747" type="curve" smooth="yes"/>
      <point x="351.078313253012" y="31.63855421686747"/>
      <point x="417.7831325301205" y="74.2289156626506"/>
      <point x="438.8433734939759" y="140.12048192771084" type="curve"/>
      <point x="431.3132530120482" y="140.12048192771084" type="line"/>
      <point x="431.3132530120482" y="23.457831325301207" type="line" smooth="yes"/>
      <point x="431.3132530120482" y="6.867469879518073"/>
      <point x="430.54819277108436" y="-6.078313253012047"/>
      <point x="427.54819277108436" y="-19.903614457831324" type="curve"/>
      <point x="434.42771084337346" y="-5.620481927710843" type="line"/>
      <point x="303.1927710843373" y="-5.620481927710843" type="line"/>
      <point x="303.1927710843373" y="-60.18072289156626" type="line"/>
      <point x="420.9759036144578" y="-60.18072289156626" type="line"/>
      <point x="415.67469879518075" y="-52.65060240963855" type="line"/>
      <point x="395.26506024096386" y="-99.6144578313253"/>
      <point x="351.6686746987952" y="-123.86144578313254"/>
      <point x="286.4759036144578" y="-123.86144578313254" type="curve" smooth="yes"/>
      <point x="215.40963855421685" y="-123.86144578313254"/>
      <point x="158.71686746987953" y="-106.86144578313252"/>
      <point x="99.47590361445782" y="-65.96987951807229" type="curve"/>
      <point x="72.89759036144578" y="-123.46385542168674" type="line"/>
      <point x="132.1867469879518" y="-167.58433734939757"/>
      <point x="206.35542168674698" y="-188.93975903614458"/>
    </contour>
    <contour>
      <point x="279.3975903614458" y="95.5421686746988" type="curve" smooth="yes"/>
      <point x="185.96385542168676" y="95.5421686746988"/>
      <point x="127.48192771084338" y="152.25903614457832"/>
      <point x="127.48192771084338" y="238.69879518072287" type="curve" smooth="yes"/>
      <point x="127.48192771084338" y="325.60843373493975"/>
      <point x="185.7289156626506" y="382.0903614457831"/>
      <point x="279.3975903614458" y="382.0903614457831" type="curve" smooth="yes"/>
      <point x="373.59638554216866" y="382.0903614457831"/>
      <point x="431.078313253012" y="325.3734939759036"/>
      <point x="431.078313253012" y="239.46385542168673" type="curve" smooth="yes"/>
      <point x="431.078313253012" y="153.02409638554218"/>
      <point x="373.3614457831325" y="95.5421686746988"/>
    </contour>
  </outline>
</glyph>
<glyph name="jdotless" format="2">
  <advance width="235.67469879518072"/>
  <unicode hex="0237"/>
  <anchor x="119.33734939759036" y="0.0" name="bottom"/>
  <anchor x="119.33734939759036" y="484.0" name="top"/>
  <outline>
    <contour>
      <point x="-50.30120481927711" y="-193.0" type="line"/>
      <point x="-7.301204819277109" y="-190.0" type="line" smooth="yes"/>
      <point x="106.66265060240964" y="-182.12048192771084"/>
      <point x="160.0722891566265" y="-123.06024096385542"/>
      <point x="160.0722891566265" y="-6.903614457831324" type="curve" smooth="yes"/>
      <point x="160.0722891566265" y="436.34939759036143" type="line"/>
      <point x="79.07228915662651" y="436.34939759036143" type="line"/>
      <point x="79.07228915662651" y="-14.951807228915662" type="line" smooth="yes"/>
      <point x="79.07228915662651" y="-83.67469879518072"/>
      <point x="47.71084337349397" y="-120.6867469879518"/>
      <point x="-12.771084337349397" y="-126.1566265060241" type="curve" smooth="yes"/>
      <point x="-56.12048192771084" y="-130.09638554216866" type="line"/>
    </contour>
  </outline>
</glyph>
<glyph name="bhook" format="2">
  <advance width="583.0361445783133"/>
  <unicode hex="0253"/>
  <outline>
    <contour>
      <point x="323.2590361445783" y="-8.939759036144578" type="curve" smooth="yes"/>
      <point x="450.67469879518075" y="-8.939759036144578"/>
      <point x="537.0843373493976" y="79.46987951807229"/>
      <point x="537.0843373493976" y="218.40963855421685" type="curve" smooth="yes"/>
      <point x="537.0843373493976" y="358.1144578313253"/>
      <point x="450.9096385542169" y="445.28915662650604"/>
      <point x="323.2590361445783" y="445.28915662650604" type="curve" smooth="yes"/>
      <point x="235.95783132530119" y="445.28915662650604"/>
      <point x="168.89759036144576" y="401.5783132530121"/>
      <point x="147.66265060240966" y="336.921686746988" type="curve"/>
      <point x="156.6024096385542" y="336.921686746988" type="line"/>
      <point x="156.6024096385542" y="544.855421686747" type="line" smooth="yes"/>
      <point x="156.6024096385542" y="610.6265060240964"/>
      <point x="187.7831325301205" y="647.277108433735"/>
      <point x="249.67469879518072" y="647.277108433735" type="curve" smooth="yes"/>
      <point x="263.144578313253" y="647.277108433735"/>
      <point x="271.6144578313253" y="646.277108433735"/>
      <point x="289.144578313253" y="641.7469879518072" type="curve"/>
      <point x="298.90361445783134" y="705.5301204819277" type="line"/>
      <point x="282.49397590361446" y="711.0"/>
      <point x="262.855421686747" y="713.9397590361446"/>
      <point x="243.44578313253012" y="713.9397590361446" type="curve" smooth="yes"/>
      <point x="133.12048192771084" y="713.9397590361446"/>
      <point x="75.60240963855422" y="651.6024096385543"/>
      <point x="75.60240963855422" y="544.2650602409639" type="curve" smooth="yes"/>
      <point x="75.60240963855422" y="0.0" type="line"/>
      <point x="154.9578313253012" y="0.0" type="line"/>
      <point x="154.9578313253012" y="102.30722891566265" type="line"/>
      <point x="146.95783132530119" y="102.30722891566265" type="line"/>
      <point x="167.95783132530119" y="36.71084337349398"/>
      <point x="235.01807228915663" y="-8.939759036144578"/>
    </contour>
    <contour>
      <point x="305.10843373493975" y="55.903614457831324" type="curve" smooth="yes"/>
      <point x="212.96987951807228" y="55.903614457831324"/>
      <point x="154.66265060240966" y="116.03614457831326"/>
      <point x="154.66265060240966" y="218.40963855421685" type="curve" smooth="yes"/>
      <point x="154.66265060240966" y="321.5481927710843"/>
      <point x="212.96987951807228" y="380.68072289156623"/>
      <point x="305.10843373493975" y="380.68072289156623" type="curve" smooth="yes"/>
      <point x="397.54216867469876" y="380.68072289156623"/>
      <point x="455.55421686746985" y="321.5481927710843"/>
      <point x="455.55421686746985" y="218.40963855421685" type="curve" smooth="yes"/>
      <point x="455.55421686746985" y="116.03614457831326"/>
      <point x="397.54216867469876" y="55.903614457831324"/>
    </contour>
  </outline>
</glyph>
<glyph name="dhook" format="2">
  <advance width="583.0361445783133"/>
  <unicode hex="0257"/>
  <outline>
    <contour>
      <point x="260.0120481927711" y="-8.939759036144578" type="curve" smooth="yes"/>
      <point x="348.54819277108436" y="-8.939759036144578"/>
      <point x="415.60843373493975" y="36.71084337349398"/>
      <point x="436.3734939759036" y="102.30722891566265" type="curve"/>
      <point x="428.8433734939759" y="102.30722891566265" type="line"/>
      <point x="428.8433734939759" y="0.0" type="line"/>
      <point x="507.43373493975906" y="0.0" type="line"/>
      <point x="507.43373493975906" y="544.855421686747" type="line" smooth="yes"/>
      <point x="507.43373493975906" y="613.4457831325301"/>
      <point x="540.9638554216867" y="647.277108433735"/>
      <point x="600.5060240963855" y="647.277108433735" type="curve" smooth="yes"/>
      <point x="613.9759036144578" y="647.277108433735"/>
      <point x="622.4457831325301" y="646.277108433735"/>
      <point x="639.9759036144578" y="641.7469879518072" type="curve"/>
      <point x="649.7349397590361" y="705.5301204819277" type="line"/>
      <point x="633.7951807228916" y="711.0"/>
      <point x="613.6867469879518" y="713.9397590361446"/>
      <point x="594.277108433735" y="713.9397590361446" type="curve" smooth="yes"/>
      <point x="483.95180722891564" y="713.9397590361446"/>
      <point x="426.43373493975906" y="651.6024096385543"/>
      <point x="426.43373493975906" y="544.2650602409639" type="curve" smooth="yes"/>
      <point x="426.43373493975906" y="336.921686746988" type="line"/>
      <point x="435.90361445783134" y="336.921686746988" type="line"/>
      <point x="414.43373493975906" y="401.5783132530121"/>
      <point x="348.0783132530121" y="445.28915662650604"/>
      <point x="260.0120481927711" y="445.28915662650604" type="curve" smooth="yes"/>
      <point x="132.1265060240964" y="445.28915662650604"/>
      <point x="46.18674698795181" y="358.1144578313253"/>
      <point x="46.18674698795181" y="218.40963855421685" type="curve" smooth="yes"/>
      <point x="46.18674698795181" y="79.46987951807229"/>
      <point x="133.1265060240964" y="-8.939759036144578"/>
    </contour>
    <contour>
      <point x="277.9277108433735" y="55.903614457831324" type="curve" smooth="yes"/>
      <point x="185.789156626506" y="55.903614457831324"/>
      <point x="127.48192771084338" y="116.03614457831326"/>
      <point x="127.48192771084338" y="218.40963855421685" type="curve" smooth="yes"/>
      <point x="127.48192771084338" y="321.5481927710843"/>
      <point x="185.789156626506" y="380.68072289156623"/>
      <point x="277.9277108433735" y="380.68072289156623" type="curve" smooth="yes"/>
      <point x="370.3614457831325" y="380.68072289156623"/>
      <point x="428.3734939759036" y="321.5481927710843"/>
      <point x="428.3734939759036" y="218.40963855421685" type="curve" smooth="yes"/>
      <point x="428.3734939759036" y="116.03614457831326"/>
      <point x="370.3614457831325" y="55.903614457831324"/>
    </contour>
  </outline>
</glyph>
<glyph name="schwa" format="2">
  <advance width="532.3975903614457"/>
  <unicode hex="0259"/>
  <outline>
    <contour>
      <point x="259.6385542168675" y="-8.939759036144578" type="curve" smooth="yes"/>
      <point x="395.1626506024096" y="-8.939759036144578"/>
      <point x="486.4457831325301" y="85.46987951807229"/>
      <point x="486.4457831325301" y="219.7048192771084" type="curve" smooth="yes"/>
      <point x="486.4457831325301" y="357.4096385542169"/>
      <point x="393.5120481927711" y="445.28915662650604"/>
      <point x="240.0" y="445.28915662650604" type="curve" smooth="yes"/>
      <point x="171.70481927710844" y="445.28915662650604"/>
      <point x="100.355421686747" y="424.1686746987952"/>
      <point x="52.30120481927711" y="388.51807228915663" type="curve"/>
      <point x="77.0" y="332.72891566265065" type="line"/>
      <point x="129.29518072289156" y="367.0301204819277"/>
      <point x="181.93975903614458" y="381.855421686747"/>
      <point x="240.355421686747" y="381.855421686747" type="curve" smooth="yes"/>
      <point x="349.8975903614458" y="381.855421686747"/>
      <point x="409.43975903614455" y="323.4879518072289"/>
      <point x="409.43975903614455" y="218.76506024096386" type="curve" smooth="yes"/>
      <point x="409.43975903614455" y="210.65060240963857" type="line" smooth="yes"/>
      <point x="409.43975903614455" y="110.63253012048193"/>
      <point x="351.8975903614458" y="49.265060240963855"/>
      <point x="259.69879518072287" y="49.265060240963855" type="curve" smooth="yes"/>
      <point x="162.79518072289156" y="49.265060240963855"/>
      <point x="113.90361445783132" y="101.63253012048193"/>
      <point x="113.90361445783132" y="199.8855421686747" type="curve"/>
      <point x="94.66867469879519" y="185.3012048192771" type="line"/>
      <point x="425.2048192771084" y="185.3012048192771" type="line"/>
      <point x="425.2048192771084" y="236.10240963855424" type="line"/>
      <point x="41.42168674698795" y="236.10240963855424" type="line"/>
      <point x="41.42168674698795" y="211.10843373493975" type="line" smooth="yes"/>
      <point x="41.42168674698795" y="71.17469879518072"/>
      <point x="122.59036144578313" y="-8.939759036144578"/>
    </contour>
  </outline>
</glyph>
<glyph name="commaturnedmod" format="2">
  <advance width="500.0"/>
  <unicode hex="02BB"/>
  <anchor x="250.0" y="484.0" name="_top"/>
  <anchor x="250.0" y="685.0" name="top"/>
  <outline>
    <contour>
      <point x="200.90361445783134" y="517.1807228915662" type="line"/>
      <point x="298.56626506024094" y="517.1807228915662" type="line"/>
      <point x="298.56626506024094" y="602.4518072289158" type="line"/>
      <point x="228.3012048192771" y="602.4518072289158" type="line"/>
      <point x="252.0" y="592.222891566265" type="line"/>
      <point x="252.0" y="627.8674698795181"/>
      <point x="257.4096385542169" y="655.8674698795181"/>
      <point x="289.1144578313253" y="689.5180722891566" type="curve"/>
      <point x="253.24698795180723" y="716.6265060240964" type="line"/>
      <point x="212.3132530120482" y="678.277108433735"/>
      <point x="200.90361445783134" y="632.9277108433735"/>
      <point x="200.90361445783134" y="581.7590361445783" type="curve" smooth="yes"/>
    </contour>
  </outline>
</glyph>
<glyph name="apostrophemod" format="2">
  <advance width="311.7469879518072"/>
  <unicode hex="02BC"/>
  <outline>
    <contour>
      <point x="154.1566265060241" y="521.2409638554217" type="line"/>
      <point x="195.09036144578312" y="559.5903614457832"/>
      <point x="206.5" y="604.4698795180723"/>
      <point x="206.5" y="656.8734939759037" type="curve" smooth="yes"/>
      <point x="206.5" y="720.2168674698795" type="line"/>
      <point x="108.83734939759036" y="720.2168674698795" type="line"/>
      <point x="108.83734939759036" y="634.9457831325301" type="line"/>
      <point x="179.1024096385542" y="634.9457831325301" type="line"/>
      <point x="155.40361445783134" y="645.1746987951807" type="line"/>
      <point x="155.40361445783134" y="610.2951807228916"/>
      <point x="149.99397590361446" y="581.5301204819277"/>
      <point x="118.28915662650601" y="548.644578313253" type="curve"/>
    </contour>
  </outline>
</glyph>
<glyph name="ringhalfleft" format="2">
  <advance width="500.0"/>
  <unicode hex="02BF"/>
  <anchor x="250.0" y="484.0" name="_top"/>
  <anchor x="250.0" y="685.0" name="top"/>
  <outline>
    <contour>
      <point x="250.0" y="504.1204819277109" type="curve"/>
      <point x="250.0" y="548.5180722891566" type="line"/>
      <point x="218.81927710843374" y="548.5180722891566"/>
      <point x="197.2289156626506" y="573.1686746987951"/>
      <point x="197.2289156626506" y="602.8192771084338" type="curve" smooth="yes"/>
      <point x="197.2289156626506" y="633.4698795180723"/>
      <point x="218.81927710843374" y="657.5903614457832"/>
      <point x="250.0" y="657.5903614457832" type="curve"/>
      <point x="250.0" y="702.5180722891566" type="line"/>
      <point x="192.12048192771084" y="702.5180722891566"/>
      <point x="148.7710843373494" y="658.6385542168674"/>
      <point x="148.7710843373494" y="602.8192771084338" type="curve" smooth="yes"/>
      <point x="148.7710843373494" y="547.0"/>
      <point x="192.12048192771084" y="504.1204819277109"/>
    </contour>
  </outline>
</glyph>
<glyph name="circumflexcomb" format="2">
  <unicode hex="0302"/>
  <anchor x="0.0" y="484.0" name="_top"/>
  <anchor x="0.0" y="685.0" name="top"/>
  <outline>
    <contour>
      <point x="-148.03614457831324" y="501.3493975903615" type="line"/>
      <point x="-91.89156626506023" y="501.3493975903615" type="line"/>
      <point x="0.0" y="670.2530120481928" type="line"/>
      <point x="91.89156626506023" y="501.3493975903615" type="line"/>
      <point x="148.03614457831324" y="501.3493975903615" type="line"/>
      <point x="38.566265060240966" y="723.5240963855422" type="line"/>
      <point x="-38.566265060240966" y="723.5240963855422" type="line"/>
    </contour>
  </outline>
</glyph>
<glyph name="tildecomb" format="2">
  <unicode hex="0303"/>
  <anchor x="0.0" y="484.0" name="_top"/>
  <anchor x="0.0" y="685.0" name="top"/>
  <outline>
    <contour>
      <point x="-134.12048192771084" y="534.8313253012049" type="line"/>
      <point x="-127.12048192771084" y="597.3674698795181"/>
      <point x="-105.355421686747" y="624.3734939759037"/>
      <point x="-71.82530120481928" y="624.3734939759037" type="curve" smooth="yes"/>
      <point x="-53.06024096385542" y="624.3734939759037"/>
      <point x="-38.295180722891565" y="613.3132530120482"/>
      <point x="-11.295180722891565" y="586.3674698795181" type="curve" smooth="yes"/>
      <point x="22.46987951807229" y="553.4216867469879"/>
      <point x="45.46987951807229" y="537.7710843373494"/>
      <point x="75.17469879518072" y="537.7710843373494" type="curve" smooth="yes"/>
      <point x="132.9277108433735" y="537.7710843373494"/>
      <point x="174.1566265060241" y="586.4096385542168"/>
      <point x="180.21686746987953" y="682.222891566265" type="curve"/>
      <point x="134.12048192771084" y="685.1626506024096" type="line"/>
      <point x="127.59036144578313" y="622.8012048192771"/>
      <point x="106.06024096385542" y="595.6204819277108"/>
      <point x="72.29518072289157" y="595.6204819277108" type="curve" smooth="yes"/>
      <point x="54.765060240963855" y="595.6204819277108"/>
      <point x="40.0" y="605.6807228915662"/>
      <point x="11.53012048192771" y="633.6265060240963" type="curve" smooth="yes"/>
      <point x="-20.295180722891565" y="664.6927710843373"/>
      <point x="-43.295180722891565" y="682.222891566265"/>
      <point x="-74.17469879518072" y="682.222891566265" type="curve" smooth="yes"/>
      <point x="-132.45783132530119" y="682.222891566265"/>
      <point x="-173.6867469879518" y="633.5843373493976"/>
      <point x="-180.21686746987953" y="537.7710843373494" type="curve"/>
    </contour>
  </outline>
</glyph>
<glyph name="brevecomb" format="2">
  <unicode hex="0306"/>
  <anchor x="0.0" y="484.0" name="_top"/>
  <anchor x="0.0" y="685.0" name="top"/>
  <outline>
    <contour>
      <point x="0.0" y="498.8795180722891" type="curve" smooth="yes"/>
      <point x="91.57831325301204" y="498.8795180722891"/>
      <point x="150.74698795180726" y="572.7590361445783"/>
      <point x="154.33734939759037" y="707.6987951807229" type="curve"/>
      <point x="103.48192771084338" y="713.1084337349398" type="line"/>
      <point x="100.01204819277109" y="607.0361445783133"/>
      <point x="62.83132530120482" y="553.6746987951807"/>
      <point x="0.0" y="553.6746987951807" type="curve" smooth="yes"/>
      <point x="-62.83132530120482" y="553.6746987951807"/>
      <point x="-100.01204819277109" y="607.0361445783133"/>
      <point x="-103.48192771084338" y="713.1084337349398" type="curve"/>
      <point x="-154.33734939759037" y="707.6987951807229" type="line"/>
      <point x="-150.27710843373495" y="572.7590361445783"/>
      <point x="-91.10843373493977" y="498.8795180722891"/>
    </contour>
  </outline>
</glyph>
<glyph name="hookabovecomb" format="2">
  <unicode hex="0309"/>
  <anchor x="0.0" y="484.0" name="_top"/>
  <anchor x="0.0" y="685.0" name="top"/>
  <outline>
    <contour>
      <point x="-27.397590361445783" y="501.3493975903615" type="line"/>
      <point x="27.397590361445783" y="501.3493975903615" type="line"/>
      <point x="27.397590361445783" y="519.289156626506" type="line" smooth="yes"/>
      <point x="27.397590361445783" y="581.7650602409639"/>
      <point x="101.33734939759036" y="586.1746987951807"/>
      <point x="101.33734939759036" y="655.644578313253" type="curve" smooth="yes"/>
      <point x="101.33734939759036" y="702.9939759036145"/>
      <point x="64.8132530120482" y="729.933734939759"/>
      <point x="3.879518072289157" y="729.933734939759" type="curve" smooth="yes"/>
      <point x="-33.2289156626506" y="729.933734939759"/>
      <point x="-64.45783132530121" y="722.2289156626506"/>
      <point x="-88.74698795180723" y="706.289156626506" type="curve"/>
      <point x="-74.04819277108433" y="662.7168674698795" type="line"/>
      <point x="-50.9277108433735" y="676.0120481927711"/>
      <point x="-31.867469879518072" y="680.0120481927711"/>
      <point x="-11.867469879518072" y="680.0120481927711" type="curve" smooth="yes"/>
      <point x="19.903614457831324" y="680.0120481927711"/>
      <point x="34.963855421686745" y="668.4216867469879"/>
      <point x="34.963855421686745" y="647.066265060241" type="curve" smooth="yes"/>
      <point x="34.963855421686745" y="603.0602409638554"/>
      <point x="-27.397590361445783" y="592.8855421686748"/>
      <point x="-27.397590361445783" y="524.289156626506" type="curve" smooth="yes"/>
    </contour>
  </outline>
</glyph>
<glyph name="ringcomb" format="2">
  <unicode hex="030A"/>
  <anchor x="0.0" y="484.0" name="_top"/>
  <anchor x="0.0" y="685.0" name="top"/>
  <outline>
    <contour>
      <point x="0.0" y="497.70481927710847" type="curve" smooth="yes"/>
      <point x="66.05421686746989" y="497.70481927710847"/>
      <point x="117.40361445783134" y="548.5843373493975"/>
      <point x="117.40361445783134" y="612.6385542168674" type="curve" smooth="yes"/>
      <point x="117.40361445783134" y="676.6927710843373"/>
      <point x="66.05421686746989" y="727.1024096385543"/>
      <point x="0.0" y="727.1024096385543" type="curve" smooth="yes"/>
      <point x="-66.05421686746989" y="727.1024096385543"/>
      <point x="-117.40361445783134" y="676.6927710843373"/>
      <point x="-117.40361445783134" y="612.6385542168674" type="curve" smooth="yes"/>
      <point x="-117.40361445783134" y="548.5843373493975"/>
      <point x="-66.05421686746989" y="497.70481927710847"/>
    </contour>
    <contour>
      <point x="0.0" y="540.277108433735" type="curve" smooth="yes"/>
      <point x="-41.7710843373494" y="540.277108433735"/>
      <point x="-71.89156626506023" y="571.4578313253012"/>
      <point x="-71.89156626506023" y="612.6385542168674" type="curve" smooth="yes"/>
      <point x="-71.89156626506023" y="653.3493975903615"/>
      <point x="-41.7710843373494" y="684.5301204819277"/>
      <point x="0.0" y="684.5301204819277" type="curve" smooth="yes"/>
      <point x="42.24096385542169" y="684.5301204819277"/>
      <point x="71.89156626506023" y="653.3493975903615"/>
      <point x="71.89156626506023" y="612.6385542168674" type="curve" smooth="yes"/>
      <point x="71.89156626506023" y="571.4578313253012"/>
      <point x="42.24096385542169" y="540.277108433735"/>
    </contour>
  </outline>
</glyph>
<glyph name="hungarumlautcomb" format="2">
  <unicode hex="030B"/>
  <anchor x="0.0" y="484.0" name="_top"/>
  <anchor x="0.0" y="685.0" name="top"/>
  <outline>
    <contour>
      <point x="40.53012048192771" y="501.3493975903615" type="line"/>
      <point x="85.855421686747" y="501.3493975903615" type="line"/>
      <point x="169.0843373493976" y="723.5240963855422" type="line"/>
      <point x="94.3012048192771" y="723.5240963855422" type="line"/>
    </contour>
    <contour>
      <point x="-87.26506024096386" y="501.3493975903615" type="line"/>
      <point x="-41.93975903614458" y="501.3493975903615" type="line"/>
      <point x="41.75903614457831" y="723.5240963855422" type="line"/>
      <point x="-33.024096385542165" y="723.5240963855422" type="line"/>
    </contour>
  </outline>
</glyph>
<glyph name="caroncomb" format="2">
  <unicode hex="030C"/>
  <anchor x="0.0" y="484.0" name="_top"/>
  <anchor x="0.0" y="685.0" name="top"/>
  <outline>
    <contour>
      <point x="-38.566265060240966" y="501.3493975903615" type="line"/>
      <point x="38.566265060240966" y="501.3493975903615" type="line"/>
      <point x="148.03614457831324" y="723.5240963855422" type="line"/>
      <point x="91.89156626506023" y="723.5240963855422" type="line"/>
      <point x="0.0" y="554.6204819277108" type="line"/>
      <point x="-91.89156626506023" y="723.5240963855422" type="line"/>
      <point x="-148.03614457831324" y="723.5240963855422" type="line"/>
    </contour>
  </outline>
</glyph>
<glyph name="dblgravecomb" format="2">
  <unicode hex="030F"/>
  <anchor x="0.0" y="484.0" name="_top"/>
  <anchor x="0.0" y="685.0" name="top"/>
  <outline>
    <contour>
      <point x="41.93975903614458" y="501.3493975903615" type="line"/>
      <point x="87.26506024096386" y="501.3493975903615" type="line"/>
      <point x="33.493975903614455" y="723.5240963855422" type="line"/>
      <point x="-41.28915662650603" y="723.5240963855422" type="line"/>
    </contour>
    <contour>
      <point x="-85.3855421686747" y="501.3493975903615" type="line"/>
      <point x="-40.06024096385542" y="501.3493975903615" type="line"/>
      <point x="-94.3012048192771" y="723.5240963855422" type="line"/>
      <point x="-169.0843373493976" y="723.5240963855422" type="line"/>
    </contour>
  </outline>
</glyph>
<glyph name="breveinvertedcomb" format="2">
  <unicode hex="0311"/>
  <anchor x="0.0" y="484.0" name="_top"/>
  <anchor x="0.0" y="685.0" name="top"/>
  <outline>
    <contour>
      <point x="-103.48192771084338" y="498.8795180722891" type="line"/>
      <point x="-100.01204819277109" y="605.4819277108434"/>
      <point x="-62.83132530120482" y="658.3132530120482"/>
      <point x="0.0" y="658.3132530120482" type="curve" smooth="yes"/>
      <point x="62.83132530120482" y="658.3132530120482"/>
      <point x="100.01204819277109" y="605.4819277108434"/>
      <point x="103.48192771084338" y="498.8795180722891" type="curve"/>
      <point x="154.33734939759037" y="504.81927710843377" type="line"/>
      <point x="150.74698795180726" y="639.5240963855422"/>
      <point x="91.57831325301204" y="713.1084337349398"/>
      <point x="0.0" y="713.1084337349398" type="curve" smooth="yes"/>
      <point x="-91.10843373493977" y="713.1084337349398"/>
      <point x="-150.27710843373495" y="639.5240963855422"/>
      <point x="-154.33734939759037" y="504.81927710843377" type="curve"/>
    </contour>
  </outline>
</glyph>
<glyph name="commaturnedabovecomb" format="2">
  <unicode hex="0312"/>
  <anchor x="0.0" y="484.0" name="_top"/>
  <anchor x="0.0" y="685.0" name="top"/>
  <outline>
    <contour>
      <point x="-49.096385542168676" y="517.1807228915662" type="line"/>
      <point x="49.096385542168676" y="517.1807228915662" type="line"/>
      <point x="49.096385542168676" y="600.6867469879519" type="line"/>
      <point x="-20.933734939759034" y="600.6867469879519" type="line"/>
      <point x="1.2349397590361446" y="589.9277108433736" type="line"/>
      <point x="1.2349397590361446" y="628.1024096385543"/>
      <point x="8.409638554216867" y="656.6325301204819"/>
      <point x="40.40963855421687" y="691.2831325301205" type="curve"/>
      <point x="4.542168674698796" y="718.6867469879518" type="line"/>
      <point x="-35.39156626506024" y="680.5722891566265"/>
      <point x="-49.096385542168676" y="633.6927710843373"/>
      <point x="-49.096385542168676" y="580.7590361445783" type="curve" smooth="yes"/>
    </contour>
  </outline>
</glyph>
<glyph name="horncomb" format="2">
  <unicode hex="031B"/>
  <anchor x="-0.29518072289156616" y="434.0" name="_topright"/>
  <outline>
    <contour>
      <point x="41.01807228915663" y="386.13253012048193" type="line"/>
      <point x="129.84939759036143" y="392.0120481927711"/>
      <point x="181.31927710843374" y="447.7710843373494"/>
      <point x="181.31927710843374" y="538.0120481927711" type="curve" smooth="yes"/>
      <point x="181.31927710843374" y="566.0" type="line"/>
      <point x="109.36746987951807" y="566.0" type="line"/>
      <point x="109.36746987951807" y="549.7710843373494" type="line" smooth="yes"/>
      <point x="109.36746987951807" y="471.3614457831326"/>
      <point x="84.01807228915662" y="437.34939759036143"/>
      <point x="-0.29518072289156616" y="436.34939759036143" type="curve"/>
      <point x="-0.29518072289156616" y="414.1686746987952" type="line"/>
    </contour>
  </outline>
</glyph>
<glyph name="dieresisbelowcomb" format="2">
  <unicode hex="0324"/>
  <anchor x="0.0" y="0.0" name="_bottom"/>
  <anchor x="0.0" y="-170.0" name="bottom"/>
  <outline>
    <contour>
      <point x="43.42168674698795" y="-181.33734939759037" type="line"/>
      <point x="130.26506024096386" y="-181.33734939759037" type="line"/>
      <point x="130.26506024096386" y="-95.49397590361446" type="line"/>
      <point x="43.42168674698795" y="-95.49397590361446" type="line"/>
    </contour>
    <contour>
      <point x="-130.26506024096386" y="-181.33734939759037" type="line"/>
      <point x="-43.42168674698795" y="-181.33734939759037" type="line"/>
      <point x="-43.42168674698795" y="-95.49397590361446" type="line"/>
      <point x="-130.26506024096386" y="-95.49397590361446" type="line"/>
    </contour>
  </outline>
</glyph>
<glyph name="commaaccentcomb" format="2">
  <unicode hex="0326"/>
  <anchor x="0.0" y="0.0" name="_bottom"/>
  <anchor x="0.0" y="-170.0" name="bottom"/>
  <outline>
    <contour>
      <point x="-2.6024096385542173" y="-267.9277108433735" type="line"/>
      <point x="33.096385542168676" y="-233.57831325301206"/>
      <point x="49.096385542168676" y="-189.6987951807229"/>
      <point x="49.096385542168676" y="-140.0" type="curve" smooth="yes"/>
      <point x="49.096385542168676" y="-79.89156626506023" type="line"/>
      <point x="-49.096385542168676" y="-79.89156626506023" type="line"/>
      <point x="-49.096385542168676" y="-162.27710843373495" type="line"/>
      <point x="20.16867469879518" y="-162.27710843373495" type="line"/>
      <point x="-0.46987951807228917" y="-151.51807228915663" type="line"/>
      <point x="-0.46987951807228917" y="-183.57831325301206"/>
      <point x="-8.409638554216867" y="-210.10843373493975"/>
      <point x="-38.46987951807229" y="-242.289156626506" type="curve"/>
    </contour>
  </outline>
</glyph>
<glyph name="slashshortcomb" format="2">
  <unicode hex="0337"/>
  <anchor x="-54.60240963855422" y="319.0602409638554" name="_center"/>
  <outline>
    <contour>
      <point x="-174.52409638554218" y="225.3855421686747" type="line"/>
      <point x="94.06626506024097" y="354.3012048192771" type="line"/>
      <point x="66.02409638554217" y="412.7349397590362" type="line"/>
      <point x="-202.56626506024097" y="283.8192771084337" type="line"/>
    </contour>
  </outline>
</glyph>
<glyph name="slashlongcomb" format="2">
  <unicode hex="0338"/>
  <anchor x="6.813253012048193" y="219.7048192771084" name="_center"/>
  <outline>
    <contour>
      <point x="-133.4277108433735" y="-46.33734939759036" type="line"/>
      <point x="192.20481927710844" y="455.34939759036143" type="line"/>
      <point x="146.81927710843374" y="484.98192771084337" type="line"/>
      <point x="-178.8132530120482" y="-16.704819277108435" type="line"/>
    </contour>
  </outline>
</glyph>
<glyph name="mu" format="2">
  <advance width="560.9759036144578"/>
  <unicode hex="03BC"/>
  <outline>
    <contour>
      <point x="73.13253012048193" y="-180.0" type="line"/>
      <point x="154.13253012048193" y="-180.0" type="line"/>
      <point x="147.3132530120482" y="66.90361445783132" type="line"/>
      <point x="134.24698795180723" y="66.90361445783132" type="line"/>
      <point x="158.72289156626505" y="9.180722891566266"/>
      <point x="204.62048192771084" y="-8.939759036144578"/>
      <point x="263.22289156626505" y="-8.939759036144578" type="curve" smooth="yes"/>
      <point x="334.00602409638554" y="-8.939759036144578"/>
      <point x="393.7831325301205" y="33.71084337349397"/>
      <point x="413.78915662650604" y="106.71686746987952" type="curve"/>
      <point x="406.3132530120482" y="106.71686746987952" type="line"/>
      <point x="406.3132530120482" y="0.0" type="line"/>
      <point x="485.3734939759036" y="0.0" type="line"/>
      <point x="485.3734939759036" y="436.34939759036143" type="line"/>
      <point x="404.3734939759036" y="436.34939759036143" type="line"/>
      <point x="404.3734939759036" y="204.99397590361446" type="line" smooth="yes"/>
      <point x="404.3734939759036" y="117.09036144578313"/>
      <point x="347.53614457831327" y="58.01807228915663"/>
      <point x="265.86746987951807" y="58.01807228915663" type="curve" smooth="yes"/>
      <point x="190.02409638554218" y="58.01807228915663"/>
      <point x="154.13253012048193" y="96.20481927710844"/>
      <point x="154.13253012048193" y="182.34337349397592" type="curve" smooth="yes"/>
      <point x="154.13253012048193" y="436.34939759036143" type="line"/>
      <point x="73.13253012048193" y="436.34939759036143" type="line"/>
    </contour>
  </outline>
</glyph>
<glyph name="pi" format="2">
  <advance width="587.2530120481928"/>
  <unicode hex="03C0"/>
  <outline>
    <contour>
      <point x="510.6144578313253" y="-5.34633734939759" type="curve" smooth="yes"/>
      <point x="529.0240963855422" y="-5.34633734939759"/>
      <point x="549.433734939759" y="-3.3493975903614457"/>
      <point x="573.2530120481928" y="0.6506024096385543" type="curve"/>
      <point x="576.6626506024096" y="69.25301204819277" type="line"/>
      <point x="558.5421686746988" y="65.9578313253012"/>
      <point x="541.9518072289156" y="63.72289156626506"/>
      <point x="527.3614457831326" y="63.72289156626506" type="curve" smooth="yes"/>
      <point x="456.12048192771084" y="63.72289156626506"/>
      <point x="428.0" y="101.7289156626506"/>
      <point x="428.0" y="179.09036144578312" type="curve" smooth="yes"/>
      <point x="428.0" y="373.09638554216866" type="line"/>
      <point x="546.5421686746988" y="373.09638554216866" type="line"/>
      <point x="546.5421686746988" y="436.34939759036143" type="line"/>
      <point x="4.530120481927711" y="436.34939759036143" type="line"/>
      <point x="4.530120481927711" y="373.09638554216866" type="line"/>
      <point x="100.18072289156626" y="373.09638554216866" type="line"/>
      <point x="94.65060240963855" y="234.42168674698797"/>
      <point x="75.06024096385542" y="119.46385542168676"/>
      <point x="32.46987951807229" y="0.0" type="curve"/>
      <point x="118.0" y="0.0" type="line"/>
      <point x="157.2951807228916" y="108.94578313253012"/>
      <point x="174.65060240963857" y="217.78313253012047"/>
      <point x="181.18072289156626" y="373.09638554216866" type="curve"/>
      <point x="347.0" y="373.09638554216866" type="line"/>
      <point x="347.0" y="175.15662650602408" type="line" smooth="yes"/>
      <point x="347.0" y="63.99397590361446"/>
      <point x="394.578313253012" y="-5.34633734939759"/>
    </contour>
  </outline>
</glyph>
<glyph name="Nje-cy" format="2">
  <advance width="1165.0602409638554"/>
  <unicode hex="040A"/>
  <outline>
    <contour>
      <point x="87.07228915662651" y="0.0" type="line"/>
      <point x="169.48192771084337" y="0.0" type="line"/>
      <point x="169.48192771084337" y="322.0240963855422" type="line"/>
      <point x="591.855421686747" y="322.0240963855422" type="line"/>
      <point x="591.855421686747" y="0.0" type="line"/>
      <point x="885.4096385542168" y="0.0" type="line" smooth="yes"/>
      <point x="1033.289156626506" y="0.0"/>
      <point x="1119.0481927710844" y="67.75903614457832"/>
      <point x="1119.0481927710844" y="198.04819277108433" type="curve" smooth="yes"/>
      <point x="1119.0481927710844" y="328.33734939759034"/>
      <point x="1033.289156626506" y="394.03614457831327"/>
      <point x="885.4096385542168" y="394.03614457831327" type="curve" smooth="yes"/>
      <point x="674.2650602409639" y="394.03614457831327" type="line"/>
      <point x="674.2650602409639" y="705.0" type="line"/>
      <point x="591.855421686747" y="705.0" type="line"/>
      <point x="591.855421686747" y="392.9759036144578" type="line"/>
      <point x="169.48192771084337" y="392.9759036144578" type="line"/>
      <point x="169.48192771084337" y="705.0" type="line"/>
      <point x="87.07228915662651" y="705.0" type="line"/>
    </contour>
    <contour>
      <point x="674.2650602409639" y="68.60240963855422" type="line"/>
      <point x="674.2650602409639" y="325.43373493975906" type="line"/>
      <point x="877.3614457831326" y="325.43373493975906" type="line" smooth="yes"/>
      <point x="984.855421686747" y="325.43373493975906"/>
      <point x="1037.4578313253012" y="284.48192771084337"/>
      <point x="1037.4578313253012" y="197.51807228915663" type="curve" smooth="yes"/>
      <point x="1037.4578313253012" y="110.08433734939759"/>
      <point x="984.855421686747" y="68.60240963855422"/>
      <point x="877.3614457831326" y="68.60240963855422" type="curve" smooth="yes"/>
    </contour>
  </outline>
</glyph>
<glyph name="Tshe-cy" format="2">
  <advance width="848.5060240963855"/>
  <unicode hex="040B"/>
  <outline>
    <contour>
      <point x="260.2530120481928" y="0.0" type="line"/>
      <point x="342.66265060240966" y="0.0" type="line"/>
      <point x="342.66265060240966" y="322.67469879518075" type="line"/>
      <point x="391.6144578313253" y="351.56626506024094"/>
      <point x="449.56626506024094" y="361.6867469879518"/>
      <point x="508.69879518072287" y="361.6867469879518" type="curve" smooth="yes"/>
      <point x="638.843373493976" y="361.6867469879518"/>
      <point x="708.7951807228916" y="293.5542168674699"/>
      <point x="708.7951807228916" y="140.0" type="curve" smooth="yes"/>
      <point x="708.7951807228916" y="0.0" type="line"/>
      <point x="791.2048192771084" y="0.0" type="line"/>
      <point x="791.2048192771084" y="146.0" type="line" smooth="yes"/>
      <point x="791.2048192771084" y="338.6385542168675"/>
      <point x="693.9759036144578" y="435.10843373493975"/>
      <point x="515.277108433735" y="435.10843373493975" type="curve" smooth="yes"/>
      <point x="452.3855421686747" y="435.10843373493975"/>
      <point x="383.96385542168673" y="422.51807228915663"/>
      <point x="342.66265060240966" y="399.2168674698795" type="curve"/>
      <point x="342.66265060240966" y="634.0481927710844" type="line"/>
      <point x="598.9759036144578" y="634.0481927710844" type="line"/>
      <point x="598.9759036144578" y="705.0" type="line"/>
      <point x="3.9397590361445785" y="705.0" type="line"/>
      <point x="3.9397590361445785" y="634.0481927710844" type="line"/>
      <point x="260.2530120481928" y="634.0481927710844" type="line"/>
    </contour>
  </outline>
</glyph>
<glyph name="De-cy" format="2">
  <advance width="778.3253012048193"/>
  <unicode hex="0414"/>
  <outline>
    <contour>
      <point x="16.650602409638555" y="-157.04819277108433" type="line"/>
      <point x="91.42168674698794" y="-157.04819277108433" type="line"/>
      <point x="91.42168674698794" y="0.0" type="line"/>
      <point x="681.0240963855422" y="0.0" type="line"/>
      <point x="681.0240963855422" y="-157.04819277108433" type="line"/>
      <point x="755.7951807228916" y="-157.04819277108433" type="line"/>
      <point x="755.7951807228916" y="68.60240963855422" type="line"/>
      <point x="655.7951807228916" y="68.60240963855422" type="line"/>
      <point x="655.7951807228916" y="705.0" type="line"/>
      <point x="188.0722891566265" y="705.0" type="line"/>
      <point x="188.0722891566265" y="523.1204819277109" type="line" smooth="yes"/>
      <point x="188.0722891566265" y="301.56626506024094"/>
      <point x="155.42168674698794" y="156.02409638554218"/>
      <point x="85.59036144578313" y="68.60240963855422" type="curve"/>
      <point x="16.650602409638555" y="68.60240963855422" type="line"/>
    </contour>
    <contour>
      <point x="171.59036144578312" y="68.60240963855422" type="line"/>
      <point x="236.0722891566265" y="164.0843373493976"/>
      <point x="265.1927710843373" y="302.1566265060241"/>
      <point x="265.1927710843373" y="517.4819277108434" type="curve" smooth="yes"/>
      <point x="265.1927710843373" y="636.3975903614457" type="line"/>
      <point x="572.9156626506024" y="636.3975903614457" type="line"/>
      <point x="572.9156626506024" y="68.60240963855422" type="line"/>
    </contour>
  </outline>
</glyph>
<glyph name="Zhe-cy" format="2">
  <advance width="968.4096385542168"/>
  <unicode hex="0416"/>
  <anchor x="867.8192771084338" y="0.0" name="bottomright"/>
  <anchor x="484.2048192771084" y="705.0" name="top"/>
  <outline>
    <contour>
      <point x="10.891566265060241" y="0.0" type="line"/>
      <point x="100.06024096385542" y="0.0" type="line"/>
      <point x="197.24096385542168" y="206.710843373494" type="line" smooth="yes"/>
      <point x="235.0722891566265" y="286.90361445783134"/>
      <point x="283.43373493975906" y="320.2048192771084"/>
      <point x="358.32530120481925" y="320.2048192771084" type="curve" smooth="yes"/>
      <point x="444.4096385542169" y="320.2048192771084" type="line"/>
      <point x="444.4096385542169" y="0.0" type="line"/>
      <point x="524.4698795180723" y="0.0" type="line"/>
      <point x="524.4698795180723" y="320.2048192771084" type="line"/>
      <point x="610.5542168674699" y="320.2048192771084" type="line" smooth="yes"/>
      <point x="683.9156626506024" y="320.2048192771084"/>
      <point x="730.7469879518072" y="288.43373493975906"/>
      <point x="770.1084337349398" y="206.710843373494" type="curve" smooth="yes"/>
      <point x="868.8192771084338" y="0.0" type="line"/>
      <point x="957.5180722891566" y="0.0" type="line"/>
      <point x="838.1686746987951" y="244.63855421686748" type="line" smooth="yes"/>
      <point x="796.2289156626506" y="329.9879518072289"/>
      <point x="739.8192771084338" y="378.4578313253012"/>
      <point x="659.6506024096385" y="387.7469879518072" type="curve"/>
      <point x="690.0361445783133" y="361.34939759036143" type="line"/>
      <point x="919.9277108433735" y="705.0" type="line"/>
      <point x="827.6987951807229" y="705.0" type="line"/>
      <point x="610.2048192771084" y="375.2168674698795" type="line"/>
      <point x="634.144578313253" y="391.1566265060241" type="line"/>
      <point x="524.4698795180723" y="391.1566265060241" type="line"/>
      <point x="524.4698795180723" y="705.0" type="line"/>
      <point x="444.4096385542169" y="705.0" type="line"/>
      <point x="444.4096385542169" y="391.1566265060241" type="line"/>
      <point x="336.26506024096386" y="391.1566265060241" type="line"/>
      <point x="358.67469879518075" y="375.2168674698795" type="line"/>
      <point x="141.18072289156626" y="705.0" type="line"/>
      <point x="48.95180722891566" y="705.0" type="line"/>
      <point x="278.8433734939759" y="361.34939759036143" type="line"/>
      <point x="309.2289156626506" y="387.7469879518072" type="line"/>
      <point x="229.06024096385542" y="378.4578313253012"/>
      <point x="170.59036144578315" y="330.4578313253012"/>
      <point x="129.18072289156626" y="244.63855421686748" type="curve" smooth="yes"/>
    </contour>
  </outline>
</glyph>
<glyph name="Ii-cy" format="2">
  <advance width="739.5180722891566"/>
  <unicode hex="0418"/>
  <anchor x="575.855421686747" y="0.0" name="bottomright"/>
  <anchor x="369.7590361445783" y="705.0" name="top"/>
  <outline>
    <contour>
      <point x="87.07228915662651" y="0.0" type="line"/>
      <point x="149.73493975903614" y="0.0" type="line"/>
      <point x="596.7951807228916" y="599.0963855421687" type="line"/>
      <point x="575.855421686747" y="599.0963855421687" type="line"/>
      <point x="575.855421686747" y="0.0" type="line"/>
      <point x="652.4457831325301" y="0.0" type="line"/>
      <point x="652.4457831325301" y="705.0" type="line"/>
      <point x="588.7831325301205" y="705.0" type="line"/>
      <point x="141.72289156626505" y="106.37349397590361" type="line"/>
      <point x="163.66265060240963" y="106.37349397590361" type="line"/>
      <point x="163.66265060240963" y="705.0" type="line"/>
      <point x="87.07228915662651" y="705.0" type="line"/>
    </contour>
  </outline>
</glyph>
<glyph name="Softsign-cy" format="2">
  <advance width="660.277108433735"/>
  <unicode hex="042C"/>
  <outline>
    <contour>
      <point x="87.07228915662651" y="0.0" type="line"/>
      <point x="380.6265060240964" y="0.0" type="line" smooth="yes"/>
      <point x="528.5060240963855" y="0.0"/>
      <point x="614.2650602409639" y="67.75903614457832"/>
      <point x="614.2650602409639" y="198.04819277108433" type="curve" smooth="yes"/>
      <point x="614.2650602409639" y="328.33734939759034"/>
      <point x="528.5060240963855" y="394.03614457831327"/>
      <point x="380.6265060240964" y="394.03614457831327" type="curve" smooth="yes"/>
      <point x="169.48192771084337" y="394.03614457831327" type="line"/>
      <point x="169.48192771084337" y="705.0" type="line"/>
      <point x="87.07228915662651" y="705.0" type="line"/>
    </contour>
    <contour>
      <point x="169.48192771084337" y="68.60240963855422" type="line"/>
      <point x="169.48192771084337" y="325.43373493975906" type="line"/>
      <point x="372.578313253012" y="325.43373493975906" type="line" smooth="yes"/>
      <point x="480.0722891566265" y="325.43373493975906"/>
      <point x="532.6746987951807" y="284.48192771084337"/>
      <point x="532.6746987951807" y="197.51807228915663" type="curve" smooth="yes"/>
      <point x="532.6746987951807" y="110.08433734939759"/>
      <point x="480.0722891566265" y="68.60240963855422"/>
      <point x="372.578313253012" y="68.60240963855422" type="curve" smooth="yes"/>
    </contour>
  </outline>
</glyph>
<glyph name="Ereversed-cy" format="2">
  <advance width="672.6385542168674"/>
  <unicode hex="042D"/>
  <anchor x="297.6385542168675" y="0.0" name="bottom"/>
  <anchor x="297.6385542168675" y="705.0" name="top"/>
  <outline>
    <contour>
      <point x="280.3614457831325" y="-8.939759036144578" type="curve" smooth="yes"/>
      <point x="488.69879518072287" y="-8.939759036144578"/>
      <point x="611.7469879518072" y="129.93975903614458"/>
      <point x="611.7469879518072" y="353.0" type="curve" smooth="yes"/>
      <point x="611.7469879518072" y="575.0602409638554"/>
      <point x="488.69879518072287" y="713.9397590361446"/>
      <point x="290.3614457831325" y="713.9397590361446" type="curve" smooth="yes"/>
      <point x="194.3012048192771" y="713.9397590361446"/>
      <point x="108.48192771084338" y="682.4096385542168"/>
      <point x="41.89156626506024" y="623.6385542168674" type="curve"/>
      <point x="73.28915662650603" y="557.156626506024" type="line"/>
      <point x="144.87951807228916" y="615.4578313253012"/>
      <point x="208.53012048192772" y="638.6385542168674"/>
      <point x="289.0120481927711" y="638.6385542168674" type="curve" smooth="yes"/>
      <point x="433.1566265060241" y="638.6385542168674"/>
      <point x="519.1084337349398" y="538.5542168674699"/>
      <point x="524.4578313253012" y="370.578313253012" type="curve"/>
      <point x="551.9156626506024" y="392.50602409638554" type="line"/>
      <point x="170.06024096385542" y="392.50602409638554" type="line"/>
      <point x="170.06024096385542" y="323.90361445783134" type="line"/>
      <point x="553.3855421686746" y="323.90361445783134" type="line"/>
      <point x="524.9277108433735" y="342.7710843373494" type="line"/>
      <point x="520.5783132530121" y="165.97590361445782"/>
      <point x="433.1566265060241" y="66.36144578313252"/>
      <point x="279.0120481927711" y="66.36144578313252" type="curve" smooth="yes"/>
      <point x="198.53012048192772" y="66.36144578313252"/>
      <point x="134.87951807228916" y="90.48192771084338"/>
      <point x="73.28915662650603" y="147.8433734939759" type="curve"/>
      <point x="41.89156626506024" y="81.36144578313252" type="line"/>
      <point x="98.48192771084338" y="23.06024096385542"/>
      <point x="184.3012048192771" y="-8.939759036144578"/>
    </contour>
  </outline>
</glyph>
<glyph name="Ia-cy" format="2">
  <advance width="670.4457831325301"/>
  <unicode hex="042F"/>
  <outline>
    <contour>
      <point x="38.48192771084337" y="0.0" type="line"/>
      <point x="129.12048192771084" y="0.0" type="line"/>
      <point x="251.59036144578312" y="225.53012048192772" type="line" smooth="yes"/>
      <point x="282.48192771084337" y="282.7831325301205"/>
      <point x="318.2530120481928" y="297.90361445783134"/>
      <point x="382.6265060240964" y="297.90361445783134" type="curve" smooth="yes"/>
      <point x="500.96385542168673" y="297.90361445783134" type="line"/>
      <point x="500.96385542168673" y="0.0" type="line"/>
      <point x="583.3734939759036" y="0.0" type="line"/>
      <point x="583.3734939759036" y="705.0" type="line"/>
      <point x="303.93975903614455" y="705.0" type="line" smooth="yes"/>
      <point x="152.65060240963857" y="705.0"/>
      <point x="68.83132530120481" y="631.2409638554217"/>
      <point x="68.83132530120481" y="501.421686746988" type="curve" smooth="yes"/>
      <point x="68.83132530120481" y="374.66265060240966"/>
      <point x="155.710843373494" y="300.90361445783134"/>
      <point x="303.93975903614455" y="300.90361445783134" type="curve"/>
      <point x="310.1807228915663" y="314.3132530120482" type="line"/>
      <point x="284.6024096385542" y="314.3132530120482" type="line" smooth="yes"/>
      <point x="231.72289156626505" y="314.3132530120482"/>
      <point x="194.90361445783134" y="288.8433734939759"/>
      <point x="163.3734939759036" y="230.25301204819277" type="curve" smooth="yes"/>
    </contour>
    <contour>
      <point x="316.3975903614458" y="363.2168674698795" type="line" smooth="yes"/>
      <point x="206.3734939759036" y="363.2168674698795"/>
      <point x="150.42168674698794" y="409.69879518072287"/>
      <point x="150.42168674698794" y="500.5421686746988" type="curve" smooth="yes"/>
      <point x="150.42168674698794" y="590.3855421686746"/>
      <point x="206.3734939759036" y="636.8674698795181"/>
      <point x="316.3975903614458" y="636.8674698795181" type="curve" smooth="yes"/>
      <point x="500.96385542168673" y="636.8674698795181" type="line"/>
      <point x="500.96385542168673" y="363.2168674698795" type="line"/>
    </contour>
  </outline>
</glyph>
<glyph name="be-cy" format="2">
  <advance width="565.6144578313254"/>
  <unicode hex="0431"/>
  <outline>
    <contour>
      <point x="285.1566265060241" y="-8.939759036144578" type="curve" smooth="yes"/>
      <point x="424.73493975903614" y="-8.939759036144578"/>
      <point x="514.7831325301205" y="79.29518072289156"/>
      <point x="514.7831325301205" y="218.87951807228916" type="curve" smooth="yes"/>
      <point x="514.7831325301205" y="355.7048192771084"/>
      <point x="429.43373493975906" y="442.0"/>
      <point x="303.1927710843373" y="442.0" type="curve" smooth="yes"/>
      <point x="207.96987951807228" y="442.0"/>
      <point x="137.66867469879517" y="389.95180722891564"/>
      <point x="115.48795180722891" y="312.1265060240964" type="curve"/>
      <point x="128.77710843373492" y="312.1265060240964" type="line"/>
      <point x="128.77710843373492" y="364.99397590361446" type="line" smooth="yes"/>
      <point x="128.77710843373492" y="487.42771084337346"/>
      <point x="184.54819277108433" y="555.1445783132531"/>
      <point x="293.7951807228916" y="591.7409638554217" type="curve" smooth="yes"/>
      <point x="484.7831325301205" y="653.3915662650602" type="line"/>
      <point x="458.15060240963857" y="719.5843373493976" type="line"/>
      <point x="281.03614457831327" y="660.2831325301205" type="line" smooth="yes"/>
      <point x="125.29518072289156" y="608.8132530120481"/>
      <point x="51.066265060240966" y="522.1144578313254"/>
      <point x="51.066265060240966" y="340.644578313253" type="curve" smooth="yes"/>
      <point x="51.066265060240966" y="245.16265060240966" type="line" smooth="yes"/>
      <point x="51.066265060240966" y="78.53012048192771"/>
      <point x="140.58433734939757" y="-8.939759036144578"/>
    </contour>
    <contour>
      <point x="282.5120481927711" y="55.903614457831324" type="curve" smooth="yes"/>
      <point x="188.60843373493978" y="55.903614457831324"/>
      <point x="133.06626506024097" y="113.21084337349397"/>
      <point x="133.06626506024097" y="222.65060240963854" type="curve" smooth="yes"/>
      <point x="133.06626506024097" y="318.55421686746985"/>
      <point x="190.13855421686748" y="377.1566265060241"/>
      <point x="283.0421686746988" y="377.1566265060241" type="curve" smooth="yes"/>
      <point x="376.1807228915663" y="377.1566265060241"/>
      <point x="433.2530120481928" y="319.3192771084337"/>
      <point x="433.2530120481928" y="216.53012048192772" type="curve" smooth="yes"/>
      <point x="433.2530120481928" y="112.74096385542168"/>
      <point x="376.4156626506024" y="55.903614457831324"/>
    </contour>
  </outline>
</glyph>
<glyph name="ve-cy" format="2">
  <advance width="546.7951807228916"/>
  <unicode hex="0432"/>
  <outline>
    <contour>
      <point x="80.01204819277109" y="0.0" type="line"/>
      <point x="336.15060240963857" y="0.0" type="line" smooth="yes"/>
      <point x="440.789156626506" y="0.0"/>
      <point x="500.8433734939759" y="47.174698795180724"/>
      <point x="500.8433734939759" y="122.1144578313253" type="curve" smooth="yes"/>
      <point x="500.8433734939759" y="184.64457831325302"/>
      <point x="454.6024096385542" y="227.93975903614458"/>
      <point x="379.6686746987952" y="230.289156626506" type="curve"/>
      <point x="379.6686746987952" y="218.34939759036143" type="line"/>
      <point x="441.66867469879514" y="225.75903614457832"/>
      <point x="484.90361445783134" y="266.289156626506"/>
      <point x="484.90361445783134" y="322.34939759036143" type="curve" smooth="yes"/>
      <point x="484.90361445783134" y="396.4698795180723"/>
      <point x="433.3734939759036" y="436.34939759036143"/>
      <point x="328.15060240963857" y="436.34939759036143" type="curve" smooth="yes"/>
      <point x="80.01204819277109" y="436.34939759036143" type="line"/>
    </contour>
    <contour>
      <point x="156.54819277108436" y="52.68072289156626" type="line"/>
      <point x="156.54819277108436" y="196.1867469879518" type="line"/>
      <point x="331.7530120481928" y="196.1867469879518" type="line" smooth="yes"/>
      <point x="393.65060240963857" y="196.1867469879518"/>
      <point x="425.48192771084337" y="171.4156626506024"/>
      <point x="425.48192771084337" y="123.93373493975905" type="curve" smooth="yes"/>
      <point x="425.48192771084337" y="78.21686746987952"/>
      <point x="393.65060240963857" y="52.68072289156626"/>
      <point x="331.7530120481928" y="52.68072289156626" type="curve" smooth="yes"/>
    </contour>
    <contour>
      <point x="156.54819277108436" y="248.8674698795181" type="line"/>
      <point x="156.54819277108436" y="384.66867469879514" type="line"/>
      <point x="322.578313253012" y="384.66867469879514" type="line" smooth="yes"/>
      <point x="379.4759036144578" y="384.66867469879514"/>
      <point x="409.5421686746988" y="359.83734939759034"/>
      <point x="409.5421686746988" y="317.12048192771084" type="curve" smooth="yes"/>
      <point x="409.5421686746988" y="274.1686746987952"/>
      <point x="379.4759036144578" y="248.8674698795181"/>
      <point x="322.578313253012" y="248.8674698795181" type="curve" smooth="yes"/>
    </contour>
  </outline>
</glyph>
<glyph name="de-cy" format="2">
  <advance width="592.0240963855422"/>
  <unicode hex="0434"/>
  <outline>
    <contour>
      <point x="26.53012048192771" y="-130.0" type="line"/>
      <point x="96.48192771084338" y="-130.0" type="line"/>
      <point x="96.48192771084338" y="0.0" type="line"/>
      <point x="494.1807228915663" y="0.0" type="line"/>
      <point x="494.1807228915663" y="-130.0" type="line"/>
      <point x="564.1325301204819" y="-130.0" type="line"/>
      <point x="564.1325301204819" y="64.66265060240964" type="line"/>
      <point x="487.3132530120482" y="64.66265060240964" type="line"/>
      <point x="487.3132530120482" y="436.34939759036143" type="line"/>
      <point x="142.89156626506025" y="436.34939759036143" type="line"/>
      <point x="142.89156626506025" y="308.578313253012" type="line" smooth="yes"/>
      <point x="142.89156626506025" y="198.74698795180726"/>
      <point x="124.18072289156626" y="124.25903614457832"/>
      <point x="77.28915662650603" y="64.66265060240964" type="curve"/>
      <point x="26.53012048192771" y="64.66265060240964" type="line"/>
    </contour>
    <contour>
      <point x="156.59638554216866" y="64.66265060240964" type="line"/>
      <point x="193.72289156626508" y="122.43975903614458"/>
      <point x="214.6686746987952" y="206.51807228915663"/>
      <point x="214.6686746987952" y="293.4216867469879" type="curve" smooth="yes"/>
      <point x="214.6686746987952" y="373.09638554216866" type="line"/>
      <point x="410.54216867469876" y="373.09638554216866" type="line"/>
      <point x="410.54216867469876" y="64.66265060240964" type="line"/>
    </contour>
  </outline>
</glyph>
<glyph name="zhe-cy" format="2">
  <advance width="784.6506024096385"/>
  <unicode hex="0436"/>
  <anchor x="701.5783132530121" y="0.0" name="bottomright"/>
  <anchor x="392.32530120481925" y="484.0" name="top"/>
  <outline>
    <contour>
      <point x="0.6566265060240959" y="0.0" type="line"/>
      <point x="88.7710843373494" y="0.0" type="line"/>
      <point x="176.4277108433735" y="130.94578313253012" type="line" smooth="yes"/>
      <point x="210.14457831325302" y="180.25301204819274"/>
      <point x="233.0301204819277" y="193.13855421686748"/>
      <point x="288.92771084337346" y="193.13855421686748" type="curve" smooth="yes"/>
      <point x="352.2951807228916" y="193.13855421686748" type="line"/>
      <point x="352.2951807228916" y="0.0" type="line"/>
      <point x="433.06024096385545" y="0.0" type="line"/>
      <point x="433.06024096385545" y="193.13855421686748" type="line"/>
      <point x="496.4277108433735" y="193.13855421686748" type="line" smooth="yes"/>
      <point x="551.8554216867469" y="193.13855421686748"/>
      <point x="575.2108433734941" y="180.25301204819274"/>
      <point x="608.6927710843373" y="130.94578313253012" type="curve" smooth="yes"/>
      <point x="696.5843373493975" y="0.0" type="line"/>
      <point x="783.9939759036145" y="0.0" type="line"/>
      <point x="683.1144578313252" y="153.5120481927711" type="line" smooth="yes"/>
      <point x="638.8674698795181" y="219.52409638554218"/>
      <point x="607.933734939759" y="242.57831325301208"/>
      <point x="552.3433734939758" y="248.8132530120482" type="curve"/>
      <point x="571.343373493976" y="223.59638554216866" type="line"/>
      <point x="758.8132530120482" y="436.34939759036143" type="line"/>
      <point x="669.1084337349397" y="436.34939759036143" type="line"/>
      <point x="510.0843373493976" y="256.6265060240964" type="line"/>
      <point x="433.06024096385545" y="256.6265060240964" type="line"/>
      <point x="433.06024096385545" y="436.34939759036143" type="line"/>
      <point x="352.2951807228916" y="436.34939759036143" type="line"/>
      <point x="352.2951807228916" y="256.6265060240964" type="line"/>
      <point x="275.2710843373494" y="256.6265060240964" type="line"/>
      <point x="115.77710843373495" y="436.34939759036143" type="line"/>
      <point x="25.83734939759036" y="436.34939759036143" type="line"/>
      <point x="214.77710843373495" y="223.59638554216866" type="line"/>
      <point x="233.30722891566265" y="248.8132530120482" type="line"/>
      <point x="177.7168674698795" y="242.57831325301208"/>
      <point x="146.25301204819277" y="219.52409638554218"/>
      <point x="103.00602409638554" y="153.5120481927711" type="curve" smooth="yes"/>
    </contour>
  </outline>
</glyph>
<glyph name="ze-cy" format="2">
  <advance width="496.73493975903614"/>
  <unicode hex="0437"/>
  <anchor x="248.27710843373495" y="0.0" name="bottom"/>
  <anchor x="245.4578313253012" y="486.34939759036143" name="top"/>
  <outline>
    <contour>
      <point x="242.3975903614458" y="-8.939759036144578" type="curve" smooth="yes"/>
      <point x="379.855421686747" y="-8.939759036144578"/>
      <point x="450.7831325301205" y="41.0"/>
      <point x="450.7831325301205" y="120.58433734939757" type="curve" smooth="yes"/>
      <point x="450.7831325301205" y="185.289156626506"/>
      <point x="402.8975903614458" y="227.70481927710844"/>
      <point x="327.9036144578313" y="230.05421686746988" type="curve"/>
      <point x="327.9036144578313" y="218.34939759036143" type="line"/>
      <point x="391.8433734939759" y="225.52409638554218"/>
      <point x="434.60843373493975" y="266.28915662650604"/>
      <point x="434.60843373493975" y="320.8192771084337" type="curve" smooth="yes"/>
      <point x="434.60843373493975" y="398.5240963855422"/>
      <point x="370.03012048192767" y="445.28915662650604"/>
      <point x="249.27710843373495" y="445.28915662650604" type="curve" smooth="yes"/>
      <point x="167.05421686746988" y="445.28915662650604"/>
      <point x="95.94578313253012" y="427.28915662650604"/>
      <point x="40.71084337349397" y="392.6385542168675" type="curve"/>
      <point x="65.87951807228916" y="339.3132530120482" type="line"/>
      <point x="117.17469879518072" y="370.6144578313253"/>
      <point x="172.40963855421685" y="386.37951807228916"/>
      <point x="241.34939759036143" y="386.37951807228916" type="curve" smooth="yes"/>
      <point x="322.12048192771084" y="386.37951807228916"/>
      <point x="358.2469879518072" y="359.4277108433735"/>
      <point x="358.2469879518072" y="315.8855421686747" type="curve" smooth="yes"/>
      <point x="358.2469879518072" y="274.5783132530121"/>
      <point x="327.0602409638554" y="250.5120481927711"/>
      <point x="271.2831325301205" y="250.5120481927711" type="curve" smooth="yes"/>
      <point x="160.4156626506024" y="250.5120481927711" type="line"/>
      <point x="160.4156626506024" y="192.4277108433735" type="line"/>
      <point x="281.16265060240966" y="192.4277108433735" type="line" smooth="yes"/>
      <point x="343.76506024096386" y="192.4277108433735"/>
      <point x="374.6566265060241" y="169.36144578313252"/>
      <point x="374.6566265060241" y="122.99397590361447" type="curve" smooth="yes"/>
      <point x="374.6566265060241" y="74.6867469879518"/>
      <point x="335.4759036144578" y="50.96987951807228"/>
      <point x="242.16265060240966" y="50.96987951807228" type="curve" smooth="yes"/>
      <point x="171.69277108433735" y="50.96987951807228"/>
      <point x="105.75903614457832" y="68.79518072289156"/>
      <point x="58.1144578313253" y="103.27108433734941" type="curve"/>
      <point x="33.18072289156626" y="48.7710843373494" type="line"/>
      <point x="81.87951807228916" y="12.41566265060241"/>
      <point x="157.10843373493975" y="-8.939759036144578"/>
    </contour>
  </outline>
</glyph>
<glyph name="ii-cy" format="2">
  <advance width="583.855421686747"/>
  <unicode hex="0438"/>
  <anchor x="430.0722891566265" y="0.0" name="bottomright"/>
  <anchor x="291.9277108433735" y="484.0" name="top"/>
  <outline>
    <contour>
      <point x="80.01204819277109" y="0.0" type="line"/>
      <point x="148.5542168674699" y="0.0" type="line"/>
      <point x="455.5421686746988" y="364.0602409638554" type="line"/>
      <point x="430.0722891566265" y="364.0602409638554" type="line"/>
      <point x="430.0722891566265" y="0.0" type="line"/>
      <point x="503.8433734939759" y="0.0" type="line"/>
      <point x="503.8433734939759" y="436.34939759036143" type="line"/>
      <point x="436.06626506024094" y="436.34939759036143" type="line"/>
      <point x="129.54819277108433" y="72.7590361445783" type="line"/>
      <point x="153.7831325301205" y="72.7590361445783" type="line"/>
      <point x="153.7831325301205" y="436.34939759036143" type="line"/>
      <point x="80.01204819277109" y="436.34939759036143" type="line"/>
    </contour>
  </outline>
</glyph>
<glyph name="ka-cy" format="2">
  <advance width="526.1325301204819"/>
  <unicode hex="043A"/>
  <anchor x="442.5903614457831" y="0.0" name="bottomright"/>
  <anchor x="255.50602409638554" y="219.644578313253" name="center"/>
  <anchor x="290.03614457831327" y="484.0" name="top"/>
  <outline>
    <contour>
      <point x="80.01204819277109" y="0.0" type="line"/>
      <point x="161.0120481927711" y="0.0" type="line"/>
      <point x="161.0120481927711" y="193.13855421686748" type="line"/>
      <point x="237.43975903614458" y="193.13855421686748" type="line" smooth="yes"/>
      <point x="293.33734939759034" y="193.13855421686748"/>
      <point x="316.22289156626505" y="180.25301204819274"/>
      <point x="349.70481927710847" y="130.94578313253012" type="curve" smooth="yes"/>
      <point x="437.59638554216866" y="0.0" type="line"/>
      <point x="525.4759036144578" y="0.0" type="line"/>
      <point x="424.1265060240964" y="153.5120481927711" type="line" smooth="yes"/>
      <point x="379.87951807228916" y="219.52409638554218"/>
      <point x="349.41566265060237" y="242.57831325301208"/>
      <point x="293.82530120481925" y="248.8132530120482" type="curve"/>
      <point x="314.23493975903614" y="223.59638554216866" type="line"/>
      <point x="500.2951807228916" y="436.34939759036143" type="line"/>
      <point x="410.5903614457831" y="436.34939759036143" type="line"/>
      <point x="251.09638554216866" y="256.6265060240964" type="line"/>
      <point x="161.0120481927711" y="256.6265060240964" type="line"/>
      <point x="161.0120481927711" y="436.34939759036143" type="line"/>
      <point x="80.01204819277109" y="436.34939759036143" type="line"/>
    </contour>
  </outline>
</glyph>
<glyph name="el-cy" format="2">
  <advance width="574.2048192771084"/>
  <unicode hex="043B"/>
  <anchor x="417.421686746988" y="0.0" name="bottomright"/>
  <outline>
    <contour>
      <point x="52.69879518072289" y="-11.349397590361445" type="line"/>
      <point x="171.9156626506024" y="26.018072289156628"/>
      <point x="216.7831325301205" y="115.42168674698796"/>
      <point x="216.7831325301205" y="317.1506024096385" type="curve" smooth="yes"/>
      <point x="216.7831325301205" y="371.45180722891564" type="line"/>
      <point x="413.1927710843373" y="371.45180722891564" type="line"/>
      <point x="413.1927710843373" y="0.0" type="line"/>
      <point x="494.1927710843373" y="0.0" type="line"/>
      <point x="494.1927710843373" y="436.34939759036143" type="line"/>
      <point x="141.0120481927711" y="436.34939759036143" type="line"/>
      <point x="141.0120481927711" y="319.5602409638554" type="line" smooth="yes"/>
      <point x="141.0120481927711" y="149.9819277108434"/>
      <point x="113.07228915662651" y="86.26506024096386"/>
      <point x="22.710843373493976" y="53.4277108433735" type="curve"/>
    </contour>
  </outline>
</glyph>
<glyph name="em-cy" format="2">
  <advance width="659.0240963855422"/>
  <unicode hex="043C"/>
  <anchor x="507.1807228915663" y="0.0" name="bottomright"/>
  <outline>
    <contour>
      <point x="80.01204819277109" y="0.0" type="line"/>
      <point x="151.8433734939759" y="0.0" type="line"/>
      <point x="151.8433734939759" y="352.87951807228916" type="line"/>
      <point x="127.31927710843374" y="352.87951807228916" type="line"/>
      <point x="309.5240963855422" y="70.17469879518073" type="line"/>
      <point x="350.26506024096386" y="70.17469879518073" type="line"/>
      <point x="531.7048192771085" y="352.87951807228916" type="line"/>
      <point x="507.1807228915663" y="352.87951807228916" type="line"/>
      <point x="507.1807228915663" y="0.0" type="line"/>
      <point x="579.0120481927711" y="0.0" type="line"/>
      <point x="579.0120481927711" y="436.34939759036143" type="line"/>
      <point x="513.7650602409639" y="436.34939759036143" type="line"/>
      <point x="329.7469879518072" y="147.1867469879518" type="line"/>
      <point x="146.49397590361448" y="436.34939759036143" type="line"/>
      <point x="80.01204819277109" y="436.34939759036143" type="line"/>
    </contour>
  </outline>
</glyph>
<glyph name="en-cy" format="2">
  <advance width="586.7951807228916"/>
  <unicode hex="043D"/>
  <anchor x="430.0120481927711" y="0.0" name="bottomright"/>
  <outline>
    <contour>
      <point x="80.01204819277109" y="0.0" type="line"/>
      <point x="161.0120481927711" y="0.0" type="line"/>
      <point x="161.0120481927711" y="192.13855421686748" type="line"/>
      <point x="425.7831325301205" y="192.13855421686748" type="line"/>
      <point x="425.7831325301205" y="0.0" type="line"/>
      <point x="506.7831325301205" y="0.0" type="line"/>
      <point x="506.7831325301205" y="436.34939759036143" type="line"/>
      <point x="425.7831325301205" y="436.34939759036143" type="line"/>
      <point x="425.7831325301205" y="257.56626506024094" type="line"/>
      <point x="161.0120481927711" y="257.56626506024094" type="line"/>
      <point x="161.0120481927711" y="436.34939759036143" type="line"/>
      <point x="80.01204819277109" y="436.34939759036143" type="line"/>
    </contour>
  </outline>
</glyph>
<glyph name="te-cy" format="2">
  <advance width="443.8433734939759"/>
  <unicode hex="0442"/>
  <anchor x="185.65060240963857" y="0.0" name="bottomright"/>
  <outline>
    <contour>
      <point x="181.42168674698794" y="0.0" type="line"/>
      <point x="262.421686746988" y="0.0" type="line"/>
      <point x="262.421686746988" y="372.3915662650602" type="line"/>
      <point x="439.43373493975906" y="372.3915662650602" type="line"/>
      <point x="439.43373493975906" y="436.34939759036143" type="line"/>
      <point x="4.879518072289157" y="436.34939759036143" type="line"/>
      <point x="4.879518072289157" y="372.3915662650602" type="line"/>
      <point x="181.42168674698794" y="372.3915662650602" type="line"/>
    </contour>
  </outline>
</glyph>
